G04 #@! TF.FileFunction,Legend,Top*
%FSLAX46Y46*%
G04 Gerber Fmt 4.6, Leading zero omitted, Abs format (unit mm)*
G04 Created by KiCad (PCBNEW 4.0.6) date Mon Mar 20 23:38:24 2017*
%MOMM*%
%LPD*%
G01*
G04 APERTURE LIST*
%ADD10C,0.100000*%
%ADD11C,0.110000*%
%ADD12C,0.120000*%
%ADD13C,0.150000*%
%ADD14C,0.203200*%
%ADD15C,0.062500*%
%ADD16C,0.095250*%
%ADD17R,0.900000X0.500000*%
%ADD18R,0.250000X1.000000*%
%ADD19R,1.000000X0.250000*%
%ADD20R,0.650000X1.220000*%
%ADD21R,0.500000X0.600000*%
%ADD22R,0.600000X0.500000*%
%ADD23R,0.750000X0.800000*%
%ADD24R,0.800000X0.800000*%
%ADD25R,1.380000X0.450000*%
%ADD26R,2.100000X1.475000*%
%ADD27R,1.900000X2.375000*%
%ADD28R,1.900000X1.175000*%
%ADD29R,0.600000X0.400000*%
%ADD30R,4.064000X1.524000*%
%ADD31C,0.762000*%
%ADD32R,0.500000X0.900000*%
%ADD33R,1.550000X1.300000*%
%ADD34R,0.710000X0.280000*%
%ADD35R,0.280000X0.710000*%
%ADD36C,0.280000*%
%ADD37R,1.725000X1.725000*%
%ADD38C,0.300000*%
%ADD39C,0.320000*%
%ADD40R,1.400000X1.200000*%
%ADD41R,4.500000X2.000000*%
%ADD42R,1.000000X1.000000*%
%ADD43O,1.000000X1.000000*%
%ADD44C,1.270000*%
G04 APERTURE END LIST*
D10*
D11*
X5611762Y6953429D02*
X5587952Y6929619D01*
X5516524Y6905810D01*
X5468905Y6905810D01*
X5397476Y6929619D01*
X5349857Y6977238D01*
X5326048Y7024857D01*
X5302238Y7120095D01*
X5302238Y7191524D01*
X5326048Y7286762D01*
X5349857Y7334381D01*
X5397476Y7382000D01*
X5468905Y7405810D01*
X5516524Y7405810D01*
X5587952Y7382000D01*
X5611762Y7358190D01*
X6111762Y6953429D02*
X6087952Y6929619D01*
X6016524Y6905810D01*
X5968905Y6905810D01*
X5897476Y6929619D01*
X5849857Y6977238D01*
X5826048Y7024857D01*
X5802238Y7120095D01*
X5802238Y7191524D01*
X5826048Y7286762D01*
X5849857Y7334381D01*
X5897476Y7382000D01*
X5968905Y7405810D01*
X6016524Y7405810D01*
X6087952Y7382000D01*
X6111762Y7358190D01*
X6587952Y6905810D02*
X6302238Y6905810D01*
X6445095Y6905810D02*
X6445095Y7405810D01*
X6397476Y7334381D01*
X6349857Y7286762D01*
X6302238Y7262952D01*
X6778428Y7358190D02*
X6802238Y7382000D01*
X6849857Y7405810D01*
X6968904Y7405810D01*
X7016523Y7382000D01*
X7040333Y7358190D01*
X7064142Y7310571D01*
X7064142Y7262952D01*
X7040333Y7191524D01*
X6754619Y6905810D01*
X7064142Y6905810D01*
X7373666Y7405810D02*
X7421285Y7405810D01*
X7468904Y7382000D01*
X7492713Y7358190D01*
X7516523Y7310571D01*
X7540332Y7215333D01*
X7540332Y7096286D01*
X7516523Y7001048D01*
X7492713Y6953429D01*
X7468904Y6929619D01*
X7421285Y6905810D01*
X7373666Y6905810D01*
X7326047Y6929619D01*
X7302237Y6953429D01*
X7278428Y7001048D01*
X7254618Y7096286D01*
X7254618Y7215333D01*
X7278428Y7310571D01*
X7302237Y7358190D01*
X7326047Y7382000D01*
X7373666Y7405810D01*
X7849856Y7405810D02*
X7897475Y7405810D01*
X7945094Y7382000D01*
X7968903Y7358190D01*
X7992713Y7310571D01*
X8016522Y7215333D01*
X8016522Y7096286D01*
X7992713Y7001048D01*
X7968903Y6953429D01*
X7945094Y6929619D01*
X7897475Y6905810D01*
X7849856Y6905810D01*
X7802237Y6929619D01*
X7778427Y6953429D01*
X7754618Y7001048D01*
X7730808Y7096286D01*
X7730808Y7215333D01*
X7754618Y7310571D01*
X7778427Y7358190D01*
X7802237Y7382000D01*
X7849856Y7405810D01*
X8611760Y6905810D02*
X8611760Y7405810D01*
X8778426Y7048667D01*
X8945093Y7405810D01*
X8945093Y6905810D01*
X9254617Y6905810D02*
X9206998Y6929619D01*
X9183189Y6953429D01*
X9159379Y7001048D01*
X9159379Y7143905D01*
X9183189Y7191524D01*
X9206998Y7215333D01*
X9254617Y7239143D01*
X9326046Y7239143D01*
X9373665Y7215333D01*
X9397474Y7191524D01*
X9421284Y7143905D01*
X9421284Y7001048D01*
X9397474Y6953429D01*
X9373665Y6929619D01*
X9326046Y6905810D01*
X9254617Y6905810D01*
X9849855Y6905810D02*
X9849855Y7405810D01*
X9849855Y6929619D02*
X9802236Y6905810D01*
X9706998Y6905810D01*
X9659379Y6929619D01*
X9635570Y6953429D01*
X9611760Y7001048D01*
X9611760Y7143905D01*
X9635570Y7191524D01*
X9659379Y7215333D01*
X9706998Y7239143D01*
X9802236Y7239143D01*
X9849855Y7215333D01*
X10302236Y7239143D02*
X10302236Y6905810D01*
X10087951Y7239143D02*
X10087951Y6977238D01*
X10111760Y6929619D01*
X10159379Y6905810D01*
X10230808Y6905810D01*
X10278427Y6929619D01*
X10302236Y6953429D01*
X10611760Y6905810D02*
X10564141Y6929619D01*
X10540332Y6977238D01*
X10540332Y7405810D01*
X10992713Y6929619D02*
X10945094Y6905810D01*
X10849856Y6905810D01*
X10802237Y6929619D01*
X10778427Y6977238D01*
X10778427Y7167714D01*
X10802237Y7215333D01*
X10849856Y7239143D01*
X10945094Y7239143D01*
X10992713Y7215333D01*
X11016522Y7167714D01*
X11016522Y7120095D01*
X10778427Y7072476D01*
X5326048Y6045810D02*
X5326048Y6379143D01*
X5326048Y6283905D02*
X5349857Y6331524D01*
X5373667Y6355333D01*
X5421286Y6379143D01*
X5468905Y6379143D01*
X5826048Y6069619D02*
X5778429Y6045810D01*
X5683191Y6045810D01*
X5635572Y6069619D01*
X5611762Y6117238D01*
X5611762Y6307714D01*
X5635572Y6355333D01*
X5683191Y6379143D01*
X5778429Y6379143D01*
X5826048Y6355333D01*
X5849857Y6307714D01*
X5849857Y6260095D01*
X5611762Y6212476D01*
X6016524Y6379143D02*
X6135571Y6045810D01*
X6254619Y6379143D01*
X6921285Y6545810D02*
X6968904Y6545810D01*
X7016523Y6522000D01*
X7040332Y6498190D01*
X7064142Y6450571D01*
X7087951Y6355333D01*
X7087951Y6236286D01*
X7064142Y6141048D01*
X7040332Y6093429D01*
X7016523Y6069619D01*
X6968904Y6045810D01*
X6921285Y6045810D01*
X6873666Y6069619D01*
X6849856Y6093429D01*
X6826047Y6141048D01*
X6802237Y6236286D01*
X6802237Y6355333D01*
X6826047Y6450571D01*
X6849856Y6498190D01*
X6873666Y6522000D01*
X6921285Y6545810D01*
X7302237Y6093429D02*
X7326046Y6069619D01*
X7302237Y6045810D01*
X7278427Y6069619D01*
X7302237Y6093429D01*
X7302237Y6045810D01*
X7802236Y6045810D02*
X7516522Y6045810D01*
X7659379Y6045810D02*
X7659379Y6545810D01*
X7611760Y6474381D01*
X7564141Y6426762D01*
X7516522Y6402952D01*
X8016522Y6093429D02*
X8040331Y6069619D01*
X8016522Y6045810D01*
X7992712Y6069619D01*
X8016522Y6093429D01*
X8016522Y6045810D01*
X8349855Y6545810D02*
X8397474Y6545810D01*
X8445093Y6522000D01*
X8468902Y6498190D01*
X8492712Y6450571D01*
X8516521Y6355333D01*
X8516521Y6236286D01*
X8492712Y6141048D01*
X8468902Y6093429D01*
X8445093Y6069619D01*
X8397474Y6045810D01*
X8349855Y6045810D01*
X8302236Y6069619D01*
X8278426Y6093429D01*
X8254617Y6141048D01*
X8230807Y6236286D01*
X8230807Y6355333D01*
X8254617Y6450571D01*
X8278426Y6498190D01*
X8302236Y6522000D01*
X8349855Y6545810D01*
X5492714Y5447714D02*
X5564143Y5423905D01*
X5587952Y5400095D01*
X5611762Y5352476D01*
X5611762Y5281048D01*
X5587952Y5233429D01*
X5564143Y5209619D01*
X5516524Y5185810D01*
X5326048Y5185810D01*
X5326048Y5685810D01*
X5492714Y5685810D01*
X5540333Y5662000D01*
X5564143Y5638190D01*
X5587952Y5590571D01*
X5587952Y5542952D01*
X5564143Y5495333D01*
X5540333Y5471524D01*
X5492714Y5447714D01*
X5326048Y5447714D01*
X5778429Y5519143D02*
X5897476Y5185810D01*
X6016524Y5519143D02*
X5897476Y5185810D01*
X5849857Y5066762D01*
X5826048Y5042952D01*
X5778429Y5019143D01*
X6564142Y5209619D02*
X6635571Y5185810D01*
X6754618Y5185810D01*
X6802237Y5209619D01*
X6826047Y5233429D01*
X6849856Y5281048D01*
X6849856Y5328667D01*
X6826047Y5376286D01*
X6802237Y5400095D01*
X6754618Y5423905D01*
X6659380Y5447714D01*
X6611761Y5471524D01*
X6587952Y5495333D01*
X6564142Y5542952D01*
X6564142Y5590571D01*
X6587952Y5638190D01*
X6611761Y5662000D01*
X6659380Y5685810D01*
X6778428Y5685810D01*
X6849856Y5662000D01*
X7064142Y5185810D02*
X7064142Y5685810D01*
X7278427Y5185810D02*
X7278427Y5447714D01*
X7254618Y5495333D01*
X7206999Y5519143D01*
X7135570Y5519143D01*
X7087951Y5495333D01*
X7064142Y5471524D01*
X7516523Y5185810D02*
X7516523Y5519143D01*
X7516523Y5685810D02*
X7492713Y5662000D01*
X7516523Y5638190D01*
X7540332Y5662000D01*
X7516523Y5685810D01*
X7516523Y5638190D01*
X7754618Y5185810D02*
X7754618Y5685810D01*
X7968903Y5185810D02*
X7968903Y5447714D01*
X7945094Y5495333D01*
X7897475Y5519143D01*
X7826046Y5519143D01*
X7778427Y5495333D01*
X7754618Y5471524D01*
X8587951Y5447714D02*
X8754617Y5447714D01*
X8826046Y5185810D02*
X8587951Y5185810D01*
X8587951Y5685810D01*
X8826046Y5685810D01*
X9040332Y5519143D02*
X9040332Y5185810D01*
X9040332Y5471524D02*
X9064141Y5495333D01*
X9111760Y5519143D01*
X9183189Y5519143D01*
X9230808Y5495333D01*
X9254617Y5447714D01*
X9254617Y5185810D01*
X5302238Y4778190D02*
X5326048Y4802000D01*
X5373667Y4825810D01*
X5492714Y4825810D01*
X5540333Y4802000D01*
X5564143Y4778190D01*
X5587952Y4730571D01*
X5587952Y4682952D01*
X5564143Y4611524D01*
X5278429Y4325810D01*
X5587952Y4325810D01*
X5897476Y4825810D02*
X5945095Y4825810D01*
X5992714Y4802000D01*
X6016523Y4778190D01*
X6040333Y4730571D01*
X6064142Y4635333D01*
X6064142Y4516286D01*
X6040333Y4421048D01*
X6016523Y4373429D01*
X5992714Y4349619D01*
X5945095Y4325810D01*
X5897476Y4325810D01*
X5849857Y4349619D01*
X5826047Y4373429D01*
X5802238Y4421048D01*
X5778428Y4516286D01*
X5778428Y4635333D01*
X5802238Y4730571D01*
X5826047Y4778190D01*
X5849857Y4802000D01*
X5897476Y4825810D01*
X6540332Y4325810D02*
X6254618Y4325810D01*
X6397475Y4325810D02*
X6397475Y4825810D01*
X6349856Y4754381D01*
X6302237Y4706762D01*
X6254618Y4682952D01*
X6706999Y4825810D02*
X7040332Y4825810D01*
X6826046Y4325810D01*
X7587950Y4849619D02*
X7159379Y4206762D01*
X7706999Y4825810D02*
X8016522Y4825810D01*
X7849856Y4635333D01*
X7921284Y4635333D01*
X7968903Y4611524D01*
X7992713Y4587714D01*
X8016522Y4540095D01*
X8016522Y4421048D01*
X7992713Y4373429D01*
X7968903Y4349619D01*
X7921284Y4325810D01*
X7778427Y4325810D01*
X7730808Y4349619D01*
X7706999Y4373429D01*
X8587950Y4849619D02*
X8159379Y4206762D01*
X8730808Y4778190D02*
X8754618Y4802000D01*
X8802237Y4825810D01*
X8921284Y4825810D01*
X8968903Y4802000D01*
X8992713Y4778190D01*
X9016522Y4730571D01*
X9016522Y4682952D01*
X8992713Y4611524D01*
X8706999Y4325810D01*
X9016522Y4325810D01*
X9326046Y4825810D02*
X9373665Y4825810D01*
X9421284Y4802000D01*
X9445093Y4778190D01*
X9468903Y4730571D01*
X9492712Y4635333D01*
X9492712Y4516286D01*
X9468903Y4421048D01*
X9445093Y4373429D01*
X9421284Y4349619D01*
X9373665Y4325810D01*
X9326046Y4325810D01*
X9278427Y4349619D01*
X9254617Y4373429D01*
X9230808Y4421048D01*
X9206998Y4516286D01*
X9206998Y4635333D01*
X9230808Y4730571D01*
X9254617Y4778190D01*
X9278427Y4802000D01*
X9326046Y4825810D01*
D12*
X-26994400Y1709800D02*
X-26994400Y2709800D01*
X-25634400Y2709800D02*
X-25634400Y1709800D01*
D13*
X-22353260Y-6439100D02*
X-21353260Y-6439100D01*
X-22353260Y3910900D02*
X-21278260Y3910900D01*
X-12003260Y3910900D02*
X-13078260Y3910900D01*
X-12003260Y-6439100D02*
X-13078260Y-6439100D01*
X-22353260Y-6439100D02*
X-22353260Y-5364100D01*
X-12003260Y-6439100D02*
X-12003260Y-5364100D01*
X-12003260Y3910900D02*
X-12003260Y2835900D01*
X-22353260Y3910900D02*
X-22353260Y2835900D01*
X-21353260Y-6439100D02*
X-21353260Y-7464100D01*
D12*
X-24830600Y5851000D02*
X-24830600Y7611000D01*
X-27900600Y7611000D02*
X-27900600Y5181000D01*
X266800Y-4999800D02*
X266800Y-4499800D01*
X-673200Y-4499800D02*
X-673200Y-4999800D01*
X-1155600Y-4999800D02*
X-1155600Y-4499800D01*
X-2095600Y-4499800D02*
X-2095600Y-4999800D01*
X241200Y4974400D02*
X241200Y4474400D01*
X1181200Y4474400D02*
X1181200Y4974400D01*
X2197200Y-4263200D02*
X2197200Y-3763200D01*
X1257200Y-3763200D02*
X1257200Y-4263200D01*
X-24464200Y4483200D02*
X-24964200Y4483200D01*
X-24964200Y3543200D02*
X-24464200Y3543200D01*
X-23346600Y8852000D02*
X-23846600Y8852000D01*
X-23846600Y7912000D02*
X-23346600Y7912000D01*
X-28206600Y7649400D02*
X-28206600Y8149400D01*
X-29146600Y8149400D02*
X-29146600Y7649400D01*
X10068000Y-10256000D02*
X10068000Y-9556000D01*
X11268000Y-9556000D02*
X11268000Y-10256000D01*
X-25790600Y-11689600D02*
X-25790600Y-12389600D01*
X-26990600Y-12389600D02*
X-26990600Y-11689600D01*
X-10601400Y-11689600D02*
X-10601400Y-12389600D01*
X-11801400Y-12389600D02*
X-11801400Y-11689600D01*
X-4390200Y1612800D02*
X-3890200Y1612800D01*
X-3890200Y2552800D02*
X-4390200Y2552800D01*
X5753000Y-1993800D02*
X5253000Y-1993800D01*
X5253000Y-2933800D02*
X5753000Y-2933800D01*
X-6879400Y-622400D02*
X-6379400Y-622400D01*
X-6379400Y317600D02*
X-6879400Y317600D01*
X-5457000Y-1536800D02*
X-4957000Y-1536800D01*
X-4957000Y-596800D02*
X-5457000Y-596800D01*
X4661000Y-5295800D02*
X4661000Y-4795800D01*
X3721000Y-4795800D02*
X3721000Y-5295800D01*
X5482400Y1359000D02*
X4982400Y1359000D01*
X4982400Y419000D02*
X5482400Y419000D01*
X3848000Y2612200D02*
X3848000Y2112200D01*
X4788000Y2112200D02*
X4788000Y2612200D01*
X3899000Y2213800D02*
X3899000Y2713800D01*
X2959000Y2713800D02*
X2959000Y2213800D01*
X2324000Y4796600D02*
X2324000Y4296600D01*
X3264000Y4296600D02*
X3264000Y4796600D01*
X1460400Y4974400D02*
X1460400Y4474400D01*
X2400400Y4474400D02*
X2400400Y4974400D01*
X-622400Y5228400D02*
X-622400Y4728400D01*
X317600Y4728400D02*
X317600Y5228400D01*
X-1841600Y5355400D02*
X-1841600Y4855400D01*
X-901600Y4855400D02*
X-901600Y5355400D01*
X-5711000Y7150000D02*
X-5211000Y7150000D01*
X-5211000Y8090000D02*
X-5711000Y8090000D01*
X-8471000Y5711000D02*
X-8471000Y5211000D01*
X-7531000Y5211000D02*
X-7531000Y5711000D01*
X-26877800Y-617600D02*
X-26877800Y-1617600D01*
X-26877800Y-1617600D02*
X-24777800Y-1617600D01*
X-26877800Y-617600D02*
X-24777800Y-617600D01*
X-26877800Y754000D02*
X-26877800Y-246000D01*
X-26877800Y-246000D02*
X-24777800Y-246000D01*
X-26877800Y754000D02*
X-24777800Y754000D01*
X-28963200Y-4651200D02*
X-28963200Y-4141200D01*
X-33153200Y-4651200D02*
X-33413200Y-4651200D01*
X-28963200Y-4651200D02*
X-30873200Y-4651200D01*
X-28963200Y3228800D02*
X-28963200Y2718800D01*
X-30873200Y3228800D02*
X-28963200Y3228800D01*
X-33413200Y3228800D02*
X-33153200Y3228800D01*
X4213000Y-3221800D02*
X4213000Y-2721800D01*
X3153000Y-2721800D02*
X3153000Y-3221800D01*
X-26994400Y-3598800D02*
X-26994400Y-2598800D01*
X-25634400Y-2598800D02*
X-25634400Y-3598800D01*
X-7247000Y-7665000D02*
X-8247000Y-7665000D01*
X-8247000Y-6305000D02*
X-7247000Y-6305000D01*
X1241200Y-4288600D02*
X1241200Y-3788600D01*
X181200Y-3788600D02*
X181200Y-4288600D01*
X3705000Y-5068800D02*
X3705000Y-4568800D01*
X2645000Y-4568800D02*
X2645000Y-5068800D01*
X8056000Y-7946000D02*
X8056000Y-7976000D01*
X8056000Y-14406000D02*
X8056000Y-14376000D01*
X1596000Y-14406000D02*
X1596000Y-14376000D01*
X1596000Y-7976000D02*
X1596000Y-7946000D01*
X8056000Y-9876000D02*
X8056000Y-12476000D01*
X1596000Y-7946000D02*
X8056000Y-7946000D01*
X1596000Y-9876000D02*
X1596000Y-12476000D01*
X1596000Y-14406000D02*
X8056000Y-14406000D01*
X-8564000Y-14406000D02*
X-8564000Y-14376000D01*
X-8564000Y-7946000D02*
X-8564000Y-7976000D01*
X-2104000Y-7946000D02*
X-2104000Y-7976000D01*
X-2104000Y-14376000D02*
X-2104000Y-14406000D01*
X-8564000Y-12476000D02*
X-8564000Y-9876000D01*
X-2104000Y-14406000D02*
X-8564000Y-14406000D01*
X-2104000Y-12476000D02*
X-2104000Y-9876000D01*
X-2104000Y-7946000D02*
X-8564000Y-7946000D01*
D13*
X2574200Y2853600D02*
X2574200Y2328600D01*
X-2675800Y-2396400D02*
X-2675800Y-1871400D01*
X2574200Y-2396400D02*
X2574200Y-1871400D01*
X-2675800Y2853600D02*
X-2150800Y2853600D01*
X-2675800Y-2396400D02*
X-2150800Y-2396400D01*
X2574200Y-2396400D02*
X2049200Y-2396400D01*
X2574200Y2853600D02*
X2049200Y2853600D01*
D12*
X4334800Y-1512160D02*
X4334800Y-1862160D01*
X6434800Y317840D02*
X6084800Y317840D01*
X6434800Y-1862160D02*
X6434800Y-1512160D01*
X6084800Y-1862160D02*
X6434800Y-1862160D01*
X6434800Y317840D02*
X6434800Y-32160D01*
X4374800Y317840D02*
G75*
G03X4374800Y317840I-40000J0D01*
G01*
X4334800Y-1862160D02*
X4684800Y-1862160D01*
X-3461000Y3811000D02*
X-3461000Y7111000D01*
X-3461000Y7111000D02*
X-7461000Y7111000D01*
X-24696000Y-13853000D02*
X-12096000Y-13853000D01*
X-12096000Y-13853000D02*
X-12096000Y-8753000D01*
X-12096000Y-8753000D02*
X-24696000Y-8753000D01*
X-31013400Y5782000D02*
X-29683400Y5782000D01*
X-29683400Y5782000D02*
X-29683400Y8442000D01*
X-29683400Y8442000D02*
X-31013400Y8442000D01*
X-31013400Y8442000D02*
X-31013400Y5782000D01*
X-31648400Y5782000D02*
X-32343400Y5782000D01*
X-32343400Y5782000D02*
X-32343400Y7112000D01*
X-20320000Y5782000D02*
X-13910000Y5782000D01*
X-13910000Y5782000D02*
X-13910000Y8442000D01*
X-13910000Y8442000D02*
X-20320000Y8442000D01*
X-20320000Y8442000D02*
X-20320000Y5782000D01*
X-20955000Y5782000D02*
X-21650000Y5782000D01*
X-21650000Y5782000D02*
X-21650000Y7112000D01*
X-26229000Y-8585200D02*
X-26229000Y-5985200D01*
X-26229000Y-5985200D02*
X-28889000Y-5985200D01*
X-28889000Y-5985200D02*
X-28889000Y-8585200D01*
X-28889000Y-8585200D02*
X-26229000Y-8585200D01*
X-26229000Y-9220200D02*
X-26229000Y-9915200D01*
X-26229000Y-9915200D02*
X-27559000Y-9915200D01*
D14*
X-31165800Y-13081000D02*
G75*
G03X-31165800Y-13081000I-711200J0D01*
G01*
D15*
X-25092048Y2168534D02*
X-25282524Y2035200D01*
X-25092048Y1939962D02*
X-25492048Y1939962D01*
X-25492048Y2092343D01*
X-25473000Y2130438D01*
X-25453952Y2149486D01*
X-25415857Y2168534D01*
X-25358714Y2168534D01*
X-25320619Y2149486D01*
X-25301571Y2130438D01*
X-25282524Y2092343D01*
X-25282524Y1939962D01*
X-25453952Y2320914D02*
X-25473000Y2339962D01*
X-25492048Y2378057D01*
X-25492048Y2473295D01*
X-25473000Y2511391D01*
X-25453952Y2530438D01*
X-25415857Y2549486D01*
X-25377762Y2549486D01*
X-25320619Y2530438D01*
X-25092048Y2301867D01*
X-25092048Y2549486D01*
X-22063048Y-7289762D02*
X-21739238Y-7289762D01*
X-21701143Y-7270714D01*
X-21682095Y-7251667D01*
X-21663048Y-7213571D01*
X-21663048Y-7137381D01*
X-21682095Y-7099286D01*
X-21701143Y-7080238D01*
X-21739238Y-7061190D01*
X-22063048Y-7061190D01*
X-21929714Y-6699285D02*
X-21663048Y-6699285D01*
X-22082095Y-6794523D02*
X-21796381Y-6889762D01*
X-21796381Y-6642142D01*
X-28413048Y5156238D02*
X-28089238Y5156238D01*
X-28051143Y5175286D01*
X-28032095Y5194333D01*
X-28013048Y5232429D01*
X-28013048Y5308619D01*
X-28032095Y5346714D01*
X-28051143Y5365762D01*
X-28089238Y5384810D01*
X-28413048Y5384810D01*
X-28013048Y5784810D02*
X-28013048Y5556238D01*
X-28013048Y5670524D02*
X-28413048Y5670524D01*
X-28355905Y5632429D01*
X-28317810Y5594334D01*
X-28298762Y5556238D01*
X-111143Y-6924618D02*
X-92095Y-6943666D01*
X-73048Y-7000809D01*
X-73048Y-7038904D01*
X-92095Y-7096047D01*
X-130190Y-7134142D01*
X-168286Y-7153190D01*
X-244476Y-7172238D01*
X-301619Y-7172238D01*
X-377810Y-7153190D01*
X-415905Y-7134142D01*
X-454000Y-7096047D01*
X-473048Y-7038904D01*
X-473048Y-7000809D01*
X-454000Y-6943666D01*
X-434952Y-6924618D01*
X-73048Y-6543666D02*
X-73048Y-6772238D01*
X-73048Y-6657952D02*
X-473048Y-6657952D01*
X-415905Y-6696047D01*
X-377810Y-6734142D01*
X-358762Y-6772238D01*
X-473048Y-6410333D02*
X-473048Y-6162714D01*
X-320667Y-6296047D01*
X-320667Y-6238905D01*
X-301619Y-6200809D01*
X-282571Y-6181762D01*
X-244476Y-6162714D01*
X-149238Y-6162714D01*
X-111143Y-6181762D01*
X-92095Y-6200809D01*
X-73048Y-6238905D01*
X-73048Y-6353190D01*
X-92095Y-6391286D01*
X-111143Y-6410333D01*
X-73048Y-5781762D02*
X-73048Y-6010334D01*
X-73048Y-5896048D02*
X-473048Y-5896048D01*
X-415905Y-5934143D01*
X-377810Y-5972238D01*
X-358762Y-6010334D01*
X-1508143Y-6924618D02*
X-1489095Y-6943666D01*
X-1470048Y-7000809D01*
X-1470048Y-7038904D01*
X-1489095Y-7096047D01*
X-1527190Y-7134142D01*
X-1565286Y-7153190D01*
X-1641476Y-7172238D01*
X-1698619Y-7172238D01*
X-1774810Y-7153190D01*
X-1812905Y-7134142D01*
X-1851000Y-7096047D01*
X-1870048Y-7038904D01*
X-1870048Y-7000809D01*
X-1851000Y-6943666D01*
X-1831952Y-6924618D01*
X-1470048Y-6543666D02*
X-1470048Y-6772238D01*
X-1470048Y-6657952D02*
X-1870048Y-6657952D01*
X-1812905Y-6696047D01*
X-1774810Y-6734142D01*
X-1755762Y-6772238D01*
X-1831952Y-6391286D02*
X-1851000Y-6372238D01*
X-1870048Y-6334143D01*
X-1870048Y-6238905D01*
X-1851000Y-6200809D01*
X-1831952Y-6181762D01*
X-1793857Y-6162714D01*
X-1755762Y-6162714D01*
X-1698619Y-6181762D01*
X-1470048Y-6410333D01*
X-1470048Y-6162714D01*
X-1470048Y-5781762D02*
X-1470048Y-6010334D01*
X-1470048Y-5896048D02*
X-1870048Y-5896048D01*
X-1812905Y-5934143D01*
X-1774810Y-5972238D01*
X-1755762Y-6010334D01*
X828657Y6130982D02*
X847705Y6111934D01*
X866752Y6054791D01*
X866752Y6016696D01*
X847705Y5959553D01*
X809610Y5921458D01*
X771514Y5902410D01*
X695324Y5883362D01*
X638181Y5883362D01*
X561990Y5902410D01*
X523895Y5921458D01*
X485800Y5959553D01*
X466752Y6016696D01*
X466752Y6054791D01*
X485800Y6111934D01*
X504848Y6130982D01*
X504848Y6283362D02*
X485800Y6302410D01*
X466752Y6340505D01*
X466752Y6435743D01*
X485800Y6473839D01*
X504848Y6492886D01*
X542943Y6511934D01*
X581038Y6511934D01*
X638181Y6492886D01*
X866752Y6264315D01*
X866752Y6511934D01*
X466752Y6645267D02*
X466752Y6911934D01*
X866752Y6740505D01*
X866752Y7273838D02*
X866752Y7045266D01*
X866752Y7159552D02*
X466752Y7159552D01*
X523895Y7121457D01*
X561990Y7083362D01*
X581038Y7045266D01*
X1920857Y-6162618D02*
X1939905Y-6181666D01*
X1958952Y-6238809D01*
X1958952Y-6276904D01*
X1939905Y-6334047D01*
X1901810Y-6372142D01*
X1863714Y-6391190D01*
X1787524Y-6410238D01*
X1730381Y-6410238D01*
X1654190Y-6391190D01*
X1616095Y-6372142D01*
X1578000Y-6334047D01*
X1558952Y-6276904D01*
X1558952Y-6238809D01*
X1578000Y-6181666D01*
X1597048Y-6162618D01*
X1958952Y-5781666D02*
X1958952Y-6010238D01*
X1958952Y-5895952D02*
X1558952Y-5895952D01*
X1616095Y-5934047D01*
X1654190Y-5972142D01*
X1673238Y-6010238D01*
X1558952Y-5419762D02*
X1558952Y-5610238D01*
X1749429Y-5629286D01*
X1730381Y-5610238D01*
X1711333Y-5572143D01*
X1711333Y-5476905D01*
X1730381Y-5438809D01*
X1749429Y-5419762D01*
X1787524Y-5400714D01*
X1882762Y-5400714D01*
X1920857Y-5419762D01*
X1939905Y-5438809D01*
X1958952Y-5476905D01*
X1958952Y-5572143D01*
X1939905Y-5610238D01*
X1920857Y-5629286D01*
X1958952Y-5019762D02*
X1958952Y-5248334D01*
X1958952Y-5134048D02*
X1558952Y-5134048D01*
X1616095Y-5172143D01*
X1654190Y-5210238D01*
X1673238Y-5248334D01*
X-24450666Y4683143D02*
X-24469714Y4664095D01*
X-24526857Y4645048D01*
X-24564952Y4645048D01*
X-24622095Y4664095D01*
X-24660190Y4702190D01*
X-24679238Y4740286D01*
X-24698286Y4816476D01*
X-24698286Y4873619D01*
X-24679238Y4949810D01*
X-24660190Y4987905D01*
X-24622095Y5026000D01*
X-24564952Y5045048D01*
X-24526857Y5045048D01*
X-24469714Y5026000D01*
X-24450666Y5006952D01*
X-24069714Y4645048D02*
X-24298286Y4645048D01*
X-24184000Y4645048D02*
X-24184000Y5045048D01*
X-24222095Y4987905D01*
X-24260190Y4949810D01*
X-24298286Y4930762D01*
X-23663266Y7350143D02*
X-23682314Y7331095D01*
X-23739457Y7312048D01*
X-23777552Y7312048D01*
X-23834695Y7331095D01*
X-23872790Y7369190D01*
X-23891838Y7407286D01*
X-23910886Y7483476D01*
X-23910886Y7540619D01*
X-23891838Y7616810D01*
X-23872790Y7654905D01*
X-23834695Y7693000D01*
X-23777552Y7712048D01*
X-23739457Y7712048D01*
X-23682314Y7693000D01*
X-23663266Y7673952D01*
X-23510886Y7673952D02*
X-23491838Y7693000D01*
X-23453743Y7712048D01*
X-23358505Y7712048D01*
X-23320409Y7693000D01*
X-23301362Y7673952D01*
X-23282314Y7635857D01*
X-23282314Y7597762D01*
X-23301362Y7540619D01*
X-23529933Y7312048D01*
X-23282314Y7312048D01*
X-29194143Y7045334D02*
X-29175095Y7026286D01*
X-29156048Y6969143D01*
X-29156048Y6931048D01*
X-29175095Y6873905D01*
X-29213190Y6835810D01*
X-29251286Y6816762D01*
X-29327476Y6797714D01*
X-29384619Y6797714D01*
X-29460810Y6816762D01*
X-29498905Y6835810D01*
X-29537000Y6873905D01*
X-29556048Y6931048D01*
X-29556048Y6969143D01*
X-29537000Y7026286D01*
X-29517952Y7045334D01*
X-29556048Y7178667D02*
X-29556048Y7426286D01*
X-29403667Y7292953D01*
X-29403667Y7350095D01*
X-29384619Y7388191D01*
X-29365571Y7407238D01*
X-29327476Y7426286D01*
X-29232238Y7426286D01*
X-29194143Y7407238D01*
X-29175095Y7388191D01*
X-29156048Y7350095D01*
X-29156048Y7235810D01*
X-29175095Y7197714D01*
X-29194143Y7178667D01*
X10810857Y-11877666D02*
X10829905Y-11896714D01*
X10848952Y-11953857D01*
X10848952Y-11991952D01*
X10829905Y-12049095D01*
X10791810Y-12087190D01*
X10753714Y-12106238D01*
X10677524Y-12125286D01*
X10620381Y-12125286D01*
X10544190Y-12106238D01*
X10506095Y-12087190D01*
X10468000Y-12049095D01*
X10448952Y-11991952D01*
X10448952Y-11953857D01*
X10468000Y-11896714D01*
X10487048Y-11877666D01*
X10582286Y-11534809D02*
X10848952Y-11534809D01*
X10429905Y-11630047D02*
X10715619Y-11725286D01*
X10715619Y-11477666D01*
X-27162143Y-13274666D02*
X-27143095Y-13293714D01*
X-27124048Y-13350857D01*
X-27124048Y-13388952D01*
X-27143095Y-13446095D01*
X-27181190Y-13484190D01*
X-27219286Y-13503238D01*
X-27295476Y-13522286D01*
X-27352619Y-13522286D01*
X-27428810Y-13503238D01*
X-27466905Y-13484190D01*
X-27505000Y-13446095D01*
X-27524048Y-13388952D01*
X-27524048Y-13350857D01*
X-27505000Y-13293714D01*
X-27485952Y-13274666D01*
X-27524048Y-12912762D02*
X-27524048Y-13103238D01*
X-27333571Y-13122286D01*
X-27352619Y-13103238D01*
X-27371667Y-13065143D01*
X-27371667Y-12969905D01*
X-27352619Y-12931809D01*
X-27333571Y-12912762D01*
X-27295476Y-12893714D01*
X-27200238Y-12893714D01*
X-27162143Y-12912762D01*
X-27143095Y-12931809D01*
X-27124048Y-12969905D01*
X-27124048Y-13065143D01*
X-27143095Y-13103238D01*
X-27162143Y-13122286D01*
X-11058543Y-10175866D02*
X-11039495Y-10194914D01*
X-11020448Y-10252057D01*
X-11020448Y-10290152D01*
X-11039495Y-10347295D01*
X-11077590Y-10385390D01*
X-11115686Y-10404438D01*
X-11191876Y-10423486D01*
X-11249019Y-10423486D01*
X-11325210Y-10404438D01*
X-11363305Y-10385390D01*
X-11401400Y-10347295D01*
X-11420448Y-10290152D01*
X-11420448Y-10252057D01*
X-11401400Y-10194914D01*
X-11382352Y-10175866D01*
X-11420448Y-9833009D02*
X-11420448Y-9909200D01*
X-11401400Y-9947295D01*
X-11382352Y-9966343D01*
X-11325210Y-10004438D01*
X-11249019Y-10023486D01*
X-11096638Y-10023486D01*
X-11058543Y-10004438D01*
X-11039495Y-9985390D01*
X-11020448Y-9947295D01*
X-11020448Y-9871105D01*
X-11039495Y-9833009D01*
X-11058543Y-9813962D01*
X-11096638Y-9794914D01*
X-11191876Y-9794914D01*
X-11229971Y-9813962D01*
X-11249019Y-9833009D01*
X-11268067Y-9871105D01*
X-11268067Y-9947295D01*
X-11249019Y-9985390D01*
X-11229971Y-10004438D01*
X-11191876Y-10023486D01*
X-6022942Y1889143D02*
X-6041990Y1870095D01*
X-6099133Y1851048D01*
X-6137228Y1851048D01*
X-6194371Y1870095D01*
X-6232466Y1908190D01*
X-6251514Y1946286D01*
X-6270562Y2022476D01*
X-6270562Y2079619D01*
X-6251514Y2155810D01*
X-6232466Y2193905D01*
X-6194371Y2232000D01*
X-6137228Y2251048D01*
X-6099133Y2251048D01*
X-6041990Y2232000D01*
X-6022942Y2212952D01*
X-5641990Y1851048D02*
X-5870562Y1851048D01*
X-5756276Y1851048D02*
X-5756276Y2251048D01*
X-5794371Y2193905D01*
X-5832466Y2155810D01*
X-5870562Y2136762D01*
X-5261038Y1851048D02*
X-5489610Y1851048D01*
X-5375324Y1851048D02*
X-5375324Y2251048D01*
X-5413419Y2193905D01*
X-5451514Y2155810D01*
X-5489610Y2136762D01*
X6696154Y-2327257D02*
X6677106Y-2346305D01*
X6619963Y-2365352D01*
X6581868Y-2365352D01*
X6524725Y-2346305D01*
X6486630Y-2308210D01*
X6467582Y-2270114D01*
X6448534Y-2193924D01*
X6448534Y-2136781D01*
X6467582Y-2060590D01*
X6486630Y-2022495D01*
X6524725Y-1984400D01*
X6581868Y-1965352D01*
X6619963Y-1965352D01*
X6677106Y-1984400D01*
X6696154Y-2003448D01*
X7077106Y-2365352D02*
X6848534Y-2365352D01*
X6962820Y-2365352D02*
X6962820Y-1965352D01*
X6924725Y-2022495D01*
X6886630Y-2060590D01*
X6848534Y-2079638D01*
X7210439Y-1965352D02*
X7477106Y-1965352D01*
X7305677Y-2365352D01*
X7610438Y-2251067D02*
X7800915Y-2251067D01*
X7572343Y-2365352D02*
X7705677Y-1965352D01*
X7839010Y-2365352D01*
X8181867Y-2365352D02*
X7953295Y-2365352D01*
X8067581Y-2365352D02*
X8067581Y-1965352D01*
X8029486Y-2022495D01*
X7991391Y-2060590D01*
X7953295Y-2079638D01*
X-8512142Y-193657D02*
X-8531190Y-212705D01*
X-8588333Y-231752D01*
X-8626428Y-231752D01*
X-8683571Y-212705D01*
X-8721666Y-174610D01*
X-8740714Y-136514D01*
X-8759762Y-60324D01*
X-8759762Y-3181D01*
X-8740714Y73010D01*
X-8721666Y111105D01*
X-8683571Y149200D01*
X-8626428Y168248D01*
X-8588333Y168248D01*
X-8531190Y149200D01*
X-8512142Y130152D01*
X-8150238Y168248D02*
X-8340714Y168248D01*
X-8359762Y-22229D01*
X-8340714Y-3181D01*
X-8302619Y15867D01*
X-8207381Y15867D01*
X-8169285Y-3181D01*
X-8150238Y-22229D01*
X-8131190Y-60324D01*
X-8131190Y-155562D01*
X-8150238Y-193657D01*
X-8169285Y-212705D01*
X-8207381Y-231752D01*
X-8302619Y-231752D01*
X-8340714Y-212705D01*
X-8359762Y-193657D01*
X-7750238Y-231752D02*
X-7978810Y-231752D01*
X-7864524Y-231752D02*
X-7864524Y168248D01*
X-7902619Y111105D01*
X-7940714Y73010D01*
X-7978810Y53962D01*
X-7013542Y-1717657D02*
X-7032590Y-1736705D01*
X-7089733Y-1755752D01*
X-7127828Y-1755752D01*
X-7184971Y-1736705D01*
X-7223066Y-1698610D01*
X-7242114Y-1660514D01*
X-7261162Y-1584324D01*
X-7261162Y-1527181D01*
X-7242114Y-1450990D01*
X-7223066Y-1412895D01*
X-7184971Y-1374800D01*
X-7127828Y-1355752D01*
X-7089733Y-1355752D01*
X-7032590Y-1374800D01*
X-7013542Y-1393848D01*
X-6670685Y-1355752D02*
X-6746876Y-1355752D01*
X-6784971Y-1374800D01*
X-6804019Y-1393848D01*
X-6842114Y-1450990D01*
X-6861162Y-1527181D01*
X-6861162Y-1679562D01*
X-6842114Y-1717657D01*
X-6823066Y-1736705D01*
X-6784971Y-1755752D01*
X-6708781Y-1755752D01*
X-6670685Y-1736705D01*
X-6651638Y-1717657D01*
X-6632590Y-1679562D01*
X-6632590Y-1584324D01*
X-6651638Y-1546229D01*
X-6670685Y-1527181D01*
X-6708781Y-1508133D01*
X-6784971Y-1508133D01*
X-6823066Y-1527181D01*
X-6842114Y-1546229D01*
X-6861162Y-1584324D01*
X-6251638Y-1755752D02*
X-6480210Y-1755752D01*
X-6365924Y-1755752D02*
X-6365924Y-1355752D01*
X-6404019Y-1412895D01*
X-6442114Y-1450990D01*
X-6480210Y-1470038D01*
X4333857Y-7305618D02*
X4352905Y-7324666D01*
X4371952Y-7381809D01*
X4371952Y-7419904D01*
X4352905Y-7477047D01*
X4314810Y-7515142D01*
X4276714Y-7534190D01*
X4200524Y-7553238D01*
X4143381Y-7553238D01*
X4067190Y-7534190D01*
X4029095Y-7515142D01*
X3991000Y-7477047D01*
X3971952Y-7419904D01*
X3971952Y-7381809D01*
X3991000Y-7324666D01*
X4010048Y-7305618D01*
X4371952Y-6924666D02*
X4371952Y-7153238D01*
X4371952Y-7038952D02*
X3971952Y-7038952D01*
X4029095Y-7077047D01*
X4067190Y-7115142D01*
X4086238Y-7153238D01*
X3971952Y-6791333D02*
X3971952Y-6524666D01*
X4371952Y-6696095D01*
X3971952Y-6410381D02*
X3971952Y-6162762D01*
X4124333Y-6296095D01*
X4124333Y-6238953D01*
X4143381Y-6200857D01*
X4162429Y-6181810D01*
X4200524Y-6162762D01*
X4295762Y-6162762D01*
X4333857Y-6181810D01*
X4352905Y-6200857D01*
X4371952Y-6238953D01*
X4371952Y-6353238D01*
X4352905Y-6391334D01*
X4333857Y-6410381D01*
X5191182Y1508143D02*
X5172134Y1489095D01*
X5114991Y1470048D01*
X5076896Y1470048D01*
X5019753Y1489095D01*
X4981658Y1527190D01*
X4962610Y1565286D01*
X4943562Y1641476D01*
X4943562Y1698619D01*
X4962610Y1774810D01*
X4981658Y1812905D01*
X5019753Y1851000D01*
X5076896Y1870048D01*
X5114991Y1870048D01*
X5172134Y1851000D01*
X5191182Y1831952D01*
X5343562Y1831952D02*
X5362610Y1851000D01*
X5400705Y1870048D01*
X5495943Y1870048D01*
X5534039Y1851000D01*
X5553086Y1831952D01*
X5572134Y1793857D01*
X5572134Y1755762D01*
X5553086Y1698619D01*
X5324515Y1470048D01*
X5572134Y1470048D01*
X5953086Y1470048D02*
X5724514Y1470048D01*
X5838800Y1470048D02*
X5838800Y1870048D01*
X5800705Y1812905D01*
X5762610Y1774810D01*
X5724514Y1755762D01*
X6334038Y1470048D02*
X6105466Y1470048D01*
X6219752Y1470048D02*
X6219752Y1870048D01*
X6181657Y1812905D01*
X6143562Y1774810D01*
X6105466Y1755762D01*
X3775057Y3844982D02*
X3794105Y3825934D01*
X3813152Y3768791D01*
X3813152Y3730696D01*
X3794105Y3673553D01*
X3756010Y3635458D01*
X3717914Y3616410D01*
X3641724Y3597362D01*
X3584581Y3597362D01*
X3508390Y3616410D01*
X3470295Y3635458D01*
X3432200Y3673553D01*
X3413152Y3730696D01*
X3413152Y3768791D01*
X3432200Y3825934D01*
X3451248Y3844982D01*
X3451248Y3997362D02*
X3432200Y4016410D01*
X3413152Y4054505D01*
X3413152Y4149743D01*
X3432200Y4187839D01*
X3451248Y4206886D01*
X3489343Y4225934D01*
X3527438Y4225934D01*
X3584581Y4206886D01*
X3813152Y3978315D01*
X3813152Y4225934D01*
X3451248Y4378314D02*
X3432200Y4397362D01*
X3413152Y4435457D01*
X3413152Y4530695D01*
X3432200Y4568791D01*
X3451248Y4587838D01*
X3489343Y4606886D01*
X3527438Y4606886D01*
X3584581Y4587838D01*
X3813152Y4359267D01*
X3813152Y4606886D01*
X3813152Y4987838D02*
X3813152Y4759266D01*
X3813152Y4873552D02*
X3413152Y4873552D01*
X3470295Y4835457D01*
X3508390Y4797362D01*
X3527438Y4759266D01*
X4486257Y3768782D02*
X4505305Y3749734D01*
X4524352Y3692591D01*
X4524352Y3654496D01*
X4505305Y3597353D01*
X4467210Y3559258D01*
X4429114Y3540210D01*
X4352924Y3521162D01*
X4295781Y3521162D01*
X4219590Y3540210D01*
X4181495Y3559258D01*
X4143400Y3597353D01*
X4124352Y3654496D01*
X4124352Y3692591D01*
X4143400Y3749734D01*
X4162448Y3768782D01*
X4162448Y3921162D02*
X4143400Y3940210D01*
X4124352Y3978305D01*
X4124352Y4073543D01*
X4143400Y4111639D01*
X4162448Y4130686D01*
X4200543Y4149734D01*
X4238638Y4149734D01*
X4295781Y4130686D01*
X4524352Y3902115D01*
X4524352Y4149734D01*
X4124352Y4283067D02*
X4124352Y4530686D01*
X4276733Y4397353D01*
X4276733Y4454495D01*
X4295781Y4492591D01*
X4314829Y4511638D01*
X4352924Y4530686D01*
X4448162Y4530686D01*
X4486257Y4511638D01*
X4505305Y4492591D01*
X4524352Y4454495D01*
X4524352Y4340210D01*
X4505305Y4302114D01*
X4486257Y4283067D01*
X4524352Y4911638D02*
X4524352Y4683066D01*
X4524352Y4797352D02*
X4124352Y4797352D01*
X4181495Y4759257D01*
X4219590Y4721162D01*
X4238638Y4683066D01*
X2936857Y5978582D02*
X2955905Y5959534D01*
X2974952Y5902391D01*
X2974952Y5864296D01*
X2955905Y5807153D01*
X2917810Y5769058D01*
X2879714Y5750010D01*
X2803524Y5730962D01*
X2746381Y5730962D01*
X2670190Y5750010D01*
X2632095Y5769058D01*
X2594000Y5807153D01*
X2574952Y5864296D01*
X2574952Y5902391D01*
X2594000Y5959534D01*
X2613048Y5978582D01*
X2613048Y6130962D02*
X2594000Y6150010D01*
X2574952Y6188105D01*
X2574952Y6283343D01*
X2594000Y6321439D01*
X2613048Y6340486D01*
X2651143Y6359534D01*
X2689238Y6359534D01*
X2746381Y6340486D01*
X2974952Y6111915D01*
X2974952Y6359534D01*
X2574952Y6721438D02*
X2574952Y6530962D01*
X2765429Y6511914D01*
X2746381Y6530962D01*
X2727333Y6569057D01*
X2727333Y6664295D01*
X2746381Y6702391D01*
X2765429Y6721438D01*
X2803524Y6740486D01*
X2898762Y6740486D01*
X2936857Y6721438D01*
X2955905Y6702391D01*
X2974952Y6664295D01*
X2974952Y6569057D01*
X2955905Y6530962D01*
X2936857Y6511914D01*
X2974952Y7121438D02*
X2974952Y6892866D01*
X2974952Y7007152D02*
X2574952Y7007152D01*
X2632095Y6969057D01*
X2670190Y6930962D01*
X2689238Y6892866D01*
X2073257Y6156382D02*
X2092305Y6137334D01*
X2111352Y6080191D01*
X2111352Y6042096D01*
X2092305Y5984953D01*
X2054210Y5946858D01*
X2016114Y5927810D01*
X1939924Y5908762D01*
X1882781Y5908762D01*
X1806590Y5927810D01*
X1768495Y5946858D01*
X1730400Y5984953D01*
X1711352Y6042096D01*
X1711352Y6080191D01*
X1730400Y6137334D01*
X1749448Y6156382D01*
X1749448Y6308762D02*
X1730400Y6327810D01*
X1711352Y6365905D01*
X1711352Y6461143D01*
X1730400Y6499239D01*
X1749448Y6518286D01*
X1787543Y6537334D01*
X1825638Y6537334D01*
X1882781Y6518286D01*
X2111352Y6289715D01*
X2111352Y6537334D01*
X1711352Y6880191D02*
X1711352Y6804000D01*
X1730400Y6765905D01*
X1749448Y6746857D01*
X1806590Y6708762D01*
X1882781Y6689714D01*
X2035162Y6689714D01*
X2073257Y6708762D01*
X2092305Y6727810D01*
X2111352Y6765905D01*
X2111352Y6842095D01*
X2092305Y6880191D01*
X2073257Y6899238D01*
X2035162Y6918286D01*
X1939924Y6918286D01*
X1901829Y6899238D01*
X1882781Y6880191D01*
X1863733Y6842095D01*
X1863733Y6765905D01*
X1882781Y6727810D01*
X1901829Y6708762D01*
X1939924Y6689714D01*
X2111352Y7299238D02*
X2111352Y7070666D01*
X2111352Y7184952D02*
X1711352Y7184952D01*
X1768495Y7146857D01*
X1806590Y7108762D01*
X1825638Y7070666D01*
X-9543Y6384982D02*
X9505Y6365934D01*
X28552Y6308791D01*
X28552Y6270696D01*
X9505Y6213553D01*
X-28590Y6175458D01*
X-66686Y6156410D01*
X-142876Y6137362D01*
X-200019Y6137362D01*
X-276210Y6156410D01*
X-314305Y6175458D01*
X-352400Y6213553D01*
X-371448Y6270696D01*
X-371448Y6308791D01*
X-352400Y6365934D01*
X-333352Y6384982D01*
X-333352Y6537362D02*
X-352400Y6556410D01*
X-371448Y6594505D01*
X-371448Y6689743D01*
X-352400Y6727839D01*
X-333352Y6746886D01*
X-295257Y6765934D01*
X-257162Y6765934D01*
X-200019Y6746886D01*
X28552Y6518315D01*
X28552Y6765934D01*
X-200019Y6994505D02*
X-219067Y6956410D01*
X-238114Y6937362D01*
X-276210Y6918314D01*
X-295257Y6918314D01*
X-333352Y6937362D01*
X-352400Y6956410D01*
X-371448Y6994505D01*
X-371448Y7070695D01*
X-352400Y7108791D01*
X-333352Y7127838D01*
X-295257Y7146886D01*
X-276210Y7146886D01*
X-238114Y7127838D01*
X-219067Y7108791D01*
X-200019Y7070695D01*
X-200019Y6994505D01*
X-180971Y6956410D01*
X-161924Y6937362D01*
X-123829Y6918314D01*
X-47638Y6918314D01*
X-9543Y6937362D01*
X9505Y6956410D01*
X28552Y6994505D01*
X28552Y7070695D01*
X9505Y7108791D01*
X-9543Y7127838D01*
X-47638Y7146886D01*
X-123829Y7146886D01*
X-161924Y7127838D01*
X-180971Y7108791D01*
X-200019Y7070695D01*
X28552Y7527838D02*
X28552Y7299266D01*
X28552Y7413552D02*
X-371448Y7413552D01*
X-314305Y7375457D01*
X-276210Y7337362D01*
X-257162Y7299266D01*
X-1228743Y6511982D02*
X-1209695Y6492934D01*
X-1190648Y6435791D01*
X-1190648Y6397696D01*
X-1209695Y6340553D01*
X-1247790Y6302458D01*
X-1285886Y6283410D01*
X-1362076Y6264362D01*
X-1419219Y6264362D01*
X-1495410Y6283410D01*
X-1533505Y6302458D01*
X-1571600Y6340553D01*
X-1590648Y6397696D01*
X-1590648Y6435791D01*
X-1571600Y6492934D01*
X-1552552Y6511982D01*
X-1552552Y6664362D02*
X-1571600Y6683410D01*
X-1590648Y6721505D01*
X-1590648Y6816743D01*
X-1571600Y6854839D01*
X-1552552Y6873886D01*
X-1514457Y6892934D01*
X-1476362Y6892934D01*
X-1419219Y6873886D01*
X-1190648Y6645315D01*
X-1190648Y6892934D01*
X-1190648Y7083410D02*
X-1190648Y7159600D01*
X-1209695Y7197695D01*
X-1228743Y7216743D01*
X-1285886Y7254838D01*
X-1362076Y7273886D01*
X-1514457Y7273886D01*
X-1552552Y7254838D01*
X-1571600Y7235791D01*
X-1590648Y7197695D01*
X-1590648Y7121505D01*
X-1571600Y7083410D01*
X-1552552Y7064362D01*
X-1514457Y7045314D01*
X-1419219Y7045314D01*
X-1381124Y7064362D01*
X-1362076Y7083410D01*
X-1343029Y7121505D01*
X-1343029Y7197695D01*
X-1362076Y7235791D01*
X-1381124Y7254838D01*
X-1419219Y7273886D01*
X-1190648Y7654838D02*
X-1190648Y7426266D01*
X-1190648Y7540552D02*
X-1590648Y7540552D01*
X-1533505Y7502457D01*
X-1495410Y7464362D01*
X-1476362Y7426266D01*
X-5857818Y8289943D02*
X-5876866Y8270895D01*
X-5934009Y8251848D01*
X-5972104Y8251848D01*
X-6029247Y8270895D01*
X-6067342Y8308990D01*
X-6086390Y8347086D01*
X-6105438Y8423276D01*
X-6105438Y8480419D01*
X-6086390Y8556610D01*
X-6067342Y8594705D01*
X-6029247Y8632800D01*
X-5972104Y8651848D01*
X-5934009Y8651848D01*
X-5876866Y8632800D01*
X-5857818Y8613752D01*
X-5724485Y8651848D02*
X-5476866Y8651848D01*
X-5610199Y8499467D01*
X-5553057Y8499467D01*
X-5514961Y8480419D01*
X-5495914Y8461371D01*
X-5476866Y8423276D01*
X-5476866Y8328038D01*
X-5495914Y8289943D01*
X-5514961Y8270895D01*
X-5553057Y8251848D01*
X-5667342Y8251848D01*
X-5705438Y8270895D01*
X-5724485Y8289943D01*
X-5229247Y8651848D02*
X-5191152Y8651848D01*
X-5153057Y8632800D01*
X-5134009Y8613752D01*
X-5114962Y8575657D01*
X-5095914Y8499467D01*
X-5095914Y8404229D01*
X-5114962Y8328038D01*
X-5134009Y8289943D01*
X-5153057Y8270895D01*
X-5191152Y8251848D01*
X-5229247Y8251848D01*
X-5267343Y8270895D01*
X-5286390Y8289943D01*
X-5305438Y8328038D01*
X-5324486Y8404229D01*
X-5324486Y8499467D01*
X-5305438Y8575657D01*
X-5286390Y8613752D01*
X-5267343Y8632800D01*
X-5229247Y8651848D01*
X-4714962Y8251848D02*
X-4943534Y8251848D01*
X-4829248Y8251848D02*
X-4829248Y8651848D01*
X-4867343Y8594705D01*
X-4905438Y8556610D01*
X-4943534Y8537562D01*
X-8645543Y4987982D02*
X-8626495Y4968934D01*
X-8607448Y4911791D01*
X-8607448Y4873696D01*
X-8626495Y4816553D01*
X-8664590Y4778458D01*
X-8702686Y4759410D01*
X-8778876Y4740362D01*
X-8836019Y4740362D01*
X-8912210Y4759410D01*
X-8950305Y4778458D01*
X-8988400Y4816553D01*
X-9007448Y4873696D01*
X-9007448Y4911791D01*
X-8988400Y4968934D01*
X-8969352Y4987982D01*
X-9007448Y5121315D02*
X-9007448Y5368934D01*
X-8855067Y5235601D01*
X-8855067Y5292743D01*
X-8836019Y5330839D01*
X-8816971Y5349886D01*
X-8778876Y5368934D01*
X-8683638Y5368934D01*
X-8645543Y5349886D01*
X-8626495Y5330839D01*
X-8607448Y5292743D01*
X-8607448Y5178458D01*
X-8626495Y5140362D01*
X-8645543Y5121315D01*
X-8607448Y5749886D02*
X-8607448Y5521314D01*
X-8607448Y5635600D02*
X-9007448Y5635600D01*
X-8950305Y5597505D01*
X-8912210Y5559410D01*
X-8893162Y5521314D01*
X-8607448Y6130838D02*
X-8607448Y5902266D01*
X-8607448Y6016552D02*
X-9007448Y6016552D01*
X-8950305Y5978457D01*
X-8912210Y5940362D01*
X-8893162Y5902266D01*
X-24171238Y-1323952D02*
X-24171238Y-923952D01*
X-24076000Y-923952D01*
X-24018857Y-943000D01*
X-23980762Y-981095D01*
X-23961714Y-1019190D01*
X-23942666Y-1095381D01*
X-23942666Y-1152524D01*
X-23961714Y-1228714D01*
X-23980762Y-1266810D01*
X-24018857Y-1304905D01*
X-24076000Y-1323952D01*
X-24171238Y-1323952D01*
X-23561714Y-1323952D02*
X-23790286Y-1323952D01*
X-23676000Y-1323952D02*
X-23676000Y-923952D01*
X-23714095Y-981095D01*
X-23752190Y-1019190D01*
X-23790286Y-1038238D01*
X-24171238Y73048D02*
X-24171238Y473048D01*
X-24076000Y473048D01*
X-24018857Y454000D01*
X-23980762Y415905D01*
X-23961714Y377810D01*
X-23942666Y301619D01*
X-23942666Y244476D01*
X-23961714Y168286D01*
X-23980762Y130190D01*
X-24018857Y92095D01*
X-24076000Y73048D01*
X-24171238Y73048D01*
X-23790286Y434952D02*
X-23771238Y454000D01*
X-23733143Y473048D01*
X-23637905Y473048D01*
X-23599809Y454000D01*
X-23580762Y434952D01*
X-23561714Y396857D01*
X-23561714Y358762D01*
X-23580762Y301619D01*
X-23809333Y73048D01*
X-23561714Y73048D01*
X-32950133Y-5013352D02*
X-32950133Y-5299067D01*
X-32969181Y-5356210D01*
X-33007276Y-5394305D01*
X-33064419Y-5413352D01*
X-33102514Y-5413352D01*
X-32550133Y-5413352D02*
X-32778705Y-5413352D01*
X-32664419Y-5413352D02*
X-32664419Y-5013352D01*
X-32702514Y-5070495D01*
X-32740609Y-5108590D01*
X-32778705Y-5127638D01*
X5006952Y-4003619D02*
X5006952Y-4194095D01*
X4606952Y-4194095D01*
X5006952Y-3660761D02*
X5006952Y-3889333D01*
X5006952Y-3775047D02*
X4606952Y-3775047D01*
X4664095Y-3813142D01*
X4702190Y-3851237D01*
X4721238Y-3889333D01*
X4606952Y-3527428D02*
X4606952Y-3260761D01*
X5006952Y-3432190D01*
X5006952Y-2898857D02*
X5006952Y-3127429D01*
X5006952Y-3013143D02*
X4606952Y-3013143D01*
X4664095Y-3051238D01*
X4702190Y-3089333D01*
X4721238Y-3127429D01*
X10880762Y3121048D02*
X10880762Y3521048D01*
X11033143Y3521048D01*
X11071238Y3502000D01*
X11090286Y3482952D01*
X11109334Y3444857D01*
X11109334Y3387714D01*
X11090286Y3349619D01*
X11071238Y3330571D01*
X11033143Y3311524D01*
X10880762Y3311524D01*
X11490286Y3121048D02*
X11261714Y3121048D01*
X11376000Y3121048D02*
X11376000Y3521048D01*
X11337905Y3463905D01*
X11299810Y3425810D01*
X11261714Y3406762D01*
X10407714Y-4987905D02*
X10464857Y-5006952D01*
X10560095Y-5006952D01*
X10598191Y-4987905D01*
X10617238Y-4968857D01*
X10636286Y-4930762D01*
X10636286Y-4892667D01*
X10617238Y-4854571D01*
X10598191Y-4835524D01*
X10560095Y-4816476D01*
X10483905Y-4797429D01*
X10445810Y-4778381D01*
X10426762Y-4759333D01*
X10407714Y-4721238D01*
X10407714Y-4683143D01*
X10426762Y-4645048D01*
X10445810Y-4626000D01*
X10483905Y-4606952D01*
X10579143Y-4606952D01*
X10636286Y-4626000D01*
X10807714Y-5006952D02*
X10807714Y-4606952D01*
X10941047Y-4892667D01*
X11074381Y-4606952D01*
X11074381Y-5006952D01*
X11245809Y-4892667D02*
X11436286Y-4892667D01*
X11207714Y-5006952D02*
X11341048Y-4606952D01*
X11474381Y-5006952D01*
X-25092048Y-3140066D02*
X-25282524Y-3273400D01*
X-25092048Y-3368638D02*
X-25492048Y-3368638D01*
X-25492048Y-3216257D01*
X-25473000Y-3178162D01*
X-25453952Y-3159114D01*
X-25415857Y-3140066D01*
X-25358714Y-3140066D01*
X-25320619Y-3159114D01*
X-25301571Y-3178162D01*
X-25282524Y-3216257D01*
X-25282524Y-3368638D01*
X-25092048Y-2759114D02*
X-25092048Y-2987686D01*
X-25092048Y-2873400D02*
X-25492048Y-2873400D01*
X-25434905Y-2911495D01*
X-25396810Y-2949590D01*
X-25377762Y-2987686D01*
X-7813666Y-6149952D02*
X-7947000Y-5959476D01*
X-8042238Y-6149952D02*
X-8042238Y-5749952D01*
X-7889857Y-5749952D01*
X-7851762Y-5769000D01*
X-7832714Y-5788048D01*
X-7813666Y-5826143D01*
X-7813666Y-5883286D01*
X-7832714Y-5921381D01*
X-7851762Y-5940429D01*
X-7889857Y-5959476D01*
X-8042238Y-5959476D01*
X-7680333Y-5749952D02*
X-7432714Y-5749952D01*
X-7566047Y-5902333D01*
X-7508905Y-5902333D01*
X-7470809Y-5921381D01*
X-7451762Y-5940429D01*
X-7432714Y-5978524D01*
X-7432714Y-6073762D01*
X-7451762Y-6111857D01*
X-7470809Y-6130905D01*
X-7508905Y-6149952D01*
X-7623190Y-6149952D01*
X-7661286Y-6130905D01*
X-7680333Y-6111857D01*
X942952Y-6035618D02*
X752476Y-6168952D01*
X942952Y-6264190D02*
X542952Y-6264190D01*
X542952Y-6111809D01*
X562000Y-6073714D01*
X581048Y-6054666D01*
X619143Y-6035618D01*
X676286Y-6035618D01*
X714381Y-6054666D01*
X733429Y-6073714D01*
X752476Y-6111809D01*
X752476Y-6264190D01*
X942952Y-5654666D02*
X942952Y-5883238D01*
X942952Y-5768952D02*
X542952Y-5768952D01*
X600095Y-5807047D01*
X638190Y-5845142D01*
X657238Y-5883238D01*
X676286Y-5311809D02*
X942952Y-5311809D01*
X523905Y-5407047D02*
X809619Y-5502286D01*
X809619Y-5254666D01*
X942952Y-4892762D02*
X942952Y-5121334D01*
X942952Y-5007048D02*
X542952Y-5007048D01*
X600095Y-5045143D01*
X638190Y-5083238D01*
X657238Y-5121334D01*
X3101952Y-6797618D02*
X2911476Y-6930952D01*
X3101952Y-7026190D02*
X2701952Y-7026190D01*
X2701952Y-6873809D01*
X2721000Y-6835714D01*
X2740048Y-6816666D01*
X2778143Y-6797618D01*
X2835286Y-6797618D01*
X2873381Y-6816666D01*
X2892429Y-6835714D01*
X2911476Y-6873809D01*
X2911476Y-7026190D01*
X3101952Y-6416666D02*
X3101952Y-6645238D01*
X3101952Y-6530952D02*
X2701952Y-6530952D01*
X2759095Y-6569047D01*
X2797190Y-6607142D01*
X2816238Y-6645238D01*
X2701952Y-6283333D02*
X2701952Y-6016666D01*
X3101952Y-6188095D01*
X3101952Y-5654762D02*
X3101952Y-5883334D01*
X3101952Y-5769048D02*
X2701952Y-5769048D01*
X2759095Y-5807143D01*
X2797190Y-5845238D01*
X2816238Y-5883334D01*
X9753667Y-14512905D02*
X9810810Y-14531952D01*
X9906048Y-14531952D01*
X9944144Y-14512905D01*
X9963191Y-14493857D01*
X9982239Y-14455762D01*
X9982239Y-14417667D01*
X9963191Y-14379571D01*
X9944144Y-14360524D01*
X9906048Y-14341476D01*
X9829858Y-14322429D01*
X9791763Y-14303381D01*
X9772715Y-14284333D01*
X9753667Y-14246238D01*
X9753667Y-14208143D01*
X9772715Y-14170048D01*
X9791763Y-14151000D01*
X9829858Y-14131952D01*
X9925096Y-14131952D01*
X9982239Y-14151000D01*
X10115572Y-14131952D02*
X10210810Y-14531952D01*
X10287000Y-14246238D01*
X10363191Y-14531952D01*
X10458429Y-14131952D01*
X10820334Y-14531952D02*
X10591762Y-14531952D01*
X10706048Y-14531952D02*
X10706048Y-14131952D01*
X10667953Y-14189095D01*
X10629858Y-14227190D01*
X10591762Y-14246238D01*
X-11328333Y-14512905D02*
X-11271190Y-14531952D01*
X-11175952Y-14531952D01*
X-11137856Y-14512905D01*
X-11118809Y-14493857D01*
X-11099761Y-14455762D01*
X-11099761Y-14417667D01*
X-11118809Y-14379571D01*
X-11137856Y-14360524D01*
X-11175952Y-14341476D01*
X-11252142Y-14322429D01*
X-11290237Y-14303381D01*
X-11309285Y-14284333D01*
X-11328333Y-14246238D01*
X-11328333Y-14208143D01*
X-11309285Y-14170048D01*
X-11290237Y-14151000D01*
X-11252142Y-14131952D01*
X-11156904Y-14131952D01*
X-11099761Y-14151000D01*
X-10966428Y-14131952D02*
X-10871190Y-14531952D01*
X-10795000Y-14246238D01*
X-10718809Y-14531952D01*
X-10623571Y-14131952D01*
X-10490238Y-14170048D02*
X-10471190Y-14151000D01*
X-10433095Y-14131952D01*
X-10337857Y-14131952D01*
X-10299761Y-14151000D01*
X-10280714Y-14170048D01*
X-10261666Y-14208143D01*
X-10261666Y-14246238D01*
X-10280714Y-14303381D01*
X-10509285Y-14531952D01*
X-10261666Y-14531952D01*
X-3606762Y3013048D02*
X-3606762Y2689238D01*
X-3587714Y2651143D01*
X-3568667Y2632095D01*
X-3530571Y2613048D01*
X-3454381Y2613048D01*
X-3416286Y2632095D01*
X-3397238Y2651143D01*
X-3378190Y2689238D01*
X-3378190Y3013048D01*
X-3206762Y2974952D02*
X-3187714Y2994000D01*
X-3149619Y3013048D01*
X-3054381Y3013048D01*
X-3016285Y2994000D01*
X-2997238Y2974952D01*
X-2978190Y2936857D01*
X-2978190Y2898762D01*
X-2997238Y2841619D01*
X-3225809Y2613048D01*
X-2978190Y2613048D01*
X3505238Y625448D02*
X3505238Y301638D01*
X3524286Y263543D01*
X3543333Y244495D01*
X3581429Y225448D01*
X3657619Y225448D01*
X3695714Y244495D01*
X3714762Y263543D01*
X3733810Y301638D01*
X3733810Y625448D01*
X3886191Y625448D02*
X4133810Y625448D01*
X4000477Y473067D01*
X4057619Y473067D01*
X4095715Y454019D01*
X4114762Y434971D01*
X4133810Y396876D01*
X4133810Y301638D01*
X4114762Y263543D01*
X4095715Y244495D01*
X4057619Y225448D01*
X3943334Y225448D01*
X3905238Y244495D01*
X3886191Y263543D01*
X-4127475Y7451724D02*
X-4127475Y7261248D01*
X-4260809Y7661248D02*
X-4127475Y7451724D01*
X-3994142Y7661248D01*
X-3651285Y7261248D02*
X-3879857Y7261248D01*
X-3765571Y7261248D02*
X-3765571Y7661248D01*
X-3803666Y7604105D01*
X-3841761Y7566010D01*
X-3879857Y7546962D01*
X-18935675Y-14239876D02*
X-18935675Y-14430352D01*
X-19069009Y-14030352D02*
X-18935675Y-14239876D01*
X-18802342Y-14030352D01*
X-18688057Y-14068448D02*
X-18669009Y-14049400D01*
X-18630914Y-14030352D01*
X-18535676Y-14030352D01*
X-18497580Y-14049400D01*
X-18478533Y-14068448D01*
X-18459485Y-14106543D01*
X-18459485Y-14144638D01*
X-18478533Y-14201781D01*
X-18707104Y-14430352D01*
X-18459485Y-14430352D01*
D10*
X-32137333Y5578448D02*
X-32137333Y5292733D01*
X-32156381Y5235590D01*
X-32194476Y5197495D01*
X-32251619Y5178448D01*
X-32289714Y5178448D01*
X-31965905Y5540352D02*
X-31946857Y5559400D01*
X-31908762Y5578448D01*
X-31813524Y5578448D01*
X-31775428Y5559400D01*
X-31756381Y5540352D01*
X-31737333Y5502257D01*
X-31737333Y5464162D01*
X-31756381Y5407019D01*
X-31984952Y5178448D01*
X-31737333Y5178448D01*
X-22307533Y6213448D02*
X-22307533Y5927733D01*
X-22326581Y5870590D01*
X-22364676Y5832495D01*
X-22421819Y5813448D01*
X-22459914Y5813448D01*
X-22155152Y6213448D02*
X-21907533Y6213448D01*
X-22040866Y6061067D01*
X-21983724Y6061067D01*
X-21945628Y6042019D01*
X-21926581Y6022971D01*
X-21907533Y5984876D01*
X-21907533Y5889638D01*
X-21926581Y5851543D01*
X-21945628Y5832495D01*
X-21983724Y5813448D01*
X-22098009Y5813448D01*
X-22136105Y5832495D01*
X-22155152Y5851543D01*
X-29429048Y-9150333D02*
X-29143333Y-9150333D01*
X-29086190Y-9169381D01*
X-29048095Y-9207476D01*
X-29029048Y-9264619D01*
X-29029048Y-9302714D01*
X-29295714Y-8788428D02*
X-29029048Y-8788428D01*
X-29448095Y-8883666D02*
X-29162381Y-8978905D01*
X-29162381Y-8731285D01*
D16*
X-30897285Y-13652500D02*
X-30933571Y-13634357D01*
X-30988000Y-13634357D01*
X-31042428Y-13652500D01*
X-31078714Y-13688786D01*
X-31096857Y-13725071D01*
X-31115000Y-13797643D01*
X-31115000Y-13852071D01*
X-31096857Y-13924643D01*
X-31078714Y-13960929D01*
X-31042428Y-13997214D01*
X-30988000Y-14015357D01*
X-30951714Y-14015357D01*
X-30897285Y-13997214D01*
X-30879142Y-13979071D01*
X-30879142Y-13852071D01*
X-30951714Y-13852071D01*
X-30715857Y-14015357D02*
X-30715857Y-13634357D01*
X-30498142Y-14015357D01*
X-30498142Y-13634357D01*
X-30316714Y-14015357D02*
X-30316714Y-13634357D01*
X-30225999Y-13634357D01*
X-30171571Y-13652500D01*
X-30135285Y-13688786D01*
X-30117142Y-13725071D01*
X-30098999Y-13797643D01*
X-30098999Y-13852071D01*
X-30117142Y-13924643D01*
X-30135285Y-13960929D01*
X-30171571Y-13997214D01*
X-30225999Y-14015357D01*
X-30316714Y-14015357D01*
%LPC*%
D17*
X-26314400Y2959800D03*
X-26314400Y1459800D03*
D18*
X-20928260Y-6964100D03*
X-20428260Y-6964100D03*
X-19928260Y-6964100D03*
X-19428260Y-6964100D03*
X-18928260Y-6964100D03*
X-18428260Y-6964100D03*
X-17928260Y-6964100D03*
X-17428260Y-6964100D03*
X-16928260Y-6964100D03*
X-16428260Y-6964100D03*
X-15928260Y-6964100D03*
X-15428260Y-6964100D03*
X-14928260Y-6964100D03*
X-14428260Y-6964100D03*
X-13928260Y-6964100D03*
X-13428260Y-6964100D03*
D19*
X-11478260Y-5014100D03*
X-11478260Y-4514100D03*
X-11478260Y-4014100D03*
X-11478260Y-3514100D03*
X-11478260Y-3014100D03*
X-11478260Y-2514100D03*
X-11478260Y-2014100D03*
X-11478260Y-1514100D03*
X-11478260Y-1014100D03*
X-11478260Y-514100D03*
X-11478260Y-14100D03*
X-11478260Y485900D03*
X-11478260Y985900D03*
X-11478260Y1485900D03*
X-11478260Y1985900D03*
X-11478260Y2485900D03*
D18*
X-13428260Y4435900D03*
X-13928260Y4435900D03*
X-14428260Y4435900D03*
X-14928260Y4435900D03*
X-15428260Y4435900D03*
X-15928260Y4435900D03*
X-16428260Y4435900D03*
X-16928260Y4435900D03*
X-17428260Y4435900D03*
X-17928260Y4435900D03*
X-18428260Y4435900D03*
X-18928260Y4435900D03*
X-19428260Y4435900D03*
X-19928260Y4435900D03*
X-20428260Y4435900D03*
X-20928260Y4435900D03*
D19*
X-22878260Y2485900D03*
X-22878260Y1985900D03*
X-22878260Y1485900D03*
X-22878260Y985900D03*
X-22878260Y485900D03*
X-22878260Y-14100D03*
X-22878260Y-514100D03*
X-22878260Y-1014100D03*
X-22878260Y-1514100D03*
X-22878260Y-2014100D03*
X-22878260Y-2514100D03*
X-22878260Y-3014100D03*
X-22878260Y-3514100D03*
X-22878260Y-4014100D03*
X-22878260Y-4514100D03*
X-22878260Y-5014100D03*
D20*
X-27340600Y5421000D03*
X-26390600Y5421000D03*
X-25440600Y5421000D03*
X-25440600Y8041000D03*
X-27340600Y8041000D03*
D21*
X-203200Y-4199800D03*
X-203200Y-5299800D03*
X-1625600Y-4199800D03*
X-1625600Y-5299800D03*
X711200Y4174400D03*
X711200Y5274400D03*
X1727200Y-3463200D03*
X1727200Y-4563200D03*
D22*
X-25264200Y4013200D03*
X-24164200Y4013200D03*
X-24146600Y8382000D03*
X-23046600Y8382000D03*
D21*
X-28676600Y8449400D03*
X-28676600Y7349400D03*
D23*
X10668000Y-10656000D03*
X10668000Y-9156000D03*
X-26390600Y-11289600D03*
X-26390600Y-12789600D03*
X-11201400Y-11289600D03*
X-11201400Y-12789600D03*
D22*
X-3590200Y2082800D03*
X-4690200Y2082800D03*
X4953000Y-2463800D03*
X6053000Y-2463800D03*
X-6079400Y-152400D03*
X-7179400Y-152400D03*
X-4657000Y-1066800D03*
X-5757000Y-1066800D03*
D21*
X4191000Y-4495800D03*
X4191000Y-5595800D03*
D22*
X4682400Y889000D03*
X5782400Y889000D03*
D21*
X4318000Y1812200D03*
X4318000Y2912200D03*
X3429000Y3013800D03*
X3429000Y1913800D03*
X2794000Y3996600D03*
X2794000Y5096600D03*
X1930400Y4174400D03*
X1930400Y5274400D03*
X-152400Y4428400D03*
X-152400Y5528400D03*
X-1371600Y4555400D03*
X-1371600Y5655400D03*
D22*
X-4911000Y7620000D03*
X-6011000Y7620000D03*
D21*
X-8001000Y4911000D03*
X-8001000Y6011000D03*
D24*
X-24777800Y-1117600D03*
X-26377800Y-1117600D03*
X-24777800Y254000D03*
X-26377800Y254000D03*
D25*
X-29353200Y588800D03*
X-29353200Y-61200D03*
X-29353200Y-711200D03*
X-29353200Y-1361200D03*
X-29353200Y-2011200D03*
D26*
X-29713200Y1751300D03*
X-29713200Y-3173700D03*
D27*
X-32013200Y2198800D03*
X-32013200Y-3621200D03*
D28*
X-32013200Y128800D03*
X-32013200Y-1551200D03*
D29*
X3683000Y-2521800D03*
X3683000Y-3421800D03*
D30*
X10033000Y-751840D03*
X10033000Y1788160D03*
X10033000Y-3291840D03*
D31*
X11601000Y1448160D03*
X11601000Y2148160D03*
X10601000Y1448160D03*
X9601000Y1448160D03*
X9601000Y2148160D03*
X10601000Y2148160D03*
X11601000Y-2951840D03*
X10601000Y-2951840D03*
X9601000Y-2951840D03*
X9601000Y-3651840D03*
X10601000Y-3651840D03*
X11601000Y-3651840D03*
D17*
X-26314400Y-2348800D03*
X-26314400Y-3848800D03*
D32*
X-8497000Y-6985000D03*
X-6997000Y-6985000D03*
D29*
X711200Y-3588600D03*
X711200Y-4488600D03*
X3175000Y-4368800D03*
X3175000Y-5268800D03*
D33*
X846000Y-13426000D03*
X846000Y-8926000D03*
X8806000Y-8926000D03*
X8806000Y-13426000D03*
X-1354000Y-8926000D03*
X-1354000Y-13426000D03*
X-9314000Y-13426000D03*
X-9314000Y-8926000D03*
D34*
X-2595800Y1978600D03*
X-2595800Y1478600D03*
X-2595800Y978600D03*
X-2595800Y478600D03*
X-2595800Y-21400D03*
X-2595800Y-521400D03*
X-2595800Y-1021400D03*
X-2595800Y-1521400D03*
D35*
X-1800800Y-2316400D03*
X-1300800Y-2316400D03*
X-800800Y-2316400D03*
X-300800Y-2316400D03*
X199200Y-2316400D03*
X699200Y-2316400D03*
X1199200Y-2316400D03*
X1699200Y-2316400D03*
D34*
X2494200Y-1521400D03*
X2494200Y-1021400D03*
X2494200Y-521400D03*
X2494200Y-21400D03*
X2494200Y478600D03*
X2494200Y978600D03*
X2494200Y1478600D03*
X2494200Y1978600D03*
D35*
X1699200Y2773600D03*
X1199200Y2773600D03*
X699200Y2773600D03*
X199200Y2773600D03*
X-300800Y2773600D03*
X-800800Y2773600D03*
X-1300800Y2773600D03*
X-1800800Y2773600D03*
D36*
X-2240800Y1978600D03*
X-2240800Y1478600D03*
X-2240800Y978600D03*
X-2240800Y478600D03*
X-2240800Y-21400D03*
X-2240800Y-521400D03*
X-2240800Y-1021400D03*
X-2240800Y-1521400D03*
X-1800800Y-1961400D03*
X-1300800Y-1961400D03*
X-800800Y-1961400D03*
X-300800Y-1961400D03*
X199200Y-1961400D03*
X699200Y-1961400D03*
X1199200Y-1961400D03*
X1699200Y-1961400D03*
X2139200Y-1521400D03*
X2139200Y-1021400D03*
X2139200Y-521400D03*
X2139200Y-21400D03*
X2139200Y478600D03*
X2139200Y978600D03*
X2139200Y1478600D03*
X2139200Y1978600D03*
X1699200Y2418600D03*
X1199200Y2418600D03*
X699200Y2418600D03*
X199200Y2418600D03*
X-300800Y2418600D03*
X-800800Y2418600D03*
X-1300800Y2418600D03*
X-1800800Y2418600D03*
D37*
X811700Y-633900D03*
X811700Y1091100D03*
X-913300Y-633900D03*
X-913300Y1091100D03*
D38*
X-50800Y228600D03*
X949200Y228600D03*
X949200Y-771400D03*
X-50800Y-771400D03*
X-1050800Y-771400D03*
X-1050800Y1228600D03*
X-50800Y1228600D03*
X949200Y1228600D03*
X-1050800Y228600D03*
D39*
X4672800Y-1522160D03*
X5276800Y-1522160D03*
X4672800Y-1022160D03*
X6096800Y-1522160D03*
X6096800Y-772160D03*
X4672800Y-522160D03*
X6096800Y-22160D03*
X4672800Y-22160D03*
D40*
X-4361000Y6261000D03*
X-6561000Y6261000D03*
X-6561000Y4661000D03*
X-4361000Y4661000D03*
D41*
X-14546000Y-11303000D03*
X-23046000Y-11303000D03*
D42*
X-31648400Y7112000D03*
D43*
X-30378400Y7112000D03*
D42*
X-20955000Y7112000D03*
D43*
X-19685000Y7112000D03*
X-18415000Y7112000D03*
X-17145000Y7112000D03*
X-15875000Y7112000D03*
X-14605000Y7112000D03*
D42*
X-27559000Y-9220200D03*
D43*
X-27559000Y-7950200D03*
X-27559000Y-6680200D03*
D44*
X-31877000Y-13081000D03*
M02*
