G04 #@! TF.FileFunction,Copper,L1,Top,Signal*
%FSLAX46Y46*%
G04 Gerber Fmt 4.6, Leading zero omitted, Abs format (unit mm)*
G04 Created by KiCad (PCBNEW 4.0.6) date Mon Mar 20 23:38:23 2017*
%MOMM*%
%LPD*%
G01*
G04 APERTURE LIST*
%ADD10C,0.100000*%
%ADD11R,0.900000X0.500000*%
%ADD12R,0.250000X1.000000*%
%ADD13R,1.000000X0.250000*%
%ADD14R,0.650000X1.220000*%
%ADD15R,0.500000X0.600000*%
%ADD16R,0.600000X0.500000*%
%ADD17R,0.750000X0.800000*%
%ADD18R,0.800000X0.800000*%
%ADD19R,1.380000X0.450000*%
%ADD20R,2.100000X1.475000*%
%ADD21R,1.900000X2.375000*%
%ADD22R,1.900000X1.175000*%
%ADD23R,0.600000X0.400000*%
%ADD24R,4.064000X1.524000*%
%ADD25C,0.762000*%
%ADD26R,0.500000X0.900000*%
%ADD27R,1.550000X1.300000*%
%ADD28R,0.710000X0.280000*%
%ADD29R,0.280000X0.710000*%
%ADD30C,0.280000*%
%ADD31R,1.725000X1.725000*%
%ADD32C,0.300000*%
%ADD33C,0.220000*%
%ADD34R,1.400000X1.200000*%
%ADD35R,4.500000X2.000000*%
%ADD36R,1.000000X1.000000*%
%ADD37O,1.000000X1.000000*%
%ADD38C,1.270000*%
%ADD39C,0.600000*%
%ADD40C,0.304800*%
%ADD41C,0.250000*%
%ADD42C,0.305000*%
%ADD43C,0.254000*%
G04 APERTURE END LIST*
D10*
D11*
X-26314400Y2959800D03*
X-26314400Y1459800D03*
D12*
X-20928260Y-6964100D03*
X-20428260Y-6964100D03*
X-19928260Y-6964100D03*
X-19428260Y-6964100D03*
X-18928260Y-6964100D03*
X-18428260Y-6964100D03*
X-17928260Y-6964100D03*
X-17428260Y-6964100D03*
X-16928260Y-6964100D03*
X-16428260Y-6964100D03*
X-15928260Y-6964100D03*
X-15428260Y-6964100D03*
X-14928260Y-6964100D03*
X-14428260Y-6964100D03*
X-13928260Y-6964100D03*
X-13428260Y-6964100D03*
D13*
X-11478260Y-5014100D03*
X-11478260Y-4514100D03*
X-11478260Y-4014100D03*
X-11478260Y-3514100D03*
X-11478260Y-3014100D03*
X-11478260Y-2514100D03*
X-11478260Y-2014100D03*
X-11478260Y-1514100D03*
X-11478260Y-1014100D03*
X-11478260Y-514100D03*
X-11478260Y-14100D03*
X-11478260Y485900D03*
X-11478260Y985900D03*
X-11478260Y1485900D03*
X-11478260Y1985900D03*
X-11478260Y2485900D03*
D12*
X-13428260Y4435900D03*
X-13928260Y4435900D03*
X-14428260Y4435900D03*
X-14928260Y4435900D03*
X-15428260Y4435900D03*
X-15928260Y4435900D03*
X-16428260Y4435900D03*
X-16928260Y4435900D03*
X-17428260Y4435900D03*
X-17928260Y4435900D03*
X-18428260Y4435900D03*
X-18928260Y4435900D03*
X-19428260Y4435900D03*
X-19928260Y4435900D03*
X-20428260Y4435900D03*
X-20928260Y4435900D03*
D13*
X-22878260Y2485900D03*
X-22878260Y1985900D03*
X-22878260Y1485900D03*
X-22878260Y985900D03*
X-22878260Y485900D03*
X-22878260Y-14100D03*
X-22878260Y-514100D03*
X-22878260Y-1014100D03*
X-22878260Y-1514100D03*
X-22878260Y-2014100D03*
X-22878260Y-2514100D03*
X-22878260Y-3014100D03*
X-22878260Y-3514100D03*
X-22878260Y-4014100D03*
X-22878260Y-4514100D03*
X-22878260Y-5014100D03*
D14*
X-27340600Y5421000D03*
X-26390600Y5421000D03*
X-25440600Y5421000D03*
X-25440600Y8041000D03*
X-27340600Y8041000D03*
D15*
X-203200Y-4199800D03*
X-203200Y-5299800D03*
X-1625600Y-4199800D03*
X-1625600Y-5299800D03*
X711200Y4174400D03*
X711200Y5274400D03*
X1727200Y-3463200D03*
X1727200Y-4563200D03*
D16*
X-25264200Y4013200D03*
X-24164200Y4013200D03*
X-24146600Y8382000D03*
X-23046600Y8382000D03*
D15*
X-28676600Y8449400D03*
X-28676600Y7349400D03*
D17*
X10668000Y-10656000D03*
X10668000Y-9156000D03*
X-26390600Y-11289600D03*
X-26390600Y-12789600D03*
X-11201400Y-11289600D03*
X-11201400Y-12789600D03*
D16*
X-3590200Y2082800D03*
X-4690200Y2082800D03*
X4953000Y-2463800D03*
X6053000Y-2463800D03*
X-6079400Y-152400D03*
X-7179400Y-152400D03*
X-4657000Y-1066800D03*
X-5757000Y-1066800D03*
D15*
X4191000Y-4495800D03*
X4191000Y-5595800D03*
D16*
X4682400Y889000D03*
X5782400Y889000D03*
D15*
X4318000Y1812200D03*
X4318000Y2912200D03*
X3429000Y3013800D03*
X3429000Y1913800D03*
X2794000Y3996600D03*
X2794000Y5096600D03*
X1930400Y4174400D03*
X1930400Y5274400D03*
X-152400Y4428400D03*
X-152400Y5528400D03*
X-1371600Y4555400D03*
X-1371600Y5655400D03*
D16*
X-4911000Y7620000D03*
X-6011000Y7620000D03*
D15*
X-8001000Y4911000D03*
X-8001000Y6011000D03*
D18*
X-24777800Y-1117600D03*
X-26377800Y-1117600D03*
X-24777800Y254000D03*
X-26377800Y254000D03*
D19*
X-29353200Y588800D03*
X-29353200Y-61200D03*
X-29353200Y-711200D03*
X-29353200Y-1361200D03*
X-29353200Y-2011200D03*
D20*
X-29713200Y1751300D03*
X-29713200Y-3173700D03*
D21*
X-32013200Y2198800D03*
X-32013200Y-3621200D03*
D22*
X-32013200Y128800D03*
X-32013200Y-1551200D03*
D23*
X3683000Y-2521800D03*
X3683000Y-3421800D03*
D24*
X10033000Y-751840D03*
X10033000Y1788160D03*
X10033000Y-3291840D03*
D25*
X11601000Y1448160D03*
X11601000Y2148160D03*
X10601000Y1448160D03*
X9601000Y1448160D03*
X9601000Y2148160D03*
X10601000Y2148160D03*
X11601000Y-2951840D03*
X10601000Y-2951840D03*
X9601000Y-2951840D03*
X9601000Y-3651840D03*
X10601000Y-3651840D03*
X11601000Y-3651840D03*
D11*
X-26314400Y-2348800D03*
X-26314400Y-3848800D03*
D26*
X-8497000Y-6985000D03*
X-6997000Y-6985000D03*
D23*
X711200Y-3588600D03*
X711200Y-4488600D03*
X3175000Y-4368800D03*
X3175000Y-5268800D03*
D27*
X846000Y-13426000D03*
X846000Y-8926000D03*
X8806000Y-8926000D03*
X8806000Y-13426000D03*
X-1354000Y-8926000D03*
X-1354000Y-13426000D03*
X-9314000Y-13426000D03*
X-9314000Y-8926000D03*
D28*
X-2595800Y1978600D03*
X-2595800Y1478600D03*
X-2595800Y978600D03*
X-2595800Y478600D03*
X-2595800Y-21400D03*
X-2595800Y-521400D03*
X-2595800Y-1021400D03*
X-2595800Y-1521400D03*
D29*
X-1800800Y-2316400D03*
X-1300800Y-2316400D03*
X-800800Y-2316400D03*
X-300800Y-2316400D03*
X199200Y-2316400D03*
X699200Y-2316400D03*
X1199200Y-2316400D03*
X1699200Y-2316400D03*
D28*
X2494200Y-1521400D03*
X2494200Y-1021400D03*
X2494200Y-521400D03*
X2494200Y-21400D03*
X2494200Y478600D03*
X2494200Y978600D03*
X2494200Y1478600D03*
X2494200Y1978600D03*
D29*
X1699200Y2773600D03*
X1199200Y2773600D03*
X699200Y2773600D03*
X199200Y2773600D03*
X-300800Y2773600D03*
X-800800Y2773600D03*
X-1300800Y2773600D03*
X-1800800Y2773600D03*
D30*
X-2240800Y1978600D03*
X-2240800Y1478600D03*
X-2240800Y978600D03*
X-2240800Y478600D03*
X-2240800Y-21400D03*
X-2240800Y-521400D03*
X-2240800Y-1021400D03*
X-2240800Y-1521400D03*
X-1800800Y-1961400D03*
X-1300800Y-1961400D03*
X-800800Y-1961400D03*
X-300800Y-1961400D03*
X199200Y-1961400D03*
X699200Y-1961400D03*
X1199200Y-1961400D03*
X1699200Y-1961400D03*
X2139200Y-1521400D03*
X2139200Y-1021400D03*
X2139200Y-521400D03*
X2139200Y-21400D03*
X2139200Y478600D03*
X2139200Y978600D03*
X2139200Y1478600D03*
X2139200Y1978600D03*
X1699200Y2418600D03*
X1199200Y2418600D03*
X699200Y2418600D03*
X199200Y2418600D03*
X-300800Y2418600D03*
X-800800Y2418600D03*
X-1300800Y2418600D03*
X-1800800Y2418600D03*
D31*
X811700Y-633900D03*
X811700Y1091100D03*
X-913300Y-633900D03*
X-913300Y1091100D03*
D32*
X-50800Y228600D03*
X949200Y228600D03*
X949200Y-771400D03*
X-50800Y-771400D03*
X-1050800Y-771400D03*
X-1050800Y1228600D03*
X-50800Y1228600D03*
X949200Y1228600D03*
X-1050800Y228600D03*
D33*
X4672800Y-1522160D03*
X5276800Y-1522160D03*
X4672800Y-1022160D03*
X6096800Y-1522160D03*
X6096800Y-772160D03*
X4672800Y-522160D03*
X6096800Y-22160D03*
X4672800Y-22160D03*
D34*
X-4361000Y6261000D03*
X-6561000Y6261000D03*
X-6561000Y4661000D03*
X-4361000Y4661000D03*
D35*
X-14546000Y-11303000D03*
X-23046000Y-11303000D03*
D36*
X-31648400Y7112000D03*
D37*
X-30378400Y7112000D03*
D36*
X-20955000Y7112000D03*
D37*
X-19685000Y7112000D03*
X-18415000Y7112000D03*
X-17145000Y7112000D03*
X-15875000Y7112000D03*
X-14605000Y7112000D03*
D36*
X-27559000Y-9220200D03*
D37*
X-27559000Y-7950200D03*
X-27559000Y-6680200D03*
D38*
X-31877000Y-13081000D03*
D39*
X7239000Y-1778000D03*
X7239000Y381000D03*
X-25019000Y-13335000D03*
X-3149600Y4661000D03*
X-9017000Y2540000D03*
X8890000Y-11303000D03*
X-24297062Y1691062D03*
X-26416000Y6604000D03*
X-24003000Y-4572000D03*
X-10160000Y-5080000D03*
X-9144000Y-254000D03*
X-8001000Y-1397000D03*
X-2565400Y2768600D03*
X-28676600Y6273800D03*
X-5715000Y2921000D03*
X-26416000Y8001000D03*
X-10033000Y-1397000D03*
X-9906000Y3429000D03*
X-8636000Y-4445000D03*
X3683000Y4064000D03*
X5080000Y2540000D03*
X-23495000Y-5715000D03*
X-24892000Y-2286000D03*
X-22326600Y4445000D03*
X-9398000Y-12192000D03*
X-20928260Y-8178800D03*
X-762000Y6527800D03*
X3429000Y-6350000D03*
X-2489200Y-4902200D03*
X-939800Y-6172200D03*
X1320800Y6121400D03*
X2590800Y-3403600D03*
X-17907000Y-3683000D03*
X-17907000Y-2413000D03*
X-15875000Y3175000D03*
X-15875000Y5461000D03*
X-27752647Y-63567D03*
X-24561800Y3098800D03*
X-23190200Y3581400D03*
X-27482800Y-711200D03*
X-21717000Y-1270000D03*
X-27559000Y-1524000D03*
X-15113000Y6350000D03*
X-19050000Y2540000D03*
X-4495800Y-2286000D03*
X-2616200Y-2286000D03*
X-6477000Y-4191000D03*
X-3048000Y-2921000D03*
X-20193000Y8077200D03*
X-21640800Y2514600D03*
X-11303000Y-6477000D03*
X-12827000Y-4953000D03*
D40*
X-31648400Y7112000D02*
X-31648400Y4953000D01*
X-30988000Y4292600D02*
X-27340600Y4292600D01*
X-31648400Y4953000D02*
X-30988000Y4292600D01*
X-29353200Y588800D02*
X-27910000Y588800D01*
X-27910000Y588800D02*
X-27340600Y1158200D01*
X-27340600Y1158200D02*
X-27340600Y3987800D01*
D41*
X-26013800Y3987800D02*
X-25988400Y4013200D01*
D40*
X-25988400Y4013200D02*
X-25264200Y4013200D01*
X-27340600Y3987800D02*
X-27340600Y4292600D01*
X-27340600Y4292600D02*
X-27340600Y5421000D01*
X-25440600Y4561000D02*
X-25440600Y5421000D01*
X-27340600Y3987800D02*
X-26013800Y3987800D01*
X-26013800Y3987800D02*
X-25440600Y4561000D01*
D42*
X-1625600Y-5299800D02*
X-1625600Y-5435600D01*
X-1625600Y-5435600D02*
X-2413000Y-6223000D01*
X711200Y-4488600D02*
X711200Y-5283200D01*
X694600Y-5299800D02*
X-203200Y-5299800D01*
X711200Y-5283200D02*
X694600Y-5299800D01*
X-23046600Y8382000D02*
X-23046600Y6925400D01*
X-24164200Y5807800D02*
X-24164200Y4013200D01*
X-23046600Y6925400D02*
X-24164200Y5807800D01*
X-4690200Y2082800D02*
X-6273800Y2082800D01*
X-6273800Y2082800D02*
X-6604000Y2413000D01*
X6858000Y-1778000D02*
X7239000Y-1778000D01*
D40*
X6352640Y-1778000D02*
X6858000Y-1778000D01*
X6096800Y-1522160D02*
X6352640Y-1778000D01*
D42*
X6604000Y381000D02*
X7239000Y381000D01*
D40*
X6499960Y381000D02*
X6604000Y381000D01*
X6096800Y-22160D02*
X6499960Y381000D01*
D42*
X-26390600Y-12789600D02*
X-25564400Y-12789600D01*
X-25564400Y-12789600D02*
X-25019000Y-13335000D01*
X-4361000Y4661000D02*
X-3149600Y4661000D01*
X-3149600Y4661000D02*
X-3048000Y4559400D01*
D40*
X-3048000Y4559400D02*
X-2705200Y4559400D01*
D41*
X-2705200Y4559400D02*
X-2692400Y4546600D01*
D42*
X-9825100Y1985900D02*
X-9271000Y2540000D01*
X-9271000Y2540000D02*
X-9017000Y2540000D01*
D40*
X-10287000Y1985900D02*
X-9825100Y1985900D01*
X-11478260Y1985900D02*
X-10287000Y1985900D01*
D42*
X-6837200Y7493000D02*
X-7366000Y7493000D01*
X-6561000Y6261000D02*
X-6408600Y7064400D01*
X-6408600Y7064400D02*
X-6837200Y7493000D01*
X8806000Y-13426000D02*
X8806000Y-11387000D01*
X8806000Y-11387000D02*
X8890000Y-11303000D01*
D40*
X4318000Y2912200D02*
X4318000Y2962200D01*
X4318000Y2962200D02*
X5038800Y3683000D01*
X1930400Y5274400D02*
X1930400Y5879200D01*
X1930400Y5879200D02*
X2274200Y6223000D01*
X-152400Y6133200D02*
X191400Y6477000D01*
X191400Y6477000D02*
X381000Y6666600D01*
X711200Y5274400D02*
X711200Y5879200D01*
X711200Y5879200D02*
X191400Y6399000D01*
X191400Y6399000D02*
X191400Y6477000D01*
X-152400Y5528400D02*
X-152400Y6133200D01*
X-1778000Y6731000D02*
X-1778000Y6723878D01*
X-1371600Y6324600D02*
X-1778000Y6731000D01*
X-1371600Y5655400D02*
X-1371600Y6324600D01*
X-26314400Y2946400D02*
X-25059062Y1691062D01*
X-25059062Y1691062D02*
X-24297062Y1691062D01*
X-26314400Y2959800D02*
X-26314400Y2946400D01*
X-9825100Y1985900D02*
X-9525000Y2286000D01*
X-26416000Y5446400D02*
X-26416000Y6604000D01*
X-26390600Y5421000D02*
X-26416000Y5446400D01*
X-22878260Y-4514100D02*
X-22936160Y-4572000D01*
X-22936160Y-4572000D02*
X-24003000Y-4572000D01*
X-11478260Y-4514100D02*
X-11420360Y-4572000D01*
X-11420360Y-4572000D02*
X-10668000Y-4572000D01*
X-10668000Y-4572000D02*
X-10160000Y-5080000D01*
X-7179400Y-152400D02*
X-7331800Y0D01*
X-7331800Y0D02*
X-8890000Y0D01*
X-8890000Y0D02*
X-9144000Y-254000D01*
X-5757000Y-1066800D02*
X-6087200Y-1397000D01*
X-6087200Y-1397000D02*
X-8001000Y-1397000D01*
X846000Y-13426000D02*
X8806000Y-13426000D01*
X-20428260Y4435900D02*
X-20428260Y5555940D01*
X-18415000Y6197600D02*
X-18415000Y7112000D01*
X-18542000Y6070600D02*
X-18415000Y6197600D01*
X-19913600Y6070600D02*
X-18542000Y6070600D01*
X-20428260Y5555940D02*
X-19913600Y6070600D01*
X-1800800Y2773600D02*
X-2560400Y2773600D01*
X-2560400Y2773600D02*
X-2565400Y2768600D01*
X-28676600Y7349400D02*
X-28676600Y6273800D01*
X-30378400Y7112000D02*
X-28914000Y7112000D01*
X-28914000Y7112000D02*
X-28676600Y7349400D01*
D41*
X-29353200Y-2011200D02*
X-29353200Y-2813700D01*
X-29353200Y-2813700D02*
X-29713200Y-3173700D01*
X-32013200Y-3621200D02*
X-30160700Y-3621200D01*
X-30160700Y-3621200D02*
X-29713200Y-3173700D01*
X-32013200Y-1551200D02*
X-32013200Y-3621200D01*
X-32013200Y128800D02*
X-32013200Y-1551200D01*
X-32013200Y2198800D02*
X-32013200Y128800D01*
X-29713200Y1751300D02*
X-31565700Y1751300D01*
X-31565700Y1751300D02*
X-32013200Y2198800D01*
D42*
X-3590200Y2574200D02*
X-3937000Y2921000D01*
X-5715000Y2921000D02*
X-3937000Y2921000D01*
X-3590200Y2574200D02*
X-3590200Y2082800D01*
D40*
X-27340600Y8041000D02*
X-26456000Y8041000D01*
X-26456000Y8041000D02*
X-26416000Y8001000D01*
X-8382000Y-635000D02*
X-8555001Y-808001D01*
X-8555001Y-808001D02*
X-9444001Y-808001D01*
X-9444001Y-808001D02*
X-10033000Y-1397000D01*
X-10236200Y2717800D02*
X-10236200Y3098800D01*
X-10236200Y3098800D02*
X-9906000Y3429000D01*
X-10387700Y-4014100D02*
X-9066900Y-4014100D01*
X-9066900Y-4014100D02*
X-8636000Y-4445000D01*
X2794000Y3996600D02*
X3615600Y3996600D01*
X3615600Y3996600D02*
X3683000Y4064000D01*
X4352200Y1812200D02*
X5080000Y2540000D01*
X4318000Y1812200D02*
X4352200Y1812200D01*
X-22878260Y-5014100D02*
X-23495000Y-5630840D01*
X-23495000Y-5630840D02*
X-23495000Y-5715000D01*
X-24777800Y-1117600D02*
X-24892000Y-1231800D01*
X-24892000Y-1231800D02*
X-24892000Y-2286000D01*
X-6079400Y-152400D02*
X-6816000Y-889000D01*
X-8001000Y-635000D02*
X-8382000Y-635000D01*
X-7747000Y-889000D02*
X-8001000Y-635000D01*
X-7620000Y-889000D02*
X-7747000Y-889000D01*
X-6816000Y-889000D02*
X-7620000Y-889000D01*
X-20928260Y4435900D02*
X-22317500Y4435900D01*
X-22317500Y4435900D02*
X-22326600Y4445000D01*
X-9314000Y-13426000D02*
X-9314000Y-12276000D01*
X-9314000Y-12276000D02*
X-9398000Y-12192000D01*
X-9314000Y-13426000D02*
X-1354000Y-13426000D01*
X-20955000Y7112000D02*
X-20955000Y4462640D01*
X-20955000Y4462640D02*
X-20928260Y4435900D01*
X-27340600Y8041000D02*
X-28268200Y8041000D01*
X-28268200Y8041000D02*
X-28676600Y8449400D01*
D41*
X-152400Y4428400D02*
X-152400Y4495800D01*
D40*
X-152400Y4495800D02*
X-762000Y5105400D01*
X-762000Y5105400D02*
X-762000Y6527800D01*
X-11478260Y-4014100D02*
X-10387700Y-4014100D01*
X-11478260Y2485900D02*
X-10468100Y2485900D01*
X-10468100Y2485900D02*
X-10236200Y2717800D01*
D41*
X-3590200Y2082800D02*
X-3590200Y2142400D01*
D40*
X3175000Y-5268800D02*
X3175000Y-6096000D01*
X3429000Y-6350000D02*
X4183200Y-5595800D01*
X3175000Y-6096000D02*
X3429000Y-6350000D01*
D41*
X4191000Y-5595800D02*
X4183200Y-5595800D01*
X-1625600Y-4199800D02*
X-1786800Y-4199800D01*
D40*
X-1786800Y-4199800D02*
X-2489200Y-4902200D01*
D41*
X-203200Y-4199800D02*
X-212000Y-4199800D01*
D40*
X-212000Y-4199800D02*
X-939800Y-4927600D01*
X-939800Y-4927600D02*
X-939800Y-6172200D01*
X-300800Y-2316400D02*
X-300800Y-3145600D01*
D41*
X-1355000Y-4199800D02*
X-1625600Y-4199800D01*
X-300800Y-3145600D02*
X-1355000Y-4199800D01*
D40*
X199200Y-2316400D02*
X199200Y-3179000D01*
X-203200Y-3581400D02*
X-203200Y-4199800D01*
X199200Y-3179000D02*
X-203200Y-3581400D01*
D41*
X711200Y4174400D02*
X720000Y4174400D01*
D40*
X720000Y4174400D02*
X1320800Y4775200D01*
X1320800Y4775200D02*
X1320800Y6121400D01*
D41*
X-152400Y4428400D02*
X-152400Y3759200D01*
D40*
X199200Y3407600D02*
X199200Y2773600D01*
D41*
X-152400Y3759200D02*
X199200Y3407600D01*
X-152400Y4428400D02*
X-152400Y4216400D01*
D40*
X711200Y4174400D02*
X711200Y2785600D01*
D41*
X711200Y2785600D02*
X699200Y2773600D01*
D40*
X1699200Y2773600D02*
X1699200Y2901800D01*
X1699200Y2901800D02*
X2794000Y3996600D01*
X2494200Y978600D02*
X3484400Y978600D01*
X3484400Y978600D02*
X4318000Y1812200D01*
X-20928260Y-6964100D02*
X-20928260Y-8178800D01*
X-20928260Y-8178800D02*
X-20928260Y-8202860D01*
X-20928260Y-8202860D02*
X-20929600Y-8204200D01*
D41*
X-3590200Y2082800D02*
X-3683000Y2082800D01*
D40*
X-3590200Y2082800D02*
X-3175000Y2082800D01*
X-3078200Y1986000D02*
X-2595800Y1978600D01*
X-3175000Y2082800D02*
X-3078200Y1986000D01*
X1199200Y-2316400D02*
X1199200Y-2935200D01*
X1199200Y-2935200D02*
X1667600Y-3403600D01*
X1667600Y-3403600D02*
X2590800Y-3403600D01*
X-2595800Y-21400D02*
X-5941000Y-14000D01*
X-5941000Y-14000D02*
X-6079400Y-152400D01*
X-17907000Y-3683000D02*
X-17907000Y-6942840D01*
X-17907000Y-6942840D02*
X-17928260Y-6964100D01*
X-15875000Y3175000D02*
X-15875000Y-381000D01*
X-15875000Y-381000D02*
X-17907000Y-2413000D01*
X-15875000Y7112000D02*
X-15875000Y5461000D01*
X-17399000Y-8255000D02*
X-17145000Y-8255000D01*
X-17145000Y-8255000D02*
X-12319000Y-8255000D01*
X-17653000Y-8255000D02*
X-17145000Y-8255000D01*
X-17907000Y-8001000D02*
X-17653000Y-8255000D01*
X-9525000Y-11049000D02*
X-1277000Y-11049000D01*
X-12319000Y-8255000D02*
X-9525000Y-11049000D01*
X-1397000Y-11049000D02*
X-1277000Y-11049000D01*
X-1277000Y-11049000D02*
X846000Y-8926000D01*
X-17907000Y-6985360D02*
X-17907000Y-8001000D01*
X-17928260Y-6964100D02*
X-17907000Y-6985360D01*
X8806000Y-8926000D02*
X10438000Y-8926000D01*
X10438000Y-8926000D02*
X10668000Y-9156000D01*
X846000Y-8926000D02*
X8806000Y-8926000D01*
X-26377800Y-1117600D02*
X-26377800Y-2285400D01*
X-26377800Y-2285400D02*
X-26314400Y-2348800D01*
X-24777800Y254000D02*
X-24053800Y254000D01*
X-23785700Y-14100D02*
X-22878260Y-14100D01*
X-24053800Y254000D02*
X-23785700Y-14100D01*
X-26314400Y1459800D02*
X-26314400Y317400D01*
D41*
X-26314400Y317400D02*
X-26377800Y254000D01*
D40*
X-24561800Y3098800D02*
X-24137536Y3098800D01*
D41*
X-24093535Y3054799D02*
X-19559361Y3054799D01*
X-24137536Y3098800D02*
X-24093535Y3054799D01*
X-19559361Y3054799D02*
X-18928260Y3685900D01*
D40*
X-27752647Y-63567D02*
X-29350833Y-63567D01*
D41*
X-29350833Y-63567D02*
X-29353200Y-61200D01*
X-18928260Y4435900D02*
X-18928260Y3685900D01*
X-23190200Y3581400D02*
X-19532760Y3581400D01*
X-19532760Y3581400D02*
X-19428260Y3685900D01*
X-19428260Y3685900D02*
X-19428260Y4435900D01*
D40*
X-29353200Y-711200D02*
X-27482800Y-711200D01*
X-18428260Y4435900D02*
X-18415000Y4422640D01*
X-18415000Y4422640D02*
X-18415000Y2032000D01*
X-18415000Y2032000D02*
X-21717000Y-1270000D01*
X-27559000Y-1524000D02*
X-29190400Y-1524000D01*
X-29190400Y-1524000D02*
X-29353200Y-1361200D01*
X-17145000Y7112000D02*
X-17145000Y6223000D01*
X-19928260Y5243140D02*
X-19928260Y4435900D01*
X-19583400Y5588000D02*
X-19928260Y5243140D01*
X-17780000Y5588000D02*
X-19583400Y5588000D01*
X-17145000Y6223000D02*
X-17780000Y5588000D01*
D42*
X-15113000Y6350000D02*
X-15113000Y6604000D01*
X-15113000Y6604000D02*
X-14605000Y7112000D01*
X-22878260Y-514100D02*
X-22073260Y-514100D01*
X-22073260Y-514100D02*
X-19050000Y2509160D01*
X-19050000Y2509160D02*
X-19050000Y2540000D01*
D40*
X-22878260Y-2014100D02*
X-23731100Y-2014100D01*
X-25273000Y-5664200D02*
X-27559000Y-7950200D01*
X-25273000Y-3556000D02*
X-25273000Y-5664200D01*
X-23731100Y-2014100D02*
X-25273000Y-3556000D01*
X-22878260Y-2514100D02*
X-23392900Y-2514100D01*
X-24688800Y-6350000D02*
X-27559000Y-9220200D01*
X-24688800Y-3810000D02*
X-24688800Y-6350000D01*
X-23392900Y-2514100D02*
X-24688800Y-3810000D01*
X6096800Y-772160D02*
X9738360Y-772160D01*
D41*
X9738360Y-772160D02*
X9758680Y-751840D01*
D40*
X-2595800Y1478600D02*
X-11478160Y1486000D01*
D41*
X-11478160Y1486000D02*
X-11478260Y1485900D01*
D40*
X-11478260Y985900D02*
X-2595900Y978500D01*
D41*
X-2595900Y978500D02*
X-2595800Y978600D01*
D40*
X-2595800Y478600D02*
X-11478160Y486000D01*
D41*
X-11478160Y486000D02*
X-11478260Y485900D01*
D40*
X-4013200Y-1651000D02*
X-3376200Y-1014000D01*
X-3376200Y-1014000D02*
X-2595800Y-1021400D01*
X-4826000Y-1651000D02*
X-4013200Y-1651000D01*
X-4826000Y-1651000D02*
X-5189100Y-2014100D01*
X-5189100Y-2014100D02*
X-11478260Y-2014100D01*
D41*
X-2595800Y-1521400D02*
X-2667400Y-1521400D01*
D40*
X-2667400Y-1521400D02*
X-4157100Y-3014100D01*
X-4157100Y-3014100D02*
X-11478260Y-3014100D01*
X-1800800Y-2316400D02*
X-2593200Y-2309000D01*
X-4723900Y-2514100D02*
X-11478260Y-2514100D01*
D41*
X-4495800Y-2286000D02*
X-4723900Y-2514100D01*
X-2593200Y-2309000D02*
X-2616200Y-2286000D01*
D40*
X-7895300Y-5664200D02*
X-7895300Y-5609300D01*
X-7895300Y-5609300D02*
X-6477000Y-4191000D01*
X-1270000Y-2347200D02*
X-1270000Y-2853698D01*
X-2861302Y-3107698D02*
X-3048000Y-2921000D01*
X-1524000Y-3107698D02*
X-2861302Y-3107698D01*
X-1270000Y-2853698D02*
X-1524000Y-3107698D01*
X-1300800Y-2316400D02*
X-1270000Y-2347200D01*
D42*
X-9728200Y-5664200D02*
X-7895300Y-5664200D01*
D40*
X-13970000Y-5664200D02*
X-9728200Y-5664200D01*
D41*
X-14428260Y-6964100D02*
X-14428260Y-6122460D01*
X-14428260Y-6122460D02*
X-13970000Y-5664200D01*
D40*
X-1228100Y-3514100D02*
X-800800Y-3086800D01*
X-800800Y-3086800D02*
X-800800Y-2316400D01*
X-1228100Y-3514100D02*
X-11478260Y-3514100D01*
X2494200Y-1021400D02*
X4671880Y-1023080D01*
X4671880Y-1023080D02*
X4672800Y-1022160D01*
X2494200Y-521400D02*
X4671880Y-523080D01*
X4671880Y-523080D02*
X4672800Y-522160D01*
X2494200Y-21400D02*
X4671880Y-23080D01*
X4671880Y-23080D02*
X4672800Y-22160D01*
X-25440600Y8041000D02*
X-24487600Y8041000D01*
X-24487600Y8041000D02*
X-24146600Y8382000D01*
X-23046000Y-11303000D02*
X-26377200Y-11303000D01*
X-26377200Y-11303000D02*
X-26390600Y-11289600D01*
X-18928260Y-6964100D02*
X-18928260Y-9530260D01*
X-20701000Y-11303000D02*
X-23046000Y-11303000D01*
X-18928260Y-9530260D02*
X-20701000Y-11303000D01*
X-14546000Y-11303000D02*
X-11214800Y-11303000D01*
X-11214800Y-11303000D02*
X-11201400Y-11289600D01*
X-18428260Y-6964100D02*
X-18428260Y-9511740D01*
X-18428260Y-9511740D02*
X-16637000Y-11303000D01*
D41*
X-16637000Y-11303000D02*
X-14546000Y-11303000D01*
X-16433800Y-11303000D02*
X-14546000Y-11303000D01*
D40*
X3683000Y-2521800D02*
X3683000Y-1541780D01*
D41*
X3683000Y-1541780D02*
X3663380Y-1522160D01*
D40*
X3663380Y-1522160D02*
X2494960Y-1522160D01*
D41*
X2494960Y-1522160D02*
X2494200Y-1521400D01*
D40*
X4953000Y-2463800D02*
X3741000Y-2463800D01*
X3741000Y-2463800D02*
X3683000Y-2521800D01*
X4672800Y-1522160D02*
X3663380Y-1522160D01*
X4671880Y-1523080D02*
X4672800Y-1522160D01*
X5276800Y-1522160D02*
X5276800Y-1687600D01*
X5276800Y-1687600D02*
X6053000Y-2463800D01*
D41*
X-4048200Y-508000D02*
X-4042200Y-514000D01*
D40*
X-4042200Y-514000D02*
X-2595800Y-521400D01*
D41*
X-4657000Y-1066800D02*
X-4607000Y-1066800D01*
D40*
X-4607000Y-1066800D02*
X-4048200Y-508000D01*
X3683000Y-4368800D02*
X4064000Y-4368800D01*
X4064000Y-4368800D02*
X4191000Y-4495800D01*
X3683000Y-3421800D02*
X3683000Y-4368800D01*
X3683000Y-4368800D02*
X3175000Y-4368800D01*
X2494200Y478600D02*
X3577400Y478600D01*
X3987800Y889000D02*
X4682400Y889000D01*
X3577400Y478600D02*
X3987800Y889000D01*
X2494200Y1978600D02*
X2494200Y2079000D01*
X2494200Y2079000D02*
X3429000Y3013800D01*
X2494200Y1478600D02*
X2993800Y1478600D01*
X2993800Y1478600D02*
X3429000Y1913800D01*
D41*
X1930400Y4174400D02*
X1930400Y4140200D01*
D40*
X1930400Y4140200D02*
X1199200Y3409000D01*
X1199200Y3409000D02*
X1199200Y2773600D01*
X-1371600Y4555400D02*
X-1371600Y4470400D01*
D41*
X-1371600Y4470400D02*
X-300800Y3399600D01*
X-300800Y3399600D02*
X-300800Y2773600D01*
D40*
X-4361000Y6261000D02*
X-4208600Y6993800D01*
X-4208600Y6993800D02*
X-4911000Y7620000D01*
D41*
X-800800Y2773600D02*
X-800800Y3366200D01*
D40*
X-2349400Y6159400D02*
X-4361000Y6261000D01*
X-2057400Y5867400D02*
X-2349400Y6159400D01*
X-2057400Y4038600D02*
X-2057400Y5867400D01*
D41*
X-1879600Y3860800D02*
X-2057400Y4038600D01*
X-1295400Y3860800D02*
X-1879600Y3860800D01*
X-800800Y3366200D02*
X-1295400Y3860800D01*
D40*
X-6561000Y4661000D02*
X-7776400Y4686400D01*
X-7776400Y4686400D02*
X-8001000Y4911000D01*
X-1300800Y2773600D02*
X-1300800Y3231200D01*
X-5354400Y3505200D02*
X-6561000Y4661000D01*
D41*
X-1574800Y3505200D02*
X-5354400Y3505200D01*
X-1300800Y3231200D02*
X-1574800Y3505200D01*
D40*
X-19685000Y7112000D02*
X-19685000Y7569200D01*
X-19685000Y7569200D02*
X-20193000Y8077200D01*
X-21640800Y2514600D02*
X-21669500Y2485900D01*
X-21669500Y2485900D02*
X-22878260Y2485900D01*
X-9314000Y-8926000D02*
X-1354000Y-8926000D01*
X-10795000Y-6985000D02*
X-10795000Y-7445000D01*
X-10795000Y-7445000D02*
X-9314000Y-8926000D01*
X-22878260Y-3014100D02*
X-14765900Y-3014100D01*
X-10795000Y-6985000D02*
X-8497000Y-6985000D01*
X-11303000Y-6477000D02*
X-10795000Y-6985000D01*
X-14765900Y-3014100D02*
X-12827000Y-4953000D01*
X699200Y-2316400D02*
X699200Y-3576600D01*
D41*
X699200Y-3576600D02*
X711200Y-3588600D01*
D43*
G36*
X7427838Y-9811317D02*
X7566910Y-10027441D01*
X7779110Y-10172431D01*
X8031000Y-10223440D01*
X9581000Y-10223440D01*
X9658000Y-10208951D01*
X9658000Y-10370250D01*
X9816750Y-10529000D01*
X10541000Y-10529000D01*
X10541000Y-10509000D01*
X10795000Y-10509000D01*
X10795000Y-10529000D01*
X10815000Y-10529000D01*
X10815000Y-10783000D01*
X10795000Y-10783000D01*
X10795000Y-11532250D01*
X10953750Y-11691000D01*
X11169310Y-11691000D01*
X11402699Y-11594327D01*
X11507000Y-11490025D01*
X11507000Y-14047000D01*
X10216000Y-14047000D01*
X10216000Y-13711750D01*
X10057250Y-13553000D01*
X8933000Y-13553000D01*
X8933000Y-13573000D01*
X8679000Y-13573000D01*
X8679000Y-13553000D01*
X7554750Y-13553000D01*
X7396000Y-13711750D01*
X7396000Y-14047000D01*
X2256000Y-14047000D01*
X2256000Y-13711750D01*
X2097250Y-13553000D01*
X973000Y-13553000D01*
X973000Y-13573000D01*
X719000Y-13573000D01*
X719000Y-13553000D01*
X699000Y-13553000D01*
X699000Y-13299000D01*
X719000Y-13299000D01*
X719000Y-12299750D01*
X973000Y-12299750D01*
X973000Y-13299000D01*
X2097250Y-13299000D01*
X2256000Y-13140250D01*
X2256000Y-12649690D01*
X7396000Y-12649690D01*
X7396000Y-13140250D01*
X7554750Y-13299000D01*
X8679000Y-13299000D01*
X8679000Y-12299750D01*
X8933000Y-12299750D01*
X8933000Y-13299000D01*
X10057250Y-13299000D01*
X10216000Y-13140250D01*
X10216000Y-12649690D01*
X10119327Y-12416301D01*
X9940698Y-12237673D01*
X9707309Y-12141000D01*
X9091750Y-12141000D01*
X8933000Y-12299750D01*
X8679000Y-12299750D01*
X8520250Y-12141000D01*
X7904691Y-12141000D01*
X7671302Y-12237673D01*
X7492673Y-12416301D01*
X7396000Y-12649690D01*
X2256000Y-12649690D01*
X2159327Y-12416301D01*
X1980698Y-12237673D01*
X1747309Y-12141000D01*
X1131750Y-12141000D01*
X973000Y-12299750D01*
X719000Y-12299750D01*
X560250Y-12141000D01*
X-55309Y-12141000D01*
X-259670Y-12225649D01*
X-327110Y-12179569D01*
X-579000Y-12128560D01*
X-2129000Y-12128560D01*
X-2364317Y-12172838D01*
X-2580441Y-12311910D01*
X-2725431Y-12524110D01*
X-2748616Y-12638600D01*
X-7917414Y-12638600D01*
X-7935838Y-12540683D01*
X-8074910Y-12324559D01*
X-8287110Y-12179569D01*
X-8462957Y-12143959D01*
X-8462838Y-12006833D01*
X-8533259Y-11836400D01*
X-1277000Y-11836400D01*
X-975675Y-11776463D01*
X-720224Y-11605776D01*
X-56198Y-10941750D01*
X9658000Y-10941750D01*
X9658000Y-11182309D01*
X9754673Y-11415698D01*
X9933301Y-11594327D01*
X10166690Y-11691000D01*
X10382250Y-11691000D01*
X10541000Y-11532250D01*
X10541000Y-10783000D01*
X9816750Y-10783000D01*
X9658000Y-10941750D01*
X-56198Y-10941750D01*
X662112Y-10223440D01*
X1621000Y-10223440D01*
X1856317Y-10179162D01*
X2072441Y-10040090D01*
X2217431Y-9827890D01*
X2240616Y-9713400D01*
X7409414Y-9713400D01*
X7427838Y-9811317D01*
X7427838Y-9811317D01*
G37*
X7427838Y-9811317D02*
X7566910Y-10027441D01*
X7779110Y-10172431D01*
X8031000Y-10223440D01*
X9581000Y-10223440D01*
X9658000Y-10208951D01*
X9658000Y-10370250D01*
X9816750Y-10529000D01*
X10541000Y-10529000D01*
X10541000Y-10509000D01*
X10795000Y-10509000D01*
X10795000Y-10529000D01*
X10815000Y-10529000D01*
X10815000Y-10783000D01*
X10795000Y-10783000D01*
X10795000Y-11532250D01*
X10953750Y-11691000D01*
X11169310Y-11691000D01*
X11402699Y-11594327D01*
X11507000Y-11490025D01*
X11507000Y-14047000D01*
X10216000Y-14047000D01*
X10216000Y-13711750D01*
X10057250Y-13553000D01*
X8933000Y-13553000D01*
X8933000Y-13573000D01*
X8679000Y-13573000D01*
X8679000Y-13553000D01*
X7554750Y-13553000D01*
X7396000Y-13711750D01*
X7396000Y-14047000D01*
X2256000Y-14047000D01*
X2256000Y-13711750D01*
X2097250Y-13553000D01*
X973000Y-13553000D01*
X973000Y-13573000D01*
X719000Y-13573000D01*
X719000Y-13553000D01*
X699000Y-13553000D01*
X699000Y-13299000D01*
X719000Y-13299000D01*
X719000Y-12299750D01*
X973000Y-12299750D01*
X973000Y-13299000D01*
X2097250Y-13299000D01*
X2256000Y-13140250D01*
X2256000Y-12649690D01*
X7396000Y-12649690D01*
X7396000Y-13140250D01*
X7554750Y-13299000D01*
X8679000Y-13299000D01*
X8679000Y-12299750D01*
X8933000Y-12299750D01*
X8933000Y-13299000D01*
X10057250Y-13299000D01*
X10216000Y-13140250D01*
X10216000Y-12649690D01*
X10119327Y-12416301D01*
X9940698Y-12237673D01*
X9707309Y-12141000D01*
X9091750Y-12141000D01*
X8933000Y-12299750D01*
X8679000Y-12299750D01*
X8520250Y-12141000D01*
X7904691Y-12141000D01*
X7671302Y-12237673D01*
X7492673Y-12416301D01*
X7396000Y-12649690D01*
X2256000Y-12649690D01*
X2159327Y-12416301D01*
X1980698Y-12237673D01*
X1747309Y-12141000D01*
X1131750Y-12141000D01*
X973000Y-12299750D01*
X719000Y-12299750D01*
X560250Y-12141000D01*
X-55309Y-12141000D01*
X-259670Y-12225649D01*
X-327110Y-12179569D01*
X-579000Y-12128560D01*
X-2129000Y-12128560D01*
X-2364317Y-12172838D01*
X-2580441Y-12311910D01*
X-2725431Y-12524110D01*
X-2748616Y-12638600D01*
X-7917414Y-12638600D01*
X-7935838Y-12540683D01*
X-8074910Y-12324559D01*
X-8287110Y-12179569D01*
X-8462957Y-12143959D01*
X-8462838Y-12006833D01*
X-8533259Y-11836400D01*
X-1277000Y-11836400D01*
X-975675Y-11776463D01*
X-720224Y-11605776D01*
X-56198Y-10941750D01*
X9658000Y-10941750D01*
X9658000Y-11182309D01*
X9754673Y-11415698D01*
X9933301Y-11594327D01*
X10166690Y-11691000D01*
X10382250Y-11691000D01*
X10541000Y-11532250D01*
X10541000Y-10783000D01*
X9816750Y-10783000D01*
X9658000Y-10941750D01*
X-56198Y-10941750D01*
X662112Y-10223440D01*
X1621000Y-10223440D01*
X1856317Y-10179162D01*
X2072441Y-10040090D01*
X2217431Y-9827890D01*
X2240616Y-9713400D01*
X7409414Y-9713400D01*
X7427838Y-9811317D01*
G36*
X-29574040Y8149400D02*
X-29529762Y7914083D01*
X-29514261Y7889994D01*
X-29530566Y7850632D01*
X-29818191Y8099127D01*
X-30076526Y8206119D01*
X-30251400Y8079954D01*
X-30251400Y7239000D01*
X-30231400Y7239000D01*
X-30231400Y6985000D01*
X-30251400Y6985000D01*
X-30251400Y6144046D01*
X-30076526Y6017881D01*
X-29818191Y6124873D01*
X-29483077Y6414396D01*
X-29384947Y6609722D01*
X-29286299Y6511073D01*
X-29052910Y6414400D01*
X-28960350Y6414400D01*
X-28801600Y6573150D01*
X-28801600Y7222400D01*
X-28823600Y7222400D01*
X-28823600Y7476400D01*
X-28813267Y7476400D01*
X-28569525Y7313537D01*
X-28529600Y7305595D01*
X-28529600Y7222400D01*
X-28551600Y7222400D01*
X-28551600Y6573150D01*
X-28392850Y6414400D01*
X-28300290Y6414400D01*
X-28121602Y6488415D01*
X-28262031Y6282890D01*
X-28313040Y6031000D01*
X-28313040Y5080000D01*
X-30661848Y5080000D01*
X-30861000Y5279152D01*
X-30861000Y6042352D01*
X-30813368Y6073003D01*
X-30680274Y6017881D01*
X-30505400Y6144046D01*
X-30505400Y6590075D01*
X-30500960Y6612000D01*
X-30500960Y7612000D01*
X-30505400Y7635597D01*
X-30505400Y8079954D01*
X-30680274Y8206119D01*
X-30812798Y8151233D01*
X-30896510Y8208431D01*
X-31148400Y8259440D01*
X-32148400Y8259440D01*
X-32383717Y8215162D01*
X-32599841Y8076090D01*
X-32744831Y7863890D01*
X-32795840Y7612000D01*
X-32795840Y6612000D01*
X-32751562Y6376683D01*
X-32612490Y6160559D01*
X-32435800Y6039832D01*
X-32435800Y4953000D01*
X-32375863Y4651675D01*
X-32205176Y4396224D01*
X-31778851Y3969899D01*
X-31886200Y3862550D01*
X-31886200Y2325800D01*
X-31866200Y2325800D01*
X-31866200Y2071800D01*
X-31886200Y2071800D01*
X-31886200Y255800D01*
X-31866200Y255800D01*
X-31866200Y1800D01*
X-31886200Y1800D01*
X-31886200Y-1424200D01*
X-31866200Y-1424200D01*
X-31866200Y-1678200D01*
X-31886200Y-1678200D01*
X-31886200Y-3494200D01*
X-31866200Y-3494200D01*
X-31866200Y-3748200D01*
X-31886200Y-3748200D01*
X-31886200Y-5284950D01*
X-31727450Y-5443700D01*
X-30936891Y-5443700D01*
X-30703502Y-5347027D01*
X-30524873Y-5168399D01*
X-30428200Y-4935010D01*
X-30428200Y-4546200D01*
X-29998950Y-4546200D01*
X-29840200Y-4387450D01*
X-29840200Y-3300700D01*
X-29586200Y-3300700D01*
X-29586200Y-4387450D01*
X-29427450Y-4546200D01*
X-28536891Y-4546200D01*
X-28303502Y-4449527D01*
X-28124873Y-4270899D01*
X-28067567Y-4132550D01*
X-27399400Y-4132550D01*
X-27399400Y-4225109D01*
X-27302727Y-4458498D01*
X-27124099Y-4637127D01*
X-26890710Y-4733800D01*
X-26600150Y-4733800D01*
X-26441400Y-4575050D01*
X-26441400Y-3973800D01*
X-27240650Y-3973800D01*
X-27399400Y-4132550D01*
X-28067567Y-4132550D01*
X-28028200Y-4037510D01*
X-28028200Y-3459450D01*
X-28186950Y-3300700D01*
X-29586200Y-3300700D01*
X-29840200Y-3300700D01*
X-29860200Y-3300700D01*
X-29860200Y-3046700D01*
X-29840200Y-3046700D01*
X-29840200Y-3026700D01*
X-29586200Y-3026700D01*
X-29586200Y-3046700D01*
X-28186950Y-3046700D01*
X-28028200Y-2887950D01*
X-28028200Y-2341574D01*
X-27745799Y-2458838D01*
X-27411840Y-2459129D01*
X-27411840Y-2598800D01*
X-27367562Y-2834117D01*
X-27228490Y-3050241D01*
X-27160394Y-3096769D01*
X-27302727Y-3239102D01*
X-27399400Y-3472491D01*
X-27399400Y-3565050D01*
X-27240650Y-3723800D01*
X-26441400Y-3723800D01*
X-26441400Y-3701800D01*
X-26187400Y-3701800D01*
X-26187400Y-3723800D01*
X-26167400Y-3723800D01*
X-26167400Y-3973800D01*
X-26187400Y-3973800D01*
X-26187400Y-4575050D01*
X-26060400Y-4702050D01*
X-26060400Y-5338048D01*
X-26697237Y-5974885D01*
X-26861396Y-5784877D01*
X-27257123Y-5586068D01*
X-27432000Y-5711065D01*
X-27432000Y-6553200D01*
X-27412000Y-6553200D01*
X-27412000Y-6689648D01*
X-27537552Y-6815200D01*
X-27581236Y-6815200D01*
X-27641564Y-6827200D01*
X-27686000Y-6827200D01*
X-27686000Y-6807200D01*
X-28526954Y-6807200D01*
X-28653119Y-6982074D01*
X-28546127Y-7240409D01*
X-28489549Y-7305896D01*
X-28629839Y-7515854D01*
X-28716236Y-7950200D01*
X-28629839Y-8384546D01*
X-28614195Y-8407959D01*
X-28655431Y-8468310D01*
X-28706440Y-8720200D01*
X-28706440Y-9720200D01*
X-28662162Y-9955517D01*
X-28523090Y-10171641D01*
X-28310890Y-10316631D01*
X-28059000Y-10367640D01*
X-27127108Y-10367640D01*
X-27217041Y-10425510D01*
X-27362031Y-10637710D01*
X-27413040Y-10889600D01*
X-27413040Y-11689600D01*
X-27368762Y-11924917D01*
X-27302271Y-12028246D01*
X-27303927Y-12029902D01*
X-27400600Y-12263291D01*
X-27400600Y-12503850D01*
X-27241850Y-12662600D01*
X-26517600Y-12662600D01*
X-26517600Y-12642600D01*
X-26263600Y-12642600D01*
X-26263600Y-12662600D01*
X-26243600Y-12662600D01*
X-26243600Y-12916600D01*
X-26263600Y-12916600D01*
X-26263600Y-13665850D01*
X-26104850Y-13824600D01*
X-25889290Y-13824600D01*
X-25655901Y-13727927D01*
X-25477273Y-13549298D01*
X-25380600Y-13315909D01*
X-25380600Y-13075350D01*
X-25539348Y-12916602D01*
X-25463097Y-12916602D01*
X-25296000Y-12950440D01*
X-20796000Y-12950440D01*
X-20560683Y-12906162D01*
X-20344559Y-12767090D01*
X-20199569Y-12554890D01*
X-20148560Y-12303000D01*
X-20148560Y-11862673D01*
X-20144224Y-11859776D01*
X-18669000Y-10384552D01*
X-17443440Y-11610112D01*
X-17443440Y-12303000D01*
X-17399162Y-12538317D01*
X-17260090Y-12754441D01*
X-17047890Y-12899431D01*
X-16796000Y-12950440D01*
X-12296000Y-12950440D01*
X-12116167Y-12916602D01*
X-12052652Y-12916602D01*
X-12211400Y-13075350D01*
X-12211400Y-13315909D01*
X-12114727Y-13549298D01*
X-11936099Y-13727927D01*
X-11702710Y-13824600D01*
X-11487150Y-13824600D01*
X-11328400Y-13665850D01*
X-11328400Y-12916600D01*
X-11348400Y-12916600D01*
X-11348400Y-12662600D01*
X-11328400Y-12662600D01*
X-11328400Y-12642600D01*
X-11074400Y-12642600D01*
X-11074400Y-12662600D01*
X-11054400Y-12662600D01*
X-11054400Y-12916600D01*
X-11074400Y-12916600D01*
X-11074400Y-13665850D01*
X-10915650Y-13824600D01*
X-10736440Y-13824600D01*
X-10736440Y-14047000D01*
X-32843000Y-14047000D01*
X-32843000Y-13075350D01*
X-27400600Y-13075350D01*
X-27400600Y-13315909D01*
X-27303927Y-13549298D01*
X-27125299Y-13727927D01*
X-26891910Y-13824600D01*
X-26676350Y-13824600D01*
X-26517600Y-13665850D01*
X-26517600Y-12916600D01*
X-27241850Y-12916600D01*
X-27400600Y-13075350D01*
X-32843000Y-13075350D01*
X-32843000Y-6378326D01*
X-28653119Y-6378326D01*
X-28526954Y-6553200D01*
X-27686000Y-6553200D01*
X-27686000Y-5711065D01*
X-27860877Y-5586068D01*
X-28256604Y-5784877D01*
X-28546127Y-6119991D01*
X-28653119Y-6378326D01*
X-32843000Y-6378326D01*
X-32843000Y-5443700D01*
X-32298950Y-5443700D01*
X-32140200Y-5284950D01*
X-32140200Y-3748200D01*
X-32160200Y-3748200D01*
X-32160200Y-3494200D01*
X-32140200Y-3494200D01*
X-32140200Y-1678200D01*
X-32160200Y-1678200D01*
X-32160200Y-1424200D01*
X-32140200Y-1424200D01*
X-32140200Y1800D01*
X-32160200Y1800D01*
X-32160200Y255800D01*
X-32140200Y255800D01*
X-32140200Y2071800D01*
X-32160200Y2071800D01*
X-32160200Y2325800D01*
X-32140200Y2325800D01*
X-32140200Y3862550D01*
X-32298950Y4021300D01*
X-32843000Y4021300D01*
X-32843000Y8332000D01*
X-29574040Y8332000D01*
X-29574040Y8149400D01*
X-29574040Y8149400D01*
G37*
X-29574040Y8149400D02*
X-29529762Y7914083D01*
X-29514261Y7889994D01*
X-29530566Y7850632D01*
X-29818191Y8099127D01*
X-30076526Y8206119D01*
X-30251400Y8079954D01*
X-30251400Y7239000D01*
X-30231400Y7239000D01*
X-30231400Y6985000D01*
X-30251400Y6985000D01*
X-30251400Y6144046D01*
X-30076526Y6017881D01*
X-29818191Y6124873D01*
X-29483077Y6414396D01*
X-29384947Y6609722D01*
X-29286299Y6511073D01*
X-29052910Y6414400D01*
X-28960350Y6414400D01*
X-28801600Y6573150D01*
X-28801600Y7222400D01*
X-28823600Y7222400D01*
X-28823600Y7476400D01*
X-28813267Y7476400D01*
X-28569525Y7313537D01*
X-28529600Y7305595D01*
X-28529600Y7222400D01*
X-28551600Y7222400D01*
X-28551600Y6573150D01*
X-28392850Y6414400D01*
X-28300290Y6414400D01*
X-28121602Y6488415D01*
X-28262031Y6282890D01*
X-28313040Y6031000D01*
X-28313040Y5080000D01*
X-30661848Y5080000D01*
X-30861000Y5279152D01*
X-30861000Y6042352D01*
X-30813368Y6073003D01*
X-30680274Y6017881D01*
X-30505400Y6144046D01*
X-30505400Y6590075D01*
X-30500960Y6612000D01*
X-30500960Y7612000D01*
X-30505400Y7635597D01*
X-30505400Y8079954D01*
X-30680274Y8206119D01*
X-30812798Y8151233D01*
X-30896510Y8208431D01*
X-31148400Y8259440D01*
X-32148400Y8259440D01*
X-32383717Y8215162D01*
X-32599841Y8076090D01*
X-32744831Y7863890D01*
X-32795840Y7612000D01*
X-32795840Y6612000D01*
X-32751562Y6376683D01*
X-32612490Y6160559D01*
X-32435800Y6039832D01*
X-32435800Y4953000D01*
X-32375863Y4651675D01*
X-32205176Y4396224D01*
X-31778851Y3969899D01*
X-31886200Y3862550D01*
X-31886200Y2325800D01*
X-31866200Y2325800D01*
X-31866200Y2071800D01*
X-31886200Y2071800D01*
X-31886200Y255800D01*
X-31866200Y255800D01*
X-31866200Y1800D01*
X-31886200Y1800D01*
X-31886200Y-1424200D01*
X-31866200Y-1424200D01*
X-31866200Y-1678200D01*
X-31886200Y-1678200D01*
X-31886200Y-3494200D01*
X-31866200Y-3494200D01*
X-31866200Y-3748200D01*
X-31886200Y-3748200D01*
X-31886200Y-5284950D01*
X-31727450Y-5443700D01*
X-30936891Y-5443700D01*
X-30703502Y-5347027D01*
X-30524873Y-5168399D01*
X-30428200Y-4935010D01*
X-30428200Y-4546200D01*
X-29998950Y-4546200D01*
X-29840200Y-4387450D01*
X-29840200Y-3300700D01*
X-29586200Y-3300700D01*
X-29586200Y-4387450D01*
X-29427450Y-4546200D01*
X-28536891Y-4546200D01*
X-28303502Y-4449527D01*
X-28124873Y-4270899D01*
X-28067567Y-4132550D01*
X-27399400Y-4132550D01*
X-27399400Y-4225109D01*
X-27302727Y-4458498D01*
X-27124099Y-4637127D01*
X-26890710Y-4733800D01*
X-26600150Y-4733800D01*
X-26441400Y-4575050D01*
X-26441400Y-3973800D01*
X-27240650Y-3973800D01*
X-27399400Y-4132550D01*
X-28067567Y-4132550D01*
X-28028200Y-4037510D01*
X-28028200Y-3459450D01*
X-28186950Y-3300700D01*
X-29586200Y-3300700D01*
X-29840200Y-3300700D01*
X-29860200Y-3300700D01*
X-29860200Y-3046700D01*
X-29840200Y-3046700D01*
X-29840200Y-3026700D01*
X-29586200Y-3026700D01*
X-29586200Y-3046700D01*
X-28186950Y-3046700D01*
X-28028200Y-2887950D01*
X-28028200Y-2341574D01*
X-27745799Y-2458838D01*
X-27411840Y-2459129D01*
X-27411840Y-2598800D01*
X-27367562Y-2834117D01*
X-27228490Y-3050241D01*
X-27160394Y-3096769D01*
X-27302727Y-3239102D01*
X-27399400Y-3472491D01*
X-27399400Y-3565050D01*
X-27240650Y-3723800D01*
X-26441400Y-3723800D01*
X-26441400Y-3701800D01*
X-26187400Y-3701800D01*
X-26187400Y-3723800D01*
X-26167400Y-3723800D01*
X-26167400Y-3973800D01*
X-26187400Y-3973800D01*
X-26187400Y-4575050D01*
X-26060400Y-4702050D01*
X-26060400Y-5338048D01*
X-26697237Y-5974885D01*
X-26861396Y-5784877D01*
X-27257123Y-5586068D01*
X-27432000Y-5711065D01*
X-27432000Y-6553200D01*
X-27412000Y-6553200D01*
X-27412000Y-6689648D01*
X-27537552Y-6815200D01*
X-27581236Y-6815200D01*
X-27641564Y-6827200D01*
X-27686000Y-6827200D01*
X-27686000Y-6807200D01*
X-28526954Y-6807200D01*
X-28653119Y-6982074D01*
X-28546127Y-7240409D01*
X-28489549Y-7305896D01*
X-28629839Y-7515854D01*
X-28716236Y-7950200D01*
X-28629839Y-8384546D01*
X-28614195Y-8407959D01*
X-28655431Y-8468310D01*
X-28706440Y-8720200D01*
X-28706440Y-9720200D01*
X-28662162Y-9955517D01*
X-28523090Y-10171641D01*
X-28310890Y-10316631D01*
X-28059000Y-10367640D01*
X-27127108Y-10367640D01*
X-27217041Y-10425510D01*
X-27362031Y-10637710D01*
X-27413040Y-10889600D01*
X-27413040Y-11689600D01*
X-27368762Y-11924917D01*
X-27302271Y-12028246D01*
X-27303927Y-12029902D01*
X-27400600Y-12263291D01*
X-27400600Y-12503850D01*
X-27241850Y-12662600D01*
X-26517600Y-12662600D01*
X-26517600Y-12642600D01*
X-26263600Y-12642600D01*
X-26263600Y-12662600D01*
X-26243600Y-12662600D01*
X-26243600Y-12916600D01*
X-26263600Y-12916600D01*
X-26263600Y-13665850D01*
X-26104850Y-13824600D01*
X-25889290Y-13824600D01*
X-25655901Y-13727927D01*
X-25477273Y-13549298D01*
X-25380600Y-13315909D01*
X-25380600Y-13075350D01*
X-25539348Y-12916602D01*
X-25463097Y-12916602D01*
X-25296000Y-12950440D01*
X-20796000Y-12950440D01*
X-20560683Y-12906162D01*
X-20344559Y-12767090D01*
X-20199569Y-12554890D01*
X-20148560Y-12303000D01*
X-20148560Y-11862673D01*
X-20144224Y-11859776D01*
X-18669000Y-10384552D01*
X-17443440Y-11610112D01*
X-17443440Y-12303000D01*
X-17399162Y-12538317D01*
X-17260090Y-12754441D01*
X-17047890Y-12899431D01*
X-16796000Y-12950440D01*
X-12296000Y-12950440D01*
X-12116167Y-12916602D01*
X-12052652Y-12916602D01*
X-12211400Y-13075350D01*
X-12211400Y-13315909D01*
X-12114727Y-13549298D01*
X-11936099Y-13727927D01*
X-11702710Y-13824600D01*
X-11487150Y-13824600D01*
X-11328400Y-13665850D01*
X-11328400Y-12916600D01*
X-11348400Y-12916600D01*
X-11348400Y-12662600D01*
X-11328400Y-12662600D01*
X-11328400Y-12642600D01*
X-11074400Y-12642600D01*
X-11074400Y-12662600D01*
X-11054400Y-12662600D01*
X-11054400Y-12916600D01*
X-11074400Y-12916600D01*
X-11074400Y-13665850D01*
X-10915650Y-13824600D01*
X-10736440Y-13824600D01*
X-10736440Y-14047000D01*
X-32843000Y-14047000D01*
X-32843000Y-13075350D01*
X-27400600Y-13075350D01*
X-27400600Y-13315909D01*
X-27303927Y-13549298D01*
X-27125299Y-13727927D01*
X-26891910Y-13824600D01*
X-26676350Y-13824600D01*
X-26517600Y-13665850D01*
X-26517600Y-12916600D01*
X-27241850Y-12916600D01*
X-27400600Y-13075350D01*
X-32843000Y-13075350D01*
X-32843000Y-6378326D01*
X-28653119Y-6378326D01*
X-28526954Y-6553200D01*
X-27686000Y-6553200D01*
X-27686000Y-5711065D01*
X-27860877Y-5586068D01*
X-28256604Y-5784877D01*
X-28546127Y-6119991D01*
X-28653119Y-6378326D01*
X-32843000Y-6378326D01*
X-32843000Y-5443700D01*
X-32298950Y-5443700D01*
X-32140200Y-5284950D01*
X-32140200Y-3748200D01*
X-32160200Y-3748200D01*
X-32160200Y-3494200D01*
X-32140200Y-3494200D01*
X-32140200Y-1678200D01*
X-32160200Y-1678200D01*
X-32160200Y-1424200D01*
X-32140200Y-1424200D01*
X-32140200Y1800D01*
X-32160200Y1800D01*
X-32160200Y255800D01*
X-32140200Y255800D01*
X-32140200Y2071800D01*
X-32160200Y2071800D01*
X-32160200Y2325800D01*
X-32140200Y2325800D01*
X-32140200Y3862550D01*
X-32298950Y4021300D01*
X-32843000Y4021300D01*
X-32843000Y8332000D01*
X-29574040Y8332000D01*
X-29574040Y8149400D01*
G36*
X7397838Y-1749157D02*
X7536910Y-1965281D01*
X7614511Y-2018304D01*
X7462673Y-2170141D01*
X7366000Y-2403530D01*
X7366000Y-3006090D01*
X7524750Y-3164840D01*
X8599293Y-3164840D01*
X8605435Y-3238105D01*
X8639958Y-3321451D01*
X8608862Y-3418840D01*
X7524750Y-3418840D01*
X7366000Y-3577590D01*
X7366000Y-4180150D01*
X7462673Y-4413539D01*
X7641302Y-4592167D01*
X7874691Y-4688840D01*
X9747250Y-4688840D01*
X9779664Y-4656426D01*
X9887265Y-4647405D01*
X10101201Y-4558791D01*
X10229744Y-4599834D01*
X10318750Y-4688840D01*
X11507000Y-4688840D01*
X11507000Y-8304498D01*
X11294890Y-8159569D01*
X11043000Y-8108560D01*
X10293000Y-8108560D01*
X10200219Y-8126018D01*
X10184162Y-8040683D01*
X10045090Y-7824559D01*
X9832890Y-7679569D01*
X9581000Y-7628560D01*
X8031000Y-7628560D01*
X7795683Y-7672838D01*
X7579559Y-7811910D01*
X7434569Y-8024110D01*
X7411384Y-8138600D01*
X2242586Y-8138600D01*
X2224162Y-8040683D01*
X2085090Y-7824559D01*
X1872890Y-7679569D01*
X1621000Y-7628560D01*
X71000Y-7628560D01*
X-164317Y-7672838D01*
X-253228Y-7730051D01*
X-327110Y-7679569D01*
X-579000Y-7628560D01*
X-2129000Y-7628560D01*
X-2364317Y-7672838D01*
X-2580441Y-7811910D01*
X-2725431Y-8024110D01*
X-2748616Y-8138600D01*
X-7917414Y-8138600D01*
X-7935838Y-8040683D01*
X-7959194Y-8004386D01*
X-7795559Y-7899090D01*
X-7749031Y-7830994D01*
X-7606698Y-7973327D01*
X-7373309Y-8070000D01*
X-7280750Y-8070000D01*
X-7122000Y-7911250D01*
X-7122000Y-7112000D01*
X-6872000Y-7112000D01*
X-6872000Y-7911250D01*
X-6713250Y-8070000D01*
X-6620691Y-8070000D01*
X-6387302Y-7973327D01*
X-6208673Y-7794699D01*
X-6112000Y-7561310D01*
X-6112000Y-7270750D01*
X-6270750Y-7112000D01*
X-6872000Y-7112000D01*
X-7122000Y-7112000D01*
X-7144000Y-7112000D01*
X-7144000Y-6858000D01*
X-7122000Y-6858000D01*
X-7122000Y-6058750D01*
X-6872000Y-6058750D01*
X-6872000Y-6858000D01*
X-6270750Y-6858000D01*
X-6112000Y-6699250D01*
X-6112000Y-6408690D01*
X-6208673Y-6175301D01*
X-6387302Y-5996673D01*
X-6620691Y-5900000D01*
X-6713250Y-5900000D01*
X-6872000Y-6058750D01*
X-7122000Y-6058750D01*
X-7176599Y-6004151D01*
X-6298604Y-5126156D01*
X-6291833Y-5126162D01*
X-5948057Y-4984117D01*
X-5684808Y-4721327D01*
X-5542162Y-4377799D01*
X-5542096Y-4301500D01*
X-3210896Y-4301500D01*
X-3281392Y-4371873D01*
X-3424038Y-4715401D01*
X-3424362Y-5087367D01*
X-3282317Y-5431143D01*
X-3019527Y-5694392D01*
X-2675999Y-5837038D01*
X-2464575Y-5837222D01*
X-2413927Y-5959498D01*
X-2235299Y-6138127D01*
X-2001910Y-6234800D01*
X-1909350Y-6234800D01*
X-1874825Y-6200275D01*
X-1874962Y-6357367D01*
X-1732917Y-6701143D01*
X-1470127Y-6964392D01*
X-1126599Y-7107038D01*
X-754633Y-7107362D01*
X-410857Y-6965317D01*
X-147608Y-6702527D01*
X-4962Y-6358999D01*
X-4779Y-6149471D01*
X80550Y-6234800D01*
X173110Y-6234800D01*
X406499Y-6138127D01*
X585127Y-5959498D01*
X681800Y-5726109D01*
X681800Y-5585550D01*
X523050Y-5426800D01*
X-78200Y-5426800D01*
X-78200Y-5446800D01*
X-152400Y-5446800D01*
X-152400Y-5253752D01*
X-71448Y-5172800D01*
X-2626Y-5172800D01*
X51501Y-5226927D01*
X284890Y-5323600D01*
X425450Y-5323600D01*
X584200Y-5164850D01*
X584200Y-5111650D01*
X681800Y-5014050D01*
X681800Y-4873491D01*
X635833Y-4762517D01*
X643231Y-4751690D01*
X676257Y-4588600D01*
X838200Y-4588600D01*
X838200Y-5164850D01*
X996950Y-5323600D01*
X1039574Y-5323600D01*
X1117501Y-5401527D01*
X1350890Y-5498200D01*
X1443450Y-5498200D01*
X1602200Y-5339450D01*
X1602200Y-4921134D01*
X1646200Y-4814909D01*
X1646200Y-4747350D01*
X1602200Y-4703350D01*
X1602200Y-4690200D01*
X1589050Y-4690200D01*
X1487450Y-4588600D01*
X838200Y-4588600D01*
X676257Y-4588600D01*
X694240Y-4499800D01*
X694240Y-4436040D01*
X1000790Y-4436040D01*
X1000950Y-4436200D01*
X1602200Y-4436200D01*
X1602200Y-4416200D01*
X1852200Y-4416200D01*
X1852200Y-4436200D01*
X1874200Y-4436200D01*
X1874200Y-4690200D01*
X1852200Y-4690200D01*
X1852200Y-5339450D01*
X2010950Y-5498200D01*
X2103510Y-5498200D01*
X2227560Y-5446817D01*
X2227560Y-5468800D01*
X2271838Y-5704117D01*
X2387600Y-5884016D01*
X2387600Y-6096000D01*
X2447537Y-6397325D01*
X2493898Y-6466709D01*
X2493838Y-6535167D01*
X2635883Y-6878943D01*
X2898673Y-7142192D01*
X3242201Y-7284838D01*
X3614167Y-7285162D01*
X3957943Y-7143117D01*
X4221192Y-6880327D01*
X4361163Y-6543240D01*
X4441000Y-6543240D01*
X4676317Y-6498962D01*
X4892441Y-6359890D01*
X5037431Y-6147690D01*
X5088440Y-5895800D01*
X5088440Y-5295800D01*
X5044162Y-5060483D01*
X5036658Y-5048821D01*
X5037431Y-5047690D01*
X5088440Y-4795800D01*
X5088440Y-4195800D01*
X5044162Y-3960483D01*
X4905090Y-3744359D01*
X4692890Y-3599369D01*
X4630440Y-3586723D01*
X4630440Y-3356671D01*
X4653000Y-3361240D01*
X5253000Y-3361240D01*
X5488317Y-3316962D01*
X5499979Y-3309458D01*
X5501110Y-3310231D01*
X5753000Y-3361240D01*
X6353000Y-3361240D01*
X6588317Y-3316962D01*
X6804441Y-3177890D01*
X6949431Y-2965690D01*
X7000440Y-2713800D01*
X7000440Y-2213800D01*
X6956162Y-1978483D01*
X6817090Y-1762359D01*
X6805404Y-1754374D01*
X6846308Y-1645538D01*
X6843452Y-1559560D01*
X7362163Y-1559560D01*
X7397838Y-1749157D01*
X7397838Y-1749157D01*
G37*
X7397838Y-1749157D02*
X7536910Y-1965281D01*
X7614511Y-2018304D01*
X7462673Y-2170141D01*
X7366000Y-2403530D01*
X7366000Y-3006090D01*
X7524750Y-3164840D01*
X8599293Y-3164840D01*
X8605435Y-3238105D01*
X8639958Y-3321451D01*
X8608862Y-3418840D01*
X7524750Y-3418840D01*
X7366000Y-3577590D01*
X7366000Y-4180150D01*
X7462673Y-4413539D01*
X7641302Y-4592167D01*
X7874691Y-4688840D01*
X9747250Y-4688840D01*
X9779664Y-4656426D01*
X9887265Y-4647405D01*
X10101201Y-4558791D01*
X10229744Y-4599834D01*
X10318750Y-4688840D01*
X11507000Y-4688840D01*
X11507000Y-8304498D01*
X11294890Y-8159569D01*
X11043000Y-8108560D01*
X10293000Y-8108560D01*
X10200219Y-8126018D01*
X10184162Y-8040683D01*
X10045090Y-7824559D01*
X9832890Y-7679569D01*
X9581000Y-7628560D01*
X8031000Y-7628560D01*
X7795683Y-7672838D01*
X7579559Y-7811910D01*
X7434569Y-8024110D01*
X7411384Y-8138600D01*
X2242586Y-8138600D01*
X2224162Y-8040683D01*
X2085090Y-7824559D01*
X1872890Y-7679569D01*
X1621000Y-7628560D01*
X71000Y-7628560D01*
X-164317Y-7672838D01*
X-253228Y-7730051D01*
X-327110Y-7679569D01*
X-579000Y-7628560D01*
X-2129000Y-7628560D01*
X-2364317Y-7672838D01*
X-2580441Y-7811910D01*
X-2725431Y-8024110D01*
X-2748616Y-8138600D01*
X-7917414Y-8138600D01*
X-7935838Y-8040683D01*
X-7959194Y-8004386D01*
X-7795559Y-7899090D01*
X-7749031Y-7830994D01*
X-7606698Y-7973327D01*
X-7373309Y-8070000D01*
X-7280750Y-8070000D01*
X-7122000Y-7911250D01*
X-7122000Y-7112000D01*
X-6872000Y-7112000D01*
X-6872000Y-7911250D01*
X-6713250Y-8070000D01*
X-6620691Y-8070000D01*
X-6387302Y-7973327D01*
X-6208673Y-7794699D01*
X-6112000Y-7561310D01*
X-6112000Y-7270750D01*
X-6270750Y-7112000D01*
X-6872000Y-7112000D01*
X-7122000Y-7112000D01*
X-7144000Y-7112000D01*
X-7144000Y-6858000D01*
X-7122000Y-6858000D01*
X-7122000Y-6058750D01*
X-6872000Y-6058750D01*
X-6872000Y-6858000D01*
X-6270750Y-6858000D01*
X-6112000Y-6699250D01*
X-6112000Y-6408690D01*
X-6208673Y-6175301D01*
X-6387302Y-5996673D01*
X-6620691Y-5900000D01*
X-6713250Y-5900000D01*
X-6872000Y-6058750D01*
X-7122000Y-6058750D01*
X-7176599Y-6004151D01*
X-6298604Y-5126156D01*
X-6291833Y-5126162D01*
X-5948057Y-4984117D01*
X-5684808Y-4721327D01*
X-5542162Y-4377799D01*
X-5542096Y-4301500D01*
X-3210896Y-4301500D01*
X-3281392Y-4371873D01*
X-3424038Y-4715401D01*
X-3424362Y-5087367D01*
X-3282317Y-5431143D01*
X-3019527Y-5694392D01*
X-2675999Y-5837038D01*
X-2464575Y-5837222D01*
X-2413927Y-5959498D01*
X-2235299Y-6138127D01*
X-2001910Y-6234800D01*
X-1909350Y-6234800D01*
X-1874825Y-6200275D01*
X-1874962Y-6357367D01*
X-1732917Y-6701143D01*
X-1470127Y-6964392D01*
X-1126599Y-7107038D01*
X-754633Y-7107362D01*
X-410857Y-6965317D01*
X-147608Y-6702527D01*
X-4962Y-6358999D01*
X-4779Y-6149471D01*
X80550Y-6234800D01*
X173110Y-6234800D01*
X406499Y-6138127D01*
X585127Y-5959498D01*
X681800Y-5726109D01*
X681800Y-5585550D01*
X523050Y-5426800D01*
X-78200Y-5426800D01*
X-78200Y-5446800D01*
X-152400Y-5446800D01*
X-152400Y-5253752D01*
X-71448Y-5172800D01*
X-2626Y-5172800D01*
X51501Y-5226927D01*
X284890Y-5323600D01*
X425450Y-5323600D01*
X584200Y-5164850D01*
X584200Y-5111650D01*
X681800Y-5014050D01*
X681800Y-4873491D01*
X635833Y-4762517D01*
X643231Y-4751690D01*
X676257Y-4588600D01*
X838200Y-4588600D01*
X838200Y-5164850D01*
X996950Y-5323600D01*
X1039574Y-5323600D01*
X1117501Y-5401527D01*
X1350890Y-5498200D01*
X1443450Y-5498200D01*
X1602200Y-5339450D01*
X1602200Y-4921134D01*
X1646200Y-4814909D01*
X1646200Y-4747350D01*
X1602200Y-4703350D01*
X1602200Y-4690200D01*
X1589050Y-4690200D01*
X1487450Y-4588600D01*
X838200Y-4588600D01*
X676257Y-4588600D01*
X694240Y-4499800D01*
X694240Y-4436040D01*
X1000790Y-4436040D01*
X1000950Y-4436200D01*
X1602200Y-4436200D01*
X1602200Y-4416200D01*
X1852200Y-4416200D01*
X1852200Y-4436200D01*
X1874200Y-4436200D01*
X1874200Y-4690200D01*
X1852200Y-4690200D01*
X1852200Y-5339450D01*
X2010950Y-5498200D01*
X2103510Y-5498200D01*
X2227560Y-5446817D01*
X2227560Y-5468800D01*
X2271838Y-5704117D01*
X2387600Y-5884016D01*
X2387600Y-6096000D01*
X2447537Y-6397325D01*
X2493898Y-6466709D01*
X2493838Y-6535167D01*
X2635883Y-6878943D01*
X2898673Y-7142192D01*
X3242201Y-7284838D01*
X3614167Y-7285162D01*
X3957943Y-7143117D01*
X4221192Y-6880327D01*
X4361163Y-6543240D01*
X4441000Y-6543240D01*
X4676317Y-6498962D01*
X4892441Y-6359890D01*
X5037431Y-6147690D01*
X5088440Y-5895800D01*
X5088440Y-5295800D01*
X5044162Y-5060483D01*
X5036658Y-5048821D01*
X5037431Y-5047690D01*
X5088440Y-4795800D01*
X5088440Y-4195800D01*
X5044162Y-3960483D01*
X4905090Y-3744359D01*
X4692890Y-3599369D01*
X4630440Y-3586723D01*
X4630440Y-3356671D01*
X4653000Y-3361240D01*
X5253000Y-3361240D01*
X5488317Y-3316962D01*
X5499979Y-3309458D01*
X5501110Y-3310231D01*
X5753000Y-3361240D01*
X6353000Y-3361240D01*
X6588317Y-3316962D01*
X6804441Y-3177890D01*
X6949431Y-2965690D01*
X7000440Y-2713800D01*
X7000440Y-2213800D01*
X6956162Y-1978483D01*
X6817090Y-1762359D01*
X6805404Y-1754374D01*
X6846308Y-1645538D01*
X6843452Y-1559560D01*
X7362163Y-1559560D01*
X7397838Y-1749157D01*
G36*
X-6849327Y8229699D02*
X-6946000Y7996310D01*
X-6946000Y7903750D01*
X-6787250Y7745000D01*
X-6138000Y7745000D01*
X-6138000Y7767000D01*
X-5884000Y7767000D01*
X-5884000Y7745000D01*
X-5864000Y7745000D01*
X-5864000Y7496000D01*
X-6275250Y7496000D01*
X-6276250Y7495000D01*
X-6787250Y7495000D01*
X-6816500Y7465750D01*
X-6846750Y7496000D01*
X-7387309Y7496000D01*
X-7620698Y7399327D01*
X-7799327Y7220699D01*
X-7896000Y6987310D01*
X-7896000Y6546750D01*
X-7876000Y6526750D01*
X-7876000Y6138000D01*
X-7854000Y6138000D01*
X-7854000Y6017250D01*
X-7896000Y5975250D01*
X-7896000Y5864000D01*
X-8126000Y5864000D01*
X-8126000Y5884000D01*
X-8727250Y5884000D01*
X-8886000Y5725250D01*
X-8886000Y5584691D01*
X-8840033Y5473717D01*
X-8847431Y5462890D01*
X-8898440Y5211000D01*
X-8898440Y4611000D01*
X-8854162Y4375683D01*
X-8715090Y4159559D01*
X-8502890Y4014569D01*
X-8251000Y3963560D01*
X-8084644Y3963560D01*
X-8077725Y3958937D01*
X-7934967Y3930541D01*
X-7881679Y3918779D01*
X-7864162Y3825683D01*
X-7725090Y3609559D01*
X-7512890Y3464569D01*
X-7261000Y3413560D01*
X-6522874Y3413560D01*
X-6649838Y3107799D01*
X-6650162Y2735833D01*
X-6508117Y2392057D01*
X-6385432Y2269158D01*
X-9605379Y2271840D01*
X-9508737Y2416475D01*
X-9472978Y2596249D01*
X-9377057Y2635883D01*
X-9113808Y2898673D01*
X-8971162Y3242201D01*
X-8970838Y3614167D01*
X-9112883Y3957943D01*
X-9375673Y4221192D01*
X-9719201Y4363838D01*
X-10091167Y4364162D01*
X-10434943Y4222117D01*
X-10698192Y3959327D01*
X-10840838Y3615799D01*
X-10840866Y3583904D01*
X-10963663Y3400125D01*
X-10988890Y3273300D01*
X-11478260Y3273300D01*
X-11553469Y3258340D01*
X-11978260Y3258340D01*
X-12213577Y3214062D01*
X-12429701Y3074990D01*
X-12574691Y2862790D01*
X-12625700Y2610900D01*
X-12625700Y2360900D01*
X-12605810Y2255195D01*
X-12613260Y2237210D01*
X-12613260Y2207150D01*
X-12592948Y2186838D01*
X-12581422Y2125583D01*
X-12491070Y1985173D01*
X-12574691Y1862790D01*
X-12589818Y1788092D01*
X-12613260Y1764650D01*
X-12613260Y1734590D01*
X-12604792Y1714147D01*
X-12625700Y1610900D01*
X-12625700Y1360900D01*
X-12601316Y1231311D01*
X-12625700Y1110900D01*
X-12625700Y860900D01*
X-12601316Y731311D01*
X-12625700Y610900D01*
X-12625700Y360900D01*
X-12601316Y231311D01*
X-12625700Y110900D01*
X-12625700Y-139100D01*
X-12601316Y-268689D01*
X-12625700Y-389100D01*
X-12625700Y-639100D01*
X-12601316Y-768689D01*
X-12625700Y-889100D01*
X-12625700Y-1139100D01*
X-12601316Y-1268689D01*
X-12625700Y-1389100D01*
X-12625700Y-1639100D01*
X-12601316Y-1768689D01*
X-12625700Y-1889100D01*
X-12625700Y-2139100D01*
X-12601316Y-2268689D01*
X-12625700Y-2389100D01*
X-12625700Y-2639100D01*
X-12601316Y-2768689D01*
X-12625700Y-2889100D01*
X-12625700Y-3139100D01*
X-12601316Y-3268689D01*
X-12625700Y-3389100D01*
X-12625700Y-3639100D01*
X-12601316Y-3768689D01*
X-12625700Y-3889100D01*
X-12625700Y-4024183D01*
X-12640201Y-4018162D01*
X-12648293Y-4018155D01*
X-14209124Y-2457324D01*
X-14464575Y-2286637D01*
X-14765900Y-2226700D01*
X-16607148Y-2226700D01*
X-15318224Y-937776D01*
X-15147537Y-682325D01*
X-15087600Y-381000D01*
X-15087600Y2639889D01*
X-15082808Y2644673D01*
X-14940162Y2988201D01*
X-14939900Y3288460D01*
X-14803260Y3288460D01*
X-14673671Y3312844D01*
X-14553260Y3288460D01*
X-14303260Y3288460D01*
X-14173671Y3312844D01*
X-14053260Y3288460D01*
X-13803260Y3288460D01*
X-13673671Y3312844D01*
X-13553260Y3288460D01*
X-13303260Y3288460D01*
X-13067943Y3332738D01*
X-12851819Y3471810D01*
X-12706829Y3684010D01*
X-12655820Y3935900D01*
X-12655820Y4935900D01*
X-12700098Y5171217D01*
X-12839170Y5387341D01*
X-13051370Y5532331D01*
X-13303260Y5583340D01*
X-13553260Y5583340D01*
X-13682849Y5558956D01*
X-13803260Y5583340D01*
X-14053260Y5583340D01*
X-14182849Y5558956D01*
X-14303260Y5583340D01*
X-14553260Y5583340D01*
X-14558551Y5582344D01*
X-14320808Y5819673D01*
X-14234076Y6028546D01*
X-14170654Y6041161D01*
X-13802434Y6287198D01*
X-13702133Y6437309D01*
X-8886000Y6437309D01*
X-8886000Y6296750D01*
X-8727250Y6138000D01*
X-8126000Y6138000D01*
X-8126000Y6787250D01*
X-8284750Y6946000D01*
X-8377310Y6946000D01*
X-8610699Y6849327D01*
X-8789327Y6670698D01*
X-8886000Y6437309D01*
X-13702133Y6437309D01*
X-13556397Y6655418D01*
X-13470000Y7089764D01*
X-13470000Y7134236D01*
X-13556397Y7568582D01*
X-13802434Y7936802D01*
X-14170654Y8182839D01*
X-14605000Y8269236D01*
X-15039346Y8182839D01*
X-15240000Y8048766D01*
X-15440654Y8182839D01*
X-15875000Y8269236D01*
X-16309346Y8182839D01*
X-16510000Y8048766D01*
X-16710654Y8182839D01*
X-17145000Y8269236D01*
X-17579346Y8182839D01*
X-17789304Y8042549D01*
X-17854791Y8099127D01*
X-18113126Y8206119D01*
X-18288000Y8079954D01*
X-18288000Y7239000D01*
X-18268000Y7239000D01*
X-18268000Y7194564D01*
X-18280000Y7134236D01*
X-18280000Y7089764D01*
X-18268000Y7029436D01*
X-18268000Y6985000D01*
X-18288000Y6985000D01*
X-18288000Y6965000D01*
X-18542000Y6965000D01*
X-18542000Y6985000D01*
X-18562000Y6985000D01*
X-18562000Y7029436D01*
X-18550000Y7089764D01*
X-18550000Y7134236D01*
X-18562000Y7194564D01*
X-18562000Y7239000D01*
X-18542000Y7239000D01*
X-18542000Y8079954D01*
X-18716874Y8206119D01*
X-18975209Y8099127D01*
X-19040696Y8042549D01*
X-19098116Y8080916D01*
X-19128224Y8125976D01*
X-19257844Y8255596D01*
X-19257838Y8262367D01*
X-19286610Y8332000D01*
X-6747025Y8332000D01*
X-6849327Y8229699D01*
X-6849327Y8229699D01*
G37*
X-6849327Y8229699D02*
X-6946000Y7996310D01*
X-6946000Y7903750D01*
X-6787250Y7745000D01*
X-6138000Y7745000D01*
X-6138000Y7767000D01*
X-5884000Y7767000D01*
X-5884000Y7745000D01*
X-5864000Y7745000D01*
X-5864000Y7496000D01*
X-6275250Y7496000D01*
X-6276250Y7495000D01*
X-6787250Y7495000D01*
X-6816500Y7465750D01*
X-6846750Y7496000D01*
X-7387309Y7496000D01*
X-7620698Y7399327D01*
X-7799327Y7220699D01*
X-7896000Y6987310D01*
X-7896000Y6546750D01*
X-7876000Y6526750D01*
X-7876000Y6138000D01*
X-7854000Y6138000D01*
X-7854000Y6017250D01*
X-7896000Y5975250D01*
X-7896000Y5864000D01*
X-8126000Y5864000D01*
X-8126000Y5884000D01*
X-8727250Y5884000D01*
X-8886000Y5725250D01*
X-8886000Y5584691D01*
X-8840033Y5473717D01*
X-8847431Y5462890D01*
X-8898440Y5211000D01*
X-8898440Y4611000D01*
X-8854162Y4375683D01*
X-8715090Y4159559D01*
X-8502890Y4014569D01*
X-8251000Y3963560D01*
X-8084644Y3963560D01*
X-8077725Y3958937D01*
X-7934967Y3930541D01*
X-7881679Y3918779D01*
X-7864162Y3825683D01*
X-7725090Y3609559D01*
X-7512890Y3464569D01*
X-7261000Y3413560D01*
X-6522874Y3413560D01*
X-6649838Y3107799D01*
X-6650162Y2735833D01*
X-6508117Y2392057D01*
X-6385432Y2269158D01*
X-9605379Y2271840D01*
X-9508737Y2416475D01*
X-9472978Y2596249D01*
X-9377057Y2635883D01*
X-9113808Y2898673D01*
X-8971162Y3242201D01*
X-8970838Y3614167D01*
X-9112883Y3957943D01*
X-9375673Y4221192D01*
X-9719201Y4363838D01*
X-10091167Y4364162D01*
X-10434943Y4222117D01*
X-10698192Y3959327D01*
X-10840838Y3615799D01*
X-10840866Y3583904D01*
X-10963663Y3400125D01*
X-10988890Y3273300D01*
X-11478260Y3273300D01*
X-11553469Y3258340D01*
X-11978260Y3258340D01*
X-12213577Y3214062D01*
X-12429701Y3074990D01*
X-12574691Y2862790D01*
X-12625700Y2610900D01*
X-12625700Y2360900D01*
X-12605810Y2255195D01*
X-12613260Y2237210D01*
X-12613260Y2207150D01*
X-12592948Y2186838D01*
X-12581422Y2125583D01*
X-12491070Y1985173D01*
X-12574691Y1862790D01*
X-12589818Y1788092D01*
X-12613260Y1764650D01*
X-12613260Y1734590D01*
X-12604792Y1714147D01*
X-12625700Y1610900D01*
X-12625700Y1360900D01*
X-12601316Y1231311D01*
X-12625700Y1110900D01*
X-12625700Y860900D01*
X-12601316Y731311D01*
X-12625700Y610900D01*
X-12625700Y360900D01*
X-12601316Y231311D01*
X-12625700Y110900D01*
X-12625700Y-139100D01*
X-12601316Y-268689D01*
X-12625700Y-389100D01*
X-12625700Y-639100D01*
X-12601316Y-768689D01*
X-12625700Y-889100D01*
X-12625700Y-1139100D01*
X-12601316Y-1268689D01*
X-12625700Y-1389100D01*
X-12625700Y-1639100D01*
X-12601316Y-1768689D01*
X-12625700Y-1889100D01*
X-12625700Y-2139100D01*
X-12601316Y-2268689D01*
X-12625700Y-2389100D01*
X-12625700Y-2639100D01*
X-12601316Y-2768689D01*
X-12625700Y-2889100D01*
X-12625700Y-3139100D01*
X-12601316Y-3268689D01*
X-12625700Y-3389100D01*
X-12625700Y-3639100D01*
X-12601316Y-3768689D01*
X-12625700Y-3889100D01*
X-12625700Y-4024183D01*
X-12640201Y-4018162D01*
X-12648293Y-4018155D01*
X-14209124Y-2457324D01*
X-14464575Y-2286637D01*
X-14765900Y-2226700D01*
X-16607148Y-2226700D01*
X-15318224Y-937776D01*
X-15147537Y-682325D01*
X-15087600Y-381000D01*
X-15087600Y2639889D01*
X-15082808Y2644673D01*
X-14940162Y2988201D01*
X-14939900Y3288460D01*
X-14803260Y3288460D01*
X-14673671Y3312844D01*
X-14553260Y3288460D01*
X-14303260Y3288460D01*
X-14173671Y3312844D01*
X-14053260Y3288460D01*
X-13803260Y3288460D01*
X-13673671Y3312844D01*
X-13553260Y3288460D01*
X-13303260Y3288460D01*
X-13067943Y3332738D01*
X-12851819Y3471810D01*
X-12706829Y3684010D01*
X-12655820Y3935900D01*
X-12655820Y4935900D01*
X-12700098Y5171217D01*
X-12839170Y5387341D01*
X-13051370Y5532331D01*
X-13303260Y5583340D01*
X-13553260Y5583340D01*
X-13682849Y5558956D01*
X-13803260Y5583340D01*
X-14053260Y5583340D01*
X-14182849Y5558956D01*
X-14303260Y5583340D01*
X-14553260Y5583340D01*
X-14558551Y5582344D01*
X-14320808Y5819673D01*
X-14234076Y6028546D01*
X-14170654Y6041161D01*
X-13802434Y6287198D01*
X-13702133Y6437309D01*
X-8886000Y6437309D01*
X-8886000Y6296750D01*
X-8727250Y6138000D01*
X-8126000Y6138000D01*
X-8126000Y6787250D01*
X-8284750Y6946000D01*
X-8377310Y6946000D01*
X-8610699Y6849327D01*
X-8789327Y6670698D01*
X-8886000Y6437309D01*
X-13702133Y6437309D01*
X-13556397Y6655418D01*
X-13470000Y7089764D01*
X-13470000Y7134236D01*
X-13556397Y7568582D01*
X-13802434Y7936802D01*
X-14170654Y8182839D01*
X-14605000Y8269236D01*
X-15039346Y8182839D01*
X-15240000Y8048766D01*
X-15440654Y8182839D01*
X-15875000Y8269236D01*
X-16309346Y8182839D01*
X-16510000Y8048766D01*
X-16710654Y8182839D01*
X-17145000Y8269236D01*
X-17579346Y8182839D01*
X-17789304Y8042549D01*
X-17854791Y8099127D01*
X-18113126Y8206119D01*
X-18288000Y8079954D01*
X-18288000Y7239000D01*
X-18268000Y7239000D01*
X-18268000Y7194564D01*
X-18280000Y7134236D01*
X-18280000Y7089764D01*
X-18268000Y7029436D01*
X-18268000Y6985000D01*
X-18288000Y6985000D01*
X-18288000Y6965000D01*
X-18542000Y6965000D01*
X-18542000Y6985000D01*
X-18562000Y6985000D01*
X-18562000Y7029436D01*
X-18550000Y7089764D01*
X-18550000Y7134236D01*
X-18562000Y7194564D01*
X-18562000Y7239000D01*
X-18542000Y7239000D01*
X-18542000Y8079954D01*
X-18716874Y8206119D01*
X-18975209Y8099127D01*
X-19040696Y8042549D01*
X-19098116Y8080916D01*
X-19128224Y8125976D01*
X-19257844Y8255596D01*
X-19257838Y8262367D01*
X-19286610Y8332000D01*
X-6747025Y8332000D01*
X-6849327Y8229699D01*
G36*
X-5610000Y-1191800D02*
X-5630000Y-1191800D01*
X-5630000Y-1213800D01*
X-5884000Y-1213800D01*
X-5884000Y-1191800D01*
X-5904000Y-1191800D01*
X-5904000Y-1090552D01*
X-5863288Y-1049840D01*
X-5779400Y-1049840D01*
X-5610000Y-1017965D01*
X-5610000Y-1191800D01*
X-5610000Y-1191800D01*
G37*
X-5610000Y-1191800D02*
X-5630000Y-1191800D01*
X-5630000Y-1213800D01*
X-5884000Y-1213800D01*
X-5884000Y-1191800D01*
X-5904000Y-1191800D01*
X-5904000Y-1090552D01*
X-5863288Y-1049840D01*
X-5779400Y-1049840D01*
X-5610000Y-1017965D01*
X-5610000Y-1191800D01*
G36*
X11507000Y3185160D02*
X10318750Y3185160D01*
X10250855Y3117265D01*
X10100799Y3055111D01*
X9772464Y3159946D01*
X9747250Y3185160D01*
X7874691Y3185160D01*
X7641302Y3088487D01*
X7462673Y2909859D01*
X7366000Y2676470D01*
X7366000Y2073910D01*
X7524750Y1915160D01*
X8600970Y1915160D01*
X8605435Y1861895D01*
X8639958Y1778549D01*
X8602476Y1661160D01*
X7524750Y1661160D01*
X7366000Y1502410D01*
X7366000Y899850D01*
X7462673Y666461D01*
X7613646Y515489D01*
X7549559Y474250D01*
X7404569Y262050D01*
X7354589Y15240D01*
X6840968Y15240D01*
X6836470Y150678D01*
X6742041Y378651D01*
X6670752Y372185D01*
X6721959Y423392D01*
X6692581Y452770D01*
X6717400Y512690D01*
X6717400Y605250D01*
X6558650Y764000D01*
X5909400Y764000D01*
X5909400Y742000D01*
X5655400Y742000D01*
X5655400Y764000D01*
X5635400Y764000D01*
X5635400Y1014000D01*
X5655400Y1014000D01*
X5655400Y1615250D01*
X5909400Y1615250D01*
X5909400Y1014000D01*
X6558650Y1014000D01*
X6717400Y1172750D01*
X6717400Y1265310D01*
X6620727Y1498699D01*
X6442098Y1677327D01*
X6208709Y1774000D01*
X6068150Y1774000D01*
X5909400Y1615250D01*
X5655400Y1615250D01*
X5548671Y1721979D01*
X5608943Y1746883D01*
X5872192Y2009673D01*
X6014838Y2353201D01*
X6015162Y2725167D01*
X5873117Y3068943D01*
X5610327Y3332192D01*
X5266799Y3474838D01*
X5146487Y3474943D01*
X5106327Y3571898D01*
X4927699Y3750527D01*
X4694310Y3847200D01*
X4605380Y3847200D01*
X4617838Y3877201D01*
X4618162Y4249167D01*
X4476117Y4592943D01*
X4213327Y4856192D01*
X3869799Y4998838D01*
X3497833Y4999162D01*
X3426287Y4969600D01*
X2919000Y4969600D01*
X2919000Y4949600D01*
X2815400Y4949600D01*
X2815400Y4988650D01*
X2656650Y5147400D01*
X2647000Y5147400D01*
X2647000Y5223600D01*
X2669000Y5223600D01*
X2669000Y5413750D01*
X2815400Y5560150D01*
X2815400Y5700709D01*
X2744097Y5872850D01*
X2919000Y5872850D01*
X2919000Y5223600D01*
X3520250Y5223600D01*
X3679000Y5382350D01*
X3679000Y5522909D01*
X3582327Y5756298D01*
X3403699Y5934927D01*
X3170310Y6031600D01*
X3077750Y6031600D01*
X2919000Y5872850D01*
X2744097Y5872850D01*
X2718727Y5934098D01*
X2540099Y6112727D01*
X2306710Y6209400D01*
X2255877Y6209400D01*
X2255962Y6306567D01*
X2113917Y6650343D01*
X1851127Y6913592D01*
X1507599Y7056238D01*
X1135633Y7056562D01*
X791857Y6914517D01*
X528608Y6651727D01*
X417168Y6383350D01*
X223910Y6463400D01*
X172945Y6463400D01*
X173162Y6712967D01*
X31117Y7056743D01*
X-231673Y7319992D01*
X-575201Y7462638D01*
X-947167Y7462962D01*
X-1290943Y7320917D01*
X-1554192Y7058127D01*
X-1696838Y6714599D01*
X-1696920Y6620472D01*
X-1792624Y6716176D01*
X-1904145Y6790692D01*
X-2011763Y6870737D01*
X-2031312Y6875662D01*
X-2048075Y6886863D01*
X-2179619Y6913029D01*
X-2309681Y6945798D01*
X-3036423Y6982504D01*
X-3057838Y7096317D01*
X-3196910Y7312441D01*
X-3409110Y7457431D01*
X-3623779Y7500903D01*
X-3684618Y7581543D01*
X-3963560Y7830224D01*
X-3963560Y7870000D01*
X-4007838Y8105317D01*
X-4146910Y8321441D01*
X-4162364Y8332000D01*
X11507000Y8332000D01*
X11507000Y3185160D01*
X11507000Y3185160D01*
G37*
X11507000Y3185160D02*
X10318750Y3185160D01*
X10250855Y3117265D01*
X10100799Y3055111D01*
X9772464Y3159946D01*
X9747250Y3185160D01*
X7874691Y3185160D01*
X7641302Y3088487D01*
X7462673Y2909859D01*
X7366000Y2676470D01*
X7366000Y2073910D01*
X7524750Y1915160D01*
X8600970Y1915160D01*
X8605435Y1861895D01*
X8639958Y1778549D01*
X8602476Y1661160D01*
X7524750Y1661160D01*
X7366000Y1502410D01*
X7366000Y899850D01*
X7462673Y666461D01*
X7613646Y515489D01*
X7549559Y474250D01*
X7404569Y262050D01*
X7354589Y15240D01*
X6840968Y15240D01*
X6836470Y150678D01*
X6742041Y378651D01*
X6670752Y372185D01*
X6721959Y423392D01*
X6692581Y452770D01*
X6717400Y512690D01*
X6717400Y605250D01*
X6558650Y764000D01*
X5909400Y764000D01*
X5909400Y742000D01*
X5655400Y742000D01*
X5655400Y764000D01*
X5635400Y764000D01*
X5635400Y1014000D01*
X5655400Y1014000D01*
X5655400Y1615250D01*
X5909400Y1615250D01*
X5909400Y1014000D01*
X6558650Y1014000D01*
X6717400Y1172750D01*
X6717400Y1265310D01*
X6620727Y1498699D01*
X6442098Y1677327D01*
X6208709Y1774000D01*
X6068150Y1774000D01*
X5909400Y1615250D01*
X5655400Y1615250D01*
X5548671Y1721979D01*
X5608943Y1746883D01*
X5872192Y2009673D01*
X6014838Y2353201D01*
X6015162Y2725167D01*
X5873117Y3068943D01*
X5610327Y3332192D01*
X5266799Y3474838D01*
X5146487Y3474943D01*
X5106327Y3571898D01*
X4927699Y3750527D01*
X4694310Y3847200D01*
X4605380Y3847200D01*
X4617838Y3877201D01*
X4618162Y4249167D01*
X4476117Y4592943D01*
X4213327Y4856192D01*
X3869799Y4998838D01*
X3497833Y4999162D01*
X3426287Y4969600D01*
X2919000Y4969600D01*
X2919000Y4949600D01*
X2815400Y4949600D01*
X2815400Y4988650D01*
X2656650Y5147400D01*
X2647000Y5147400D01*
X2647000Y5223600D01*
X2669000Y5223600D01*
X2669000Y5413750D01*
X2815400Y5560150D01*
X2815400Y5700709D01*
X2744097Y5872850D01*
X2919000Y5872850D01*
X2919000Y5223600D01*
X3520250Y5223600D01*
X3679000Y5382350D01*
X3679000Y5522909D01*
X3582327Y5756298D01*
X3403699Y5934927D01*
X3170310Y6031600D01*
X3077750Y6031600D01*
X2919000Y5872850D01*
X2744097Y5872850D01*
X2718727Y5934098D01*
X2540099Y6112727D01*
X2306710Y6209400D01*
X2255877Y6209400D01*
X2255962Y6306567D01*
X2113917Y6650343D01*
X1851127Y6913592D01*
X1507599Y7056238D01*
X1135633Y7056562D01*
X791857Y6914517D01*
X528608Y6651727D01*
X417168Y6383350D01*
X223910Y6463400D01*
X172945Y6463400D01*
X173162Y6712967D01*
X31117Y7056743D01*
X-231673Y7319992D01*
X-575201Y7462638D01*
X-947167Y7462962D01*
X-1290943Y7320917D01*
X-1554192Y7058127D01*
X-1696838Y6714599D01*
X-1696920Y6620472D01*
X-1792624Y6716176D01*
X-1904145Y6790692D01*
X-2011763Y6870737D01*
X-2031312Y6875662D01*
X-2048075Y6886863D01*
X-2179619Y6913029D01*
X-2309681Y6945798D01*
X-3036423Y6982504D01*
X-3057838Y7096317D01*
X-3196910Y7312441D01*
X-3409110Y7457431D01*
X-3623779Y7500903D01*
X-3684618Y7581543D01*
X-3963560Y7830224D01*
X-3963560Y7870000D01*
X-4007838Y8105317D01*
X-4146910Y8321441D01*
X-4162364Y8332000D01*
X11507000Y8332000D01*
X11507000Y3185160D01*
G36*
X-25092127Y2306608D02*
X-24748599Y2163962D01*
X-24376633Y2163638D01*
X-24059198Y2294799D01*
X-24013262Y2294799D01*
X-24001316Y2231311D01*
X-24025700Y2110900D01*
X-24025700Y1860900D01*
X-24001316Y1731311D01*
X-24025700Y1610900D01*
X-24025700Y1360900D01*
X-24001316Y1231311D01*
X-24013059Y1173323D01*
X-24125910Y1250431D01*
X-24377800Y1301440D01*
X-25177800Y1301440D01*
X-25216960Y1294072D01*
X-25216960Y1709800D01*
X-25261238Y1945117D01*
X-25400310Y2161241D01*
X-25468406Y2207769D01*
X-25326073Y2350102D01*
X-25270200Y2484992D01*
X-25092127Y2306608D01*
X-25092127Y2306608D01*
G37*
X-25092127Y2306608D02*
X-24748599Y2163962D01*
X-24376633Y2163638D01*
X-24059198Y2294799D01*
X-24013262Y2294799D01*
X-24001316Y2231311D01*
X-24025700Y2110900D01*
X-24025700Y1860900D01*
X-24001316Y1731311D01*
X-24025700Y1610900D01*
X-24025700Y1360900D01*
X-24001316Y1231311D01*
X-24013059Y1173323D01*
X-24125910Y1250431D01*
X-24377800Y1301440D01*
X-25177800Y1301440D01*
X-25216960Y1294072D01*
X-25216960Y1709800D01*
X-25261238Y1945117D01*
X-25400310Y2161241D01*
X-25468406Y2207769D01*
X-25326073Y2350102D01*
X-25270200Y2484992D01*
X-25092127Y2306608D01*
G36*
X-28128000Y2851626D02*
X-28303502Y3027127D01*
X-28536891Y3123800D01*
X-29427450Y3123800D01*
X-29586200Y2965050D01*
X-29586200Y1878300D01*
X-29566200Y1878300D01*
X-29566200Y1624300D01*
X-29586200Y1624300D01*
X-29586200Y1604300D01*
X-29840200Y1604300D01*
X-29840200Y1624300D01*
X-29860200Y1624300D01*
X-29860200Y1878300D01*
X-29840200Y1878300D01*
X-29840200Y2965050D01*
X-29998950Y3123800D01*
X-30428200Y3123800D01*
X-30428200Y3505200D01*
X-28128000Y3505200D01*
X-28128000Y2851626D01*
X-28128000Y2851626D01*
G37*
X-28128000Y2851626D02*
X-28303502Y3027127D01*
X-28536891Y3123800D01*
X-29427450Y3123800D01*
X-29586200Y2965050D01*
X-29586200Y1878300D01*
X-29566200Y1878300D01*
X-29566200Y1624300D01*
X-29586200Y1624300D01*
X-29586200Y1604300D01*
X-29840200Y1604300D01*
X-29840200Y1624300D01*
X-29860200Y1624300D01*
X-29860200Y1878300D01*
X-29840200Y1878300D01*
X-29840200Y2965050D01*
X-29998950Y3123800D01*
X-30428200Y3123800D01*
X-30428200Y3505200D01*
X-28128000Y3505200D01*
X-28128000Y2851626D01*
G36*
X-26187400Y3084800D02*
X-26167400Y3084800D01*
X-26167400Y2834800D01*
X-26187400Y2834800D01*
X-26187400Y2812800D01*
X-26441400Y2812800D01*
X-26441400Y2834800D01*
X-26461400Y2834800D01*
X-26461400Y3084800D01*
X-26441400Y3084800D01*
X-26441400Y3106800D01*
X-26187400Y3106800D01*
X-26187400Y3084800D01*
X-26187400Y3084800D01*
G37*
X-26187400Y3084800D02*
X-26167400Y3084800D01*
X-26167400Y2834800D01*
X-26187400Y2834800D01*
X-26187400Y2812800D01*
X-26441400Y2812800D01*
X-26441400Y2834800D01*
X-26461400Y2834800D01*
X-26461400Y3084800D01*
X-26441400Y3084800D01*
X-26441400Y3106800D01*
X-26187400Y3106800D01*
X-26187400Y3084800D01*
G36*
X-22899600Y8257000D02*
X-22919600Y8257000D01*
X-22919600Y7655750D01*
X-22760850Y7497000D01*
X-22620291Y7497000D01*
X-22386902Y7593673D01*
X-22208273Y7772301D01*
X-22111600Y8005690D01*
X-22111600Y8098250D01*
X-22268348Y8254998D01*
X-22111600Y8254998D01*
X-22111600Y8332000D01*
X-21099601Y8332000D01*
X-21127838Y8263999D01*
X-21127842Y8259440D01*
X-21455000Y8259440D01*
X-21690317Y8215162D01*
X-21906441Y8076090D01*
X-22051431Y7863890D01*
X-22102440Y7612000D01*
X-22102440Y6612000D01*
X-22058162Y6376683D01*
X-21919090Y6160559D01*
X-21742400Y6039832D01*
X-21742400Y5223300D01*
X-21782405Y5223300D01*
X-21796273Y5237192D01*
X-22139801Y5379838D01*
X-22511767Y5380162D01*
X-22855543Y5238117D01*
X-23118792Y4975327D01*
X-23261438Y4631799D01*
X-23261538Y4516463D01*
X-23281793Y4516480D01*
X-23325873Y4622899D01*
X-23504502Y4801527D01*
X-23737891Y4898200D01*
X-23878450Y4898200D01*
X-24037200Y4739450D01*
X-24037200Y4138200D01*
X-24017200Y4138200D01*
X-24017200Y4027900D01*
X-24067788Y3906071D01*
X-24311200Y4007145D01*
X-24311200Y4138200D01*
X-24291200Y4138200D01*
X-24291200Y4739450D01*
X-24449950Y4898200D01*
X-24468160Y4898200D01*
X-24468160Y6031000D01*
X-24512438Y6266317D01*
X-24651510Y6482441D01*
X-24863710Y6627431D01*
X-25115600Y6678440D01*
X-25765600Y6678440D01*
X-25905686Y6652081D01*
X-25939290Y6666000D01*
X-26104850Y6666000D01*
X-26263600Y6507250D01*
X-26263600Y6426949D01*
X-26362031Y6282890D01*
X-26389776Y6145880D01*
X-26412438Y6266317D01*
X-26517600Y6429743D01*
X-26517600Y6507250D01*
X-26676350Y6666000D01*
X-26841910Y6666000D01*
X-26878771Y6650732D01*
X-27015600Y6678440D01*
X-27665600Y6678440D01*
X-27900917Y6634162D01*
X-28021234Y6556740D01*
X-27888273Y6689702D01*
X-27835172Y6817899D01*
X-27665600Y6783560D01*
X-27015600Y6783560D01*
X-26780283Y6827838D01*
X-26564159Y6966910D01*
X-26496406Y7066069D01*
X-26285240Y7065885D01*
X-26229690Y6979559D01*
X-26017490Y6834569D01*
X-25765600Y6783560D01*
X-25115600Y6783560D01*
X-24880283Y6827838D01*
X-24664159Y6966910D01*
X-24519169Y7179110D01*
X-24504084Y7253600D01*
X-24487600Y7253600D01*
X-24186275Y7313537D01*
X-23930824Y7484224D01*
X-23930488Y7484560D01*
X-23846600Y7484560D01*
X-23611283Y7528838D01*
X-23587194Y7544339D01*
X-23472909Y7497000D01*
X-23332350Y7497000D01*
X-23173600Y7655750D01*
X-23173600Y8257000D01*
X-23193600Y8257000D01*
X-23193600Y8332000D01*
X-22899600Y8332000D01*
X-22899600Y8257000D01*
X-22899600Y8257000D01*
G37*
X-22899600Y8257000D02*
X-22919600Y8257000D01*
X-22919600Y7655750D01*
X-22760850Y7497000D01*
X-22620291Y7497000D01*
X-22386902Y7593673D01*
X-22208273Y7772301D01*
X-22111600Y8005690D01*
X-22111600Y8098250D01*
X-22268348Y8254998D01*
X-22111600Y8254998D01*
X-22111600Y8332000D01*
X-21099601Y8332000D01*
X-21127838Y8263999D01*
X-21127842Y8259440D01*
X-21455000Y8259440D01*
X-21690317Y8215162D01*
X-21906441Y8076090D01*
X-22051431Y7863890D01*
X-22102440Y7612000D01*
X-22102440Y6612000D01*
X-22058162Y6376683D01*
X-21919090Y6160559D01*
X-21742400Y6039832D01*
X-21742400Y5223300D01*
X-21782405Y5223300D01*
X-21796273Y5237192D01*
X-22139801Y5379838D01*
X-22511767Y5380162D01*
X-22855543Y5238117D01*
X-23118792Y4975327D01*
X-23261438Y4631799D01*
X-23261538Y4516463D01*
X-23281793Y4516480D01*
X-23325873Y4622899D01*
X-23504502Y4801527D01*
X-23737891Y4898200D01*
X-23878450Y4898200D01*
X-24037200Y4739450D01*
X-24037200Y4138200D01*
X-24017200Y4138200D01*
X-24017200Y4027900D01*
X-24067788Y3906071D01*
X-24311200Y4007145D01*
X-24311200Y4138200D01*
X-24291200Y4138200D01*
X-24291200Y4739450D01*
X-24449950Y4898200D01*
X-24468160Y4898200D01*
X-24468160Y6031000D01*
X-24512438Y6266317D01*
X-24651510Y6482441D01*
X-24863710Y6627431D01*
X-25115600Y6678440D01*
X-25765600Y6678440D01*
X-25905686Y6652081D01*
X-25939290Y6666000D01*
X-26104850Y6666000D01*
X-26263600Y6507250D01*
X-26263600Y6426949D01*
X-26362031Y6282890D01*
X-26389776Y6145880D01*
X-26412438Y6266317D01*
X-26517600Y6429743D01*
X-26517600Y6507250D01*
X-26676350Y6666000D01*
X-26841910Y6666000D01*
X-26878771Y6650732D01*
X-27015600Y6678440D01*
X-27665600Y6678440D01*
X-27900917Y6634162D01*
X-28021234Y6556740D01*
X-27888273Y6689702D01*
X-27835172Y6817899D01*
X-27665600Y6783560D01*
X-27015600Y6783560D01*
X-26780283Y6827838D01*
X-26564159Y6966910D01*
X-26496406Y7066069D01*
X-26285240Y7065885D01*
X-26229690Y6979559D01*
X-26017490Y6834569D01*
X-25765600Y6783560D01*
X-25115600Y6783560D01*
X-24880283Y6827838D01*
X-24664159Y6966910D01*
X-24519169Y7179110D01*
X-24504084Y7253600D01*
X-24487600Y7253600D01*
X-24186275Y7313537D01*
X-23930824Y7484224D01*
X-23930488Y7484560D01*
X-23846600Y7484560D01*
X-23611283Y7528838D01*
X-23587194Y7544339D01*
X-23472909Y7497000D01*
X-23332350Y7497000D01*
X-23173600Y7655750D01*
X-23173600Y8257000D01*
X-23193600Y8257000D01*
X-23193600Y8332000D01*
X-22899600Y8332000D01*
X-22899600Y8257000D01*
G36*
X-2844800Y5396017D02*
X-2844800Y4265200D01*
X-3026000Y4265200D01*
X-3026000Y4375250D01*
X-3184750Y4534000D01*
X-4234000Y4534000D01*
X-4234000Y4514000D01*
X-4488000Y4514000D01*
X-4488000Y4534000D01*
X-4508000Y4534000D01*
X-4508000Y4788000D01*
X-4488000Y4788000D01*
X-4488000Y4808000D01*
X-4234000Y4808000D01*
X-4234000Y4788000D01*
X-3184750Y4788000D01*
X-3026000Y4946750D01*
X-3026000Y5387310D01*
X-3033556Y5405551D01*
X-2844800Y5396017D01*
X-2844800Y5396017D01*
G37*
X-2844800Y5396017D02*
X-2844800Y4265200D01*
X-3026000Y4265200D01*
X-3026000Y4375250D01*
X-3184750Y4534000D01*
X-4234000Y4534000D01*
X-4234000Y4514000D01*
X-4488000Y4514000D01*
X-4488000Y4534000D01*
X-4508000Y4534000D01*
X-4508000Y4788000D01*
X-4488000Y4788000D01*
X-4488000Y4808000D01*
X-4234000Y4808000D01*
X-4234000Y4788000D01*
X-3184750Y4788000D01*
X-3026000Y4946750D01*
X-3026000Y5387310D01*
X-3033556Y5405551D01*
X-2844800Y5396017D01*
G36*
X-6670698Y6831673D02*
X-6437309Y6735000D01*
X-6434000Y6735000D01*
X-6434000Y6388000D01*
X-6414000Y6388000D01*
X-6414000Y6134000D01*
X-6434000Y6134000D01*
X-6434000Y6114000D01*
X-6688000Y6114000D01*
X-6688000Y6134000D01*
X-7116000Y6134000D01*
X-7116000Y6138002D01*
X-7274748Y6138002D01*
X-7116000Y6296750D01*
X-7116000Y6388000D01*
X-6688000Y6388000D01*
X-6688000Y6848975D01*
X-6670698Y6831673D01*
X-6670698Y6831673D01*
G37*
X-6670698Y6831673D02*
X-6437309Y6735000D01*
X-6434000Y6735000D01*
X-6434000Y6388000D01*
X-6414000Y6388000D01*
X-6414000Y6134000D01*
X-6434000Y6134000D01*
X-6434000Y6114000D01*
X-6688000Y6114000D01*
X-6688000Y6134000D01*
X-7116000Y6134000D01*
X-7116000Y6138002D01*
X-7274748Y6138002D01*
X-7116000Y6296750D01*
X-7116000Y6388000D01*
X-6688000Y6388000D01*
X-6688000Y6848975D01*
X-6670698Y6831673D01*
M02*
