M48
;DRILL file {KiCad 4.0.6} date Mon Mar 20 23:38:27 2017
;FORMAT={2:4/ absolute / inch / suppress trailing zeros}
FMAT,2
INCH,LZ
T1C0.008
T2C0.012
T3C0.016
T4C0.026
%
G90
G05
M72
T1
X047836Y-043716
X047836Y-04411
X047836Y-044504
X04823Y-043716
X04823Y-04411
X04823Y-044504
X048624Y-043716
X048624Y-04411
X048624Y-044504
T2
X05203Y-043354
X05203Y-04363
X05203Y-045362
X05203Y-045638
X052424Y-043354
X052424Y-04363
X052424Y-045362
X052424Y-045638
X052817Y-043354
X052817Y-04363
X052817Y-045362
X052817Y-045638
T3
X03696Y-04173
X037324Y-044225
X0374Y-0448
X03743Y-04448
X03785Y-04105
X03785Y-0416
X0384Y-04945
X03845Y-0451
X03858Y-04298
X038684Y-043534
X0388Y-046
X039Y-04645
X03912Y-04279
X03946Y-04245
X0397Y-0447
X03973Y-04321
X040011Y-04742
X0403Y-04102
X04075Y-0432
X0412Y-04515
X0412Y-04565
X042Y-04205
X042Y-04295
X0423Y-0417
X0432Y-04615
X0438Y-04675
X04425Y-0462
X0443Y-04475
X04435Y-04285
X04455Y-049
X04465Y-0443
X0447Y-0432
X04485Y-04595
X0451Y-04475
X0457Y-04585
X046Y-04305
X04648Y-0451
X04701Y-042365
X04705Y-04535
X04722Y-0451
X04724Y-04311
X04727Y-04613
X04788Y-04663
X04795Y-04163
X04877Y-04179
X04927Y-04554
X0496Y-0467
X0497Y-0426
X05025Y-0432
X0511Y-04405
X0511Y-0449
X05175Y-04865
T4
X03579Y-0414
X03629Y-0414
X0374Y-04683
X0374Y-04733
X0374Y-04783
X04Y-0414
X0405Y-0414
X041Y-0414
X0415Y-0414
X042Y-0414
X0425Y-0414
T0
M30
